<svg xmlns="http://www.w3.org/2000/svg" viewBox="0 0 286.43 348.67"><defs><style>.cls-1{fill:#fff;}</style></defs><title>Asset 8</title><g id="Layer_2" data-name="Layer 2"><g id="Layer_1-2" data-name="Layer 1"><path class="cls-1" d="M51.63,339.53a1.92,1.92,0,0,0-.68-.43,2.45,2.45,0,0,0-.87-.15H48.59v4.22h1a3.51,3.51,0,0,0,1.05-.15,2.52,2.52,0,0,0,.85-.43,2,2,0,0,0,.55-.68,2,2,0,0,0,.19-.9,2.23,2.23,0,0,0-.15-.83A2,2,0,0,0,51.63,339.53Z"/><polygon class="cls-1" points="82.44 344.41 86.17 344.41 84.33 340.4 82.44 344.41"/><path class="cls-1" d="M193.55,339.91a3.19,3.19,0,0,0-2.67-1.32,3.4,3.4,0,0,0-1.55.35,3,3,0,0,0-1.12,1,4.51,4.51,0,0,0-.69,1.5,7.59,7.59,0,0,0-.22,1.91,8,8,0,0,0,.22,1.94,4.82,4.82,0,0,0,.69,1.54,3.29,3.29,0,0,0,1.12,1,3.4,3.4,0,0,0,1.55.35,3.27,3.27,0,0,0,1.54-.35,3.63,3.63,0,0,0,1.13-1,5,5,0,0,0,.68-1.54,7.07,7.07,0,0,0,.24-1.94,6.75,6.75,0,0,0-.24-1.91A4.7,4.7,0,0,0,193.55,339.91Z"/><path class="cls-1" d="M17.11,346.79a3.21,3.21,0,0,0,1.13,1,3.25,3.25,0,0,0,1.55.36,3.16,3.16,0,0,0,1.54-.36,3.27,3.27,0,0,0,1.12-1,4.58,4.58,0,0,0,.69-1.53,7.48,7.48,0,0,0,.23-1.94,7.2,7.2,0,0,0-.23-1.91,4.51,4.51,0,0,0-.69-1.5,3.09,3.09,0,0,0-2.66-1.32,3.37,3.37,0,0,0-1.55.34,3.23,3.23,0,0,0-1.13,1,4.49,4.49,0,0,0-.68,1.5,7.63,7.63,0,0,0-.23,1.91,7.94,7.94,0,0,0,.23,1.94A4.56,4.56,0,0,0,17.11,346.79Z"/><path class="cls-1" d="M59.77,109.92l.53,1.17,7.4,16.6a7.35,7.35,0,0,1,0,6L60.3,150.28l3.35,1.29,8.08,3.09,7.07,2.7h0l7-15.63a27.1,27.1,0,0,0,0-22.1L78.8,104,72.18,89.18,60,61.9a10.68,10.68,0,0,1,2.25-12.16,10.5,10.5,0,0,1,12.16-2.25l27.28,12.16,5.8-15.15,1.29-3.35L82.51,29.42a30.79,30.79,0,0,0-12.59-2.7A30.75,30.75,0,0,0,42,70L53.68,96.27h0Z"/><path class="cls-1" d="M134.21,208.86a22.29,22.29,0,0,1,18,0l10.59,4.74,1.27-3.35,5.82-15.15-9.62-4.29a41.69,41.69,0,0,0-34.12,0l-9.63,4.29-14.82,6.61L74.43,213.88a10.57,10.57,0,0,1-12.16-2.27A10.64,10.64,0,0,1,60,199.45l12.16-27.28L57,166.38l-3.34-1.28L42,191.39a30.65,30.65,0,0,0,40.54,40.54l26.3-11.71,14.84-6.63Z"/><path class="cls-1" d="M152.21,52.49a22.27,22.27,0,0,1-18,0l-10.58-4.73-1.29,3.35-5.8,15.16,9.62,4.29a41.9,41.9,0,0,0,34.12,0l9.62-4.29,14.82-6.62L212,47.49a10.52,10.52,0,0,1,12.17,2.25,10.65,10.65,0,0,1,2.25,12.16L214.24,89.18l11.09,4.25L229.39,95l3.35,1.29h0L244.47,70a30.66,30.66,0,0,0-40.54-40.54l-26.3,11.73-14.82,6.61Z"/><path class="cls-1" d="M184.72,201.71l1.29-3.35,1.27-3.35,1.53-3.95a25.6,25.6,0,0,1,14.77-14.79l4-1.51-6.45-14.49-.17-.35-3.13,1.22a41.87,41.87,0,0,0-24.14,24.11l-1.2,3.16-1.28,3.35-1.28,3.34-5.82,15.15-1.27,3.35-1.29,3.34-8.1,21.2a10.93,10.93,0,0,1-20.4,0l-8.12-21.2-1.27-3.35-14.84,6.63,1.29,3.35,7.8,20.38a27.13,27.13,0,0,0,50.66,0l7.82-20.38,1.27-3.35,1.29-3.35Z"/><path class="cls-1" d="M101.71,59.65,100.42,63l-1.27,3.35-1.52,4A25.63,25.63,0,0,1,82.85,85.09l-4,1.51,6.45,14.48.16.35,3.15-1.21a41.89,41.89,0,0,0,24.12-24.11L114,73l1.28-3.33,1.29-3.35,5.8-15.16,1.29-3.35,1.27-3.35L133,23.23a10.92,10.92,0,0,1,20.4,0l8.12,21.18,1.27,3.35,14.82-6.61-1.27-3.34-7.82-20.39a27.13,27.13,0,0,0-50.66,0l-7.8,20.39-1.28,3.34-1.29,3.35Z"/><path class="cls-1" d="M30,156l20.38,7.81,3.35,1.29L57,166.38l15.16,5.79,3.35,1.3,3.35,1.29L89,178.62a10.93,10.93,0,0,1,6.31,6.29L99.15,195l14.47-6.45.35-.15-3.57-9.31a27.12,27.12,0,0,0-15.61-15.62l-9.3-3.56-3.34-1.28-3.35-1.28h0l-7.07-2.7-8.09-3.09L56.94,149l-21.18-8.12a10.91,10.91,0,0,1,0-20.38l21.18-8.12,3.35-1.28-.52-1.17L53.68,96.27h0l-3.34,1.27L30,105.35A27.12,27.12,0,0,0,30,156Z"/><path class="cls-1" d="M229.39,95l-4.06-1.55-11.1-4.24-6.7-2.58-10.09-3.88a10.84,10.84,0,0,1-6.29-6.29l-3.87-10.09L172.82,72.8l-.36.16L176,82.25a27.14,27.14,0,0,0,15.61,15.63l9.29,3.57,3.36,1.28,3.33,1.28,15.16,5.79,3.35,1.29,3.35,1.28,21.2,8.12a10.91,10.91,0,0,1,0,20.38L229.49,149l-3.35,1.29,6.6,14.81,3.35-1.28L256.47,156a27.12,27.12,0,0,0,0-50.65l-20.38-7.81-3.35-1.27h0Z"/><path class="cls-1" d="M12.1,327.07A11.35,11.35,0,0,0,19.16,325a11.71,11.71,0,0,0,4-6.46l-5.2-1.65a8,8,0,0,1-2.21,4.28,5.42,5.42,0,0,1-3.68,1.36,5.91,5.91,0,0,1-4.71-2.14q-1.81-2.14-1.81-7.18,0-4.74,1.84-6.86a6,6,0,0,1,4.79-2.12,5.48,5.48,0,0,1,5.6,4.45l5.3-1.26a10.54,10.54,0,0,0-2.71-4.9,11.06,11.06,0,0,0-7.92-2.88,11.79,11.79,0,0,0-9,3.67Q0,306.95,0,313.57q0,6.27,3.41,9.88A11.42,11.42,0,0,0,12.1,327.07Z"/><path class="cls-1" d="M46.92,299.6a14.61,14.61,0,0,0-5.73,1,10.29,10.29,0,0,0-3.43,2.4,12.15,12.15,0,0,0-2.47,3.64,16.83,16.83,0,0,0-1.22,6.81q0,6.35,3.5,9.95A12.5,12.5,0,0,0,47,327.07a12.38,12.38,0,0,0,9.35-3.63q3.49-3.65,3.49-10.07t-3.52-10.13A12.5,12.5,0,0,0,46.92,299.6Zm5.31,20.58A6.72,6.72,0,0,1,47,322.49a6.79,6.79,0,0,1-5.29-2.33q-2.09-2.32-2.08-6.84c0-3.06.67-5.34,2-6.86A6.79,6.79,0,0,1,47,304.19a6.81,6.81,0,0,1,5.32,2.24q2,2.25,2,6.82C54.29,316.33,53.61,318.64,52.23,320.18Z"/><polygon class="cls-1" points="84.21 318.17 79.39 300.06 71.37 300.06 71.37 326.62 76.35 326.62 76.35 305.71 81.61 326.62 86.77 326.62 92.04 305.71 92.04 326.62 97.02 326.62 97.02 300.06 88.98 300.06 84.21 318.17"/><polygon class="cls-1" points="135.35 326.62 135.35 300.06 127.31 300.06 122.54 318.17 117.72 300.06 109.7 300.06 109.7 326.62 114.68 326.62 114.68 305.71 119.93 326.62 125.1 326.62 130.37 305.71 130.37 326.62 135.35 326.62"/><path class="cls-1" d="M148.06,300.06v14.16a32.21,32.21,0,0,0,.53,6.74,7.33,7.33,0,0,0,1.5,3,8.36,8.36,0,0,0,3.11,2.28,14.61,14.61,0,0,0,5.77.88,13.57,13.57,0,0,0,5.11-.81,8,8,0,0,0,3.12-2.16,7.51,7.51,0,0,0,1.61-3.34,35.86,35.86,0,0,0,.43-6.75V300.06h-5.36v14.69a29.36,29.36,0,0,1-.24,4.51,3.64,3.64,0,0,1-1.39,2.29,5.41,5.41,0,0,1-3.44.94,5.73,5.73,0,0,1-3.55-1,4.26,4.26,0,0,1-1.63-2.62,28.88,28.88,0,0,1-.2-4.44V300.06Z"/><polygon class="cls-1" points="198.46 317.79 187.59 300.06 182.37 300.06 182.37 326.62 187.35 326.62 187.35 309.3 198.06 326.62 203.44 326.62 203.44 300.06 198.46 300.06 198.46 317.79"/><rect class="cls-1" x="216.37" y="300.06" width="5.36" height="26.56"/><polygon class="cls-1" points="232.36 304.55 240.24 304.55 240.24 326.62 245.6 326.62 245.6 304.55 253.47 304.55 253.47 300.06 232.36 300.06 232.36 304.55"/><polygon class="cls-1" points="261.6 300.06 271.32 315.44 271.32 326.62 276.67 326.62 276.67 315.47 286.43 300.06 280.26 300.06 274.13 310.56 267.88 300.06 261.6 300.06"/><polygon class="cls-1" points="4.05 348.43 5.75 348.43 5.75 344.06 9.67 338.32 8.75 338.32 5.25 343.44 1.74 338.32 0 338.32 4.05 344.22 4.05 348.43"/><path class="cls-1" d="M17.6,348.25a5.95,5.95,0,0,0,4.39,0,5.49,5.49,0,0,0,3-2.85,5.2,5.2,0,0,0,.43-2.08,5.05,5.05,0,0,0-.43-2.05,5.32,5.32,0,0,0-1.19-1.66A5.54,5.54,0,0,0,22,338.5a6.08,6.08,0,0,0-4.39,0,5.54,5.54,0,0,0-1.77,1.11,5.16,5.16,0,0,0-1.19,1.66,5.05,5.05,0,0,0-.43,2.05,5.2,5.2,0,0,0,.43,2.08,5.33,5.33,0,0,0,1.19,1.7A5.47,5.47,0,0,0,17.6,348.25Zm-1.17-6.84a4.49,4.49,0,0,1,.68-1.5,3.23,3.23,0,0,1,1.13-1,3.37,3.37,0,0,1,1.55-.34,3.09,3.09,0,0,1,2.66,1.32,4.51,4.51,0,0,1,.69,1.5,7.2,7.2,0,0,1,.23,1.91,7.48,7.48,0,0,1-.23,1.94,4.58,4.58,0,0,1-.69,1.53,3.27,3.27,0,0,1-1.12,1,3.16,3.16,0,0,1-1.54.36,3.25,3.25,0,0,1-1.55-.36,3.21,3.21,0,0,1-1.13-1,4.56,4.56,0,0,1-.68-1.53,7.94,7.94,0,0,1-.23-1.94A7.63,7.63,0,0,1,16.43,341.41Z"/><path class="cls-1" d="M31.55,338.32v6.52a3.91,3.91,0,0,0,.28,1.49,3.46,3.46,0,0,0,.82,1.22,3.79,3.79,0,0,0,1.35.82,5.28,5.28,0,0,0,1.85.3,6.05,6.05,0,0,0,2-.3,3.71,3.71,0,0,0,1.37-.82,3.18,3.18,0,0,0,.79-1.2,4.2,4.2,0,0,0,.25-1.47v-6.56h-.74v6.56a3.52,3.52,0,0,1-.22,1.22,3.12,3.12,0,0,1-.62,1,3,3,0,0,1-1,.67,3.3,3.3,0,0,1-3.61-.67,3.14,3.14,0,0,1-.63-1,3.3,3.3,0,0,1-.22-1.22v-6.56Z"/><path class="cls-1" d="M53.38,342.58a2.42,2.42,0,0,0,.5-.74,2.18,2.18,0,0,0,.18-.89,2.52,2.52,0,0,0-.23-1.06,2.38,2.38,0,0,0-.69-.83,3.73,3.73,0,0,0-1.15-.55,5.82,5.82,0,0,0-1.59-.19H46.89v10.11h1.7v-4.75h1.19l3.52,4.75h2l-3.68-4.9a4.49,4.49,0,0,0,1-.38A3.27,3.27,0,0,0,53.38,342.58ZM52,341.91a2,2,0,0,1-.55.68,2.52,2.52,0,0,1-.85.43,3.51,3.51,0,0,1-1.05.15h-1V339h1.49a2.45,2.45,0,0,1,.87.15,1.92,1.92,0,0,1,.68.43,2,2,0,0,1,.44.65,2.23,2.23,0,0,1,.15.83A2,2,0,0,1,52,341.91Z"/><polygon class="cls-1" points="67.16 338.97 70.82 338.97 70.82 348.43 72.52 348.43 72.52 338.97 76.18 338.97 76.18 338.32 67.16 338.32 67.16 338.97"/><path class="cls-1" d="M84.58,338.09l-4.89,10.35h.85l1.61-3.38h4.33L88,348.44h1.73L85,338.09Zm-2.14,6.32,1.89-4,1.84,4Z"/><path class="cls-1" d="M97.76,340.07a3.9,3.9,0,0,1,1.33-.93,4.29,4.29,0,0,1,1.7-.33,3,3,0,0,1,1.79.57,5,5,0,0,1,1.42,1.8l.74-.49a6.72,6.72,0,0,0-.75-1,5.32,5.32,0,0,0-1-.83,5.09,5.09,0,0,0-1.25-.57,4.69,4.69,0,0,0-1.48-.22,5.94,5.94,0,0,0-2.31.43,5.74,5.74,0,0,0-1.8,1.18A5.34,5.34,0,0,0,95,341.41a5.1,5.1,0,0,0-.42,2,4.77,4.77,0,0,0,.44,2,5.07,5.07,0,0,0,1.21,1.66,5.65,5.65,0,0,0,1.83,1.13,6.5,6.5,0,0,0,2.32.41c.53,0,1,0,1.42-.06a7.46,7.46,0,0,0,1.15-.19,6.87,6.87,0,0,0,1-.3,8,8,0,0,0,.89-.42v-4.45H101.2v.6h1.91v3.55a3.15,3.15,0,0,1-1,.51,3.69,3.69,0,0,1-1.2.18,4.47,4.47,0,0,1-1.72-.33,4,4,0,0,1-1.39-.92,4.56,4.56,0,0,1-.93-1.46,5.31,5.31,0,0,1-.34-1.93,5.52,5.52,0,0,1,.32-1.92A4,4,0,0,1,97.76,340.07Z"/><polygon class="cls-1" points="111.42 338.32 111.42 348.43 118.22 348.43 118.22 347.78 113.12 347.78 113.12 338.32 111.42 338.32"/><rect class="cls-1" x="123.88" y="338.32" width="1.7" height="10.12"/><polygon class="cls-1" points="140.78 338.32 140.03 338.32 140.03 345.71 139.96 345.71 133.32 338.32 132.37 338.32 132.37 348.43 133.14 348.43 133.14 340.44 133.2 340.44 140.38 348.67 140.78 348.67 140.78 338.32"/><polygon class="cls-1" points="147.56 348.43 154.59 348.43 154.59 347.78 149.26 347.78 149.26 343.25 152.83 343.25 152.83 342.59 149.26 342.59 149.26 338.97 154.59 338.97 154.59 338.32 147.56 338.32 147.56 348.43"/><path class="cls-1" d="M172.08,340.07a3.9,3.9,0,0,1,1.33-.93,4.29,4.29,0,0,1,1.7-.33,2.94,2.94,0,0,1,1.79.57,5.14,5.14,0,0,1,1.43,1.8l.73-.49a6.08,6.08,0,0,0-.75-1,5.32,5.32,0,0,0-1-.83,4.92,4.92,0,0,0-1.25-.57,4.69,4.69,0,0,0-1.48-.22,6,6,0,0,0-2.31.43,5.69,5.69,0,0,0-1.79,1.18,5.37,5.37,0,0,0-1.17,1.71,5.1,5.1,0,0,0-.42,2,4.77,4.77,0,0,0,.44,2,5.07,5.07,0,0,0,1.21,1.66,5.76,5.76,0,0,0,1.83,1.13,6.5,6.5,0,0,0,2.32.41c.53,0,1,0,1.42-.06a7.46,7.46,0,0,0,1.15-.19,6.87,6.87,0,0,0,1-.3,8,8,0,0,0,.89-.42v-4.45h-3.61v.6h1.91v3.55a3.15,3.15,0,0,1-1,.51,3.69,3.69,0,0,1-1.2.18,4.47,4.47,0,0,1-1.72-.33,4.07,4.07,0,0,1-1.39-.92,4.56,4.56,0,0,1-.93-1.46,5.31,5.31,0,0,1-.33-1.93,5.52,5.52,0,0,1,.31-1.92A4.33,4.33,0,0,1,172.08,340.07Z"/><path class="cls-1" d="M196,345.39a5.09,5.09,0,0,0-1.18-5.78,5.6,5.6,0,0,0-1.77-1.11,6.08,6.08,0,0,0-4.39,0,5.84,5.84,0,0,0-1.77,1.11,5.48,5.48,0,0,0-1.19,1.66,5.26,5.26,0,0,0,0,4.12,5.58,5.58,0,0,0,5.15,3.28,5.53,5.53,0,0,0,2.2-.42,5.36,5.36,0,0,0,1.77-1.15A5,5,0,0,0,196,345.39Zm-1.8-.13a5,5,0,0,1-.68,1.54,3.63,3.63,0,0,1-1.13,1,3.27,3.27,0,0,1-1.54.35,3.4,3.4,0,0,1-1.55-.35,3.29,3.29,0,0,1-1.12-1,4.82,4.82,0,0,1-.69-1.54,8,8,0,0,1-.22-1.94,7.59,7.59,0,0,1,.22-1.91,4.51,4.51,0,0,1,.69-1.5,3,3,0,0,1,1.12-1,3.4,3.4,0,0,1,1.55-.35,3.19,3.19,0,0,1,2.67,1.32,4.7,4.7,0,0,1,.68,1.5,6.75,6.75,0,0,1,.24,1.91A7.07,7.07,0,0,1,194.23,345.26Z"/><polygon class="cls-1" points="202.82 348.43 209.85 348.43 209.85 347.78 204.52 347.78 204.52 343.25 208.09 343.25 208.09 342.59 204.52 342.59 204.52 338.97 209.85 338.97 209.85 338.32 202.82 338.32 202.82 348.43"/><path class="cls-1" d="M220.16,347.62a2.36,2.36,0,0,1-.66.31,3.07,3.07,0,0,1-.74.1,2.8,2.8,0,0,1-1.73-.56,3,3,0,0,1-1.06-1.55l-.92.38a3.62,3.62,0,0,0,1.27,1.74,3.87,3.87,0,0,0,2.32.63,4.78,4.78,0,0,0,1.58-.23,3.31,3.31,0,0,0,1.13-.62,2.46,2.46,0,0,0,.69-.92,2.89,2.89,0,0,0,.23-1.13,1.87,1.87,0,0,0-.25-1,3,3,0,0,0-.65-.79,6,6,0,0,0-.91-.67c-.35-.21-.7-.41-1.05-.59l-1-.56a7.25,7.25,0,0,1-.92-.57,3,3,0,0,1-.65-.63,1.2,1.2,0,0,1-.24-.72,1.41,1.41,0,0,1,.12-.56,1.51,1.51,0,0,1,.36-.49,1.87,1.87,0,0,1,.59-.34,2.38,2.38,0,0,1,.84-.14,2.48,2.48,0,0,1,1.73.58,3.23,3.23,0,0,1,1,1.51l.87-.4a3.34,3.34,0,0,0-1.21-1.74,3.8,3.8,0,0,0-2.27-.6,4.36,4.36,0,0,0-1.41.21,2.78,2.78,0,0,0-1,.57,2.3,2.3,0,0,0-.64.85,2.58,2.58,0,0,0-.22,1.08,2.11,2.11,0,0,0,.24,1,3.05,3.05,0,0,0,.63.81,4.67,4.67,0,0,0,.89.66c.33.19.67.38,1,.56l1,.53a6.82,6.82,0,0,1,.89.57,2.76,2.76,0,0,1,.62.67,1.44,1.44,0,0,1,.24.82,1.37,1.37,0,0,1-.17.68A1.69,1.69,0,0,1,220.16,347.62Z"/><polygon class="cls-1" points="245.53 348.43 245.53 338.32 243.83 338.32 243.83 342.92 238.75 342.92 238.75 338.32 237.04 338.32 237.04 348.43 238.75 348.43 238.75 343.58 243.83 343.58 243.83 348.43 245.53 348.43"/><polygon class="cls-1" points="259.36 338.97 259.36 338.32 252.32 338.32 252.32 348.43 259.36 348.43 259.36 347.78 254.03 347.78 254.03 343.25 257.6 343.25 257.6 342.59 254.03 342.59 254.03 338.97 259.36 338.97"/><path class="cls-1" d="M272,342.58a2.42,2.42,0,0,0,.5-.74,2.18,2.18,0,0,0,.18-.89,2.39,2.39,0,0,0-.24-1.06,2.18,2.18,0,0,0-.69-.83,3.56,3.56,0,0,0-1.14-.55,5.82,5.82,0,0,0-1.59-.19H265.5v10.11h1.7v-4.75h1.19l3.52,4.75h2l-3.68-4.9a4.49,4.49,0,0,0,1-.38A3.27,3.27,0,0,0,272,342.58Z"/><path class="cls-1" d="M226.13,150.28l-7.4-16.62a7.31,7.31,0,0,1,0-6l7.4-16.6-3.35-1.29L207.62,104l-7,15.62a27.16,27.16,0,0,0,0,22.09l7,15.64,6.61,14.81,12.16,27.28a10.67,10.67,0,0,1-2.24,12.16A10.58,10.58,0,0,1,212,213.88l-27.28-12.17-5.8,15.16-1.29,3.35,26.3,11.71a30.7,30.7,0,0,0,40.55-40.54l-11.74-26.3-6.6-14.81Z"/><polygon class="cls-1" points="286.43 338.97 286.43 338.32 279.4 338.32 279.4 348.43 286.43 348.43 286.43 347.78 281.1 347.78 281.1 343.25 284.67 343.25 284.67 342.59 281.1 342.59 281.1 338.97 286.43 338.97"/></g></g></svg>