<svg xmlns="http://www.w3.org/2000/svg" viewBox="0 0 286.43 343.66"><defs><style>.cls-1{fill:#fff;}</style></defs><title>Asset 11</title><g id="Layer_2" data-name="Layer 2"><g id="Layer_1-2" data-name="Layer 1"><path class="cls-1" d="M271.3,337.82a1.66,1.66,0,0,0-.12-.64,1.45,1.45,0,0,0-.86-.82,1.71,1.71,0,0,0-.65-.12h-1.14v3.22h.75a2.65,2.65,0,0,0,.81-.11,2,2,0,0,0,.64-.33,1.42,1.42,0,0,0,.42-.52A1.51,1.51,0,0,0,271.3,337.82Z"/><path class="cls-1" d="M49.54,337.82a1.66,1.66,0,0,0-.12-.64,1.43,1.43,0,0,0-.34-.5,1.52,1.52,0,0,0-.52-.32,1.75,1.75,0,0,0-.65-.12H46.77v3.22h.75a2.65,2.65,0,0,0,.81-.11A2.15,2.15,0,0,0,49,339a1.42,1.42,0,0,0,.42-.52A1.51,1.51,0,0,0,49.54,337.82Z"/><polygon class="cls-1" points="82.3 340.41 85.14 340.41 83.74 337.35 82.3 340.41"/><path class="cls-1" d="M20.36,337a2.47,2.47,0,0,0-.86-.75,2.52,2.52,0,0,0-1.17-.26,2.67,2.67,0,0,0-1.19.26,2.44,2.44,0,0,0-.85.75,3.32,3.32,0,0,0-.52,1.14,5.56,5.56,0,0,0-.18,1.46,5.69,5.69,0,0,0,.18,1.47,3.44,3.44,0,0,0,.52,1.18,2.47,2.47,0,0,0,.85.76,2.43,2.43,0,0,0,1.19.28A2.3,2.3,0,0,0,19.5,343a2.5,2.5,0,0,0,.86-.76,3.64,3.64,0,0,0,.52-1.18,5.69,5.69,0,0,0,.18-1.47,5.56,5.56,0,0,0-.18-1.46A3.51,3.51,0,0,0,20.36,337Z"/><path class="cls-1" d="M192.93,337a2.47,2.47,0,0,0-.86-.75,2.52,2.52,0,0,0-1.17-.26,2.6,2.6,0,0,0-1.18.26,2.39,2.39,0,0,0-.86.75,3.51,3.51,0,0,0-.52,1.14,5.57,5.57,0,0,0-.17,1.46,5.7,5.7,0,0,0,.17,1.47,3.64,3.64,0,0,0,.52,1.18,2.42,2.42,0,0,0,.86.76,2.37,2.37,0,0,0,1.18.28,2.3,2.3,0,0,0,1.17-.28,2.5,2.5,0,0,0,.86-.76,3.44,3.44,0,0,0,.52-1.18,5.69,5.69,0,0,0,.18-1.47,5.56,5.56,0,0,0-.18-1.46A3.32,3.32,0,0,0,192.93,337Z"/><path class="cls-1" d="M278.86,142.09v0l0-.43h0c.08-1.86.13-3.83.13-5.82A135.82,135.82,0,0,0,154.62.47a137.88,137.88,0,0,0-22.81,0A135.82,135.82,0,0,0,7.42,135.79c0,2,0,4,.13,5.83,3,69.71,58.71,125.77,127.88,129.7,1.53.1,3.06.18,4.59.22h.19c.49,0,1,0,1.48,0h3.05c.51,0,1,0,1.48,0C217.44,270,275.62,213.18,278.86,142.09Zm-261.45-.9c-.08-1.72-.12-3.55-.12-5.4A125.91,125.91,0,0,1,132.63,10.31c3.47-.3,7-.45,10.58-.45s7.12.15,10.59.45A125.91,125.91,0,0,1,269.14,135.79c0,1.7,0,3.36-.1,4.94,0,.19-.07.36-.12.54l-.24,1c-.1.41-.2.82-.31,1.22s-.26,1.06-.41,1.58-.28,1.06-.44,1.58-.29,1.05-.46,1.58l-.48,1.53a.11.11,0,0,0,0,0c-.16.51-.33,1-.51,1.54s-.34,1-.53,1.54l-.56,1.55c-.19.51-.39,1-.59,1.53-.74,1.92-1.55,3.82-2.41,5.7-.22.48-.44,1-.67,1.43s-.49,1-.74,1.53-.51,1-.76,1.52c.08-.81.15-1.6.21-2.41.05-.66.1-1.32.14-2l0-.43c.05-.72.09-1.45.11-2.17s.05-1.21.06-1.82c0-.29,0-.58,0-.88,0-.69,0-1.38,0-2.07A117.11,117.11,0,0,0,232.9,79l-.63-.75a117.09,117.09,0,0,0-89.06-41c-.86,0-1.74,0-2.6,0l-.61,0-1.16,0c-1.21,0-2.42.1-3.63.19l-1,.07-1.08.09-1.94.19c-.5,0-1,.1-1.49.15l-1.54.19-.22,0-1.58.22c-.55.08-1.11.16-1.66.26-1.11.18-2.21.37-3.31.57l-1.65.33-.2,0c-2.66.54-5.31,1.19-7.93,1.93l-1.6.46-1.6.48q-2.4.75-4.75,1.59l-1.55.57-.92.35-1.2.47c-.85.33-1.69.68-2.53,1l-1.3.56c-1.6.71-3.19,1.44-4.76,2.22q-2.1,1-4.17,2.16l-1.38.76-1.43.83c-.41.23-.81.46-1.2.7l-1.42.86c-.9.56-1.78,1.12-2.66,1.69-.44.29-.87.57-1.3.87l-1,.71-.26.18-.34.24-.87.61-.16.11,0,0c-.39.27-.78.55-1.16.84s-.85.61-1.27.93c-.84.64-1.67,1.29-2.49,1.94l-1.08.87h0L69,63.8c-.82.67-1.62,1.35-2.42,2S65,67.24,64.16,68L63,69c-.76.73-1.53,1.47-2.28,2.22-.57.56-1.12,1.13-1.68,1.7l-1.25,1.32c-.31.33-.62.65-.92,1s-.57.61-.85.92c-.61.69-1.23,1.39-1.84,2.1h0l-.62.73h0A117.24,117.24,0,0,0,32.1,191.64c.24.73.49,1.45.75,2.17s.51,1.44.79,2.15c.54,1.43,1.11,2.84,1.7,4.24.23.55.47,1.11.71,1.65A125.11,125.11,0,0,1,17.41,141.19Zm227.06,47.33-1.28,1.41-.84.89c-.33.35-.66.7-1,1s-.68.69-1,1-.68.68-1,1-.67.66-1,1l-1.08,1-1.06,1-1.08,1-1.09.94-1,.83-1.22,1-1.12.9c-.73.57-1.47,1.14-2.21,1.69l-.12.09-1.1.8c-.41.3-.83.61-1.26.9l-1.07.75-1.18.79-1.19.78-1.21.77-1.21.74c-.41.26-.81.5-1.22.74l-1.23.71c-.41.24-.83.48-1.24.7l-1.25.69-1.25.66c-.42.22-.84.44-1.27.65l-1.27.63c-.42.21-.86.42-1.28.61s-.86.41-1.29.6c-.87.4-1.73.78-2.61,1.15l-1.31.55-1.31.52c-.92.37-1.85.71-2.77,1l-1.23.43-1.69.58-1,.32q-.67.22-1.35.42c-.46.15-.91.28-1.37.41-1.37.4-2.75.76-4.14,1.1l-1.39.34-1.39.31c-.86.19-1.73.37-2.6.54a.78.78,0,0,0-.21,0l-1.4.25-1.41.24-.58.09c-.53.09-1,.17-1.59.24l-.67.09q-4.59.63-9.26.85a117.31,117.31,0,0,0,69.72-107.16q0-5.91-.59-11.75a107.25,107.25,0,0,1,11.86,49c0,1.42,0,2.83-.08,4.25,0,.37,0,.75-.06,1.12s0,.78-.06,1.17q-.06,1.08-.15,2.16c0,.62-.1,1.25-.17,1.87,0,.46-.09.93-.14,1.39l-.11,1-.24,1.79c-.06.48-.13,1-.21,1.44s-.17,1.13-.27,1.69-.16,1-.25,1.48a2,2,0,0,0-.05.24c-.11.63-.24,1.25-.36,1.86,0,.14-.05.28-.09.41-.1.51-.21,1-.32,1.53s-.29,1.27-.45,1.9c-.1.44-.21.89-.33,1.33-.06.27-.14.54-.21.82s-.19.73-.3,1.1-.16.59-.24.88c-.16.56-.33,1.12-.49,1.67l0,.1c-.2.66-.41,1.31-.62,2ZM142.52,222.21l-.73-.15-2.33-.52c-.78-.18-1.55-.37-2.32-.58l-1.15-.3-1.14-.32-1.1-.32-1.08-.33-.15,0-.27-.09-1.91-.62c-.72-.23-1.43-.48-2.14-.73l-.15-.06c-.6-.21-1.21-.44-1.81-.67l-.54-.2-1.35-.53-.92-.37-1.12-.47-1.09-.48c-.55-.24-1.11-.48-1.65-.74l-.13-.06c-.5-.23-1-.46-1.5-.71-.32-.14-.64-.3-1-.46-.6-.3-1.21-.6-1.82-.92s-1.13-.58-1.68-.89l-.14-.06-.11-.07-.08,0-1.73-1-.29-.16-1.3-.76-.86-.52-1.17-.72-.71-.44-1.06-.68-.9-.59c-.56-.37-1.12-.74-1.67-1.12l-1.29-.91-.19-.13-.58-.43c-.28-.19-.55-.4-.83-.61s-.54-.4-.82-.61c-.48-.36-1-.72-1.42-1.1l-.06,0c-.76-.6-1.53-1.21-2.28-1.84l-1.57-1.32-.66-.58-.73-.64a1.31,1.31,0,0,0-.12-.11c-.53-.47-1.06-1-1.58-1.44l-.22-.2c-.58-.55-1.16-1.1-1.73-1.66l-.8-.79-.81-.82c-.37-.37-.73-.75-1.09-1.13l-.17-.17-.44-.47-1.46-1.59-1.42-1.62-.06-.06c-.25-.29-.49-.57-.72-.86s-.48-.57-.73-.86-.56-.68-.83-1c0-.06-.11-.12-.16-.19-.21-.27-.43-.54-.64-.82-.41-.5-.8-1-1.19-1.53L78,180.8a2,2,0,0,1-.17-.23c-.55-.75-1.1-1.51-1.63-2.29-.27-.39-.55-.78-.81-1.18l-.68-1c-.38-.58-.76-1.17-1.13-1.76l-1.1-1.78c-.37-.6-.72-1.22-1.08-1.83s-.57-1-.84-1.5c-.5-.88-1-1.78-1.45-2.67-.22-.44-.45-.88-.67-1.33-.05-.09-.09-.18-.14-.28-.26-.52-.51-1-.75-1.55-.11-.23-.23-.46-.32-.69-.19-.39-.37-.77-.54-1.15s-.37-.81-.54-1.21c-.28-.62-.55-1.25-.82-1.89s-.63-1.54-.93-2.31c-.07-.18-.14-.37-.22-.55-.16-.41-.31-.83-.46-1.25a3.82,3.82,0,0,1-.13-.36c-.16-.42-.31-.85-.46-1.28l-.09-.26c0-.07-.05-.13-.07-.19-.13-.38-.26-.76-.38-1.14s-.25-.72-.37-1.09c-.32-1-.63-2-.92-3-.19-.63-.36-1.27-.53-1.9s-.31-1.15-.45-1.74c-.09-.32-.16-.64-.24-1-.12-.49-.23-1-.34-1.47-.2-.85-.38-1.7-.55-2.55-.07-.35-.14-.68-.2-1l0-.17c-.09-.41-.16-.82-.23-1.23q-.16-.9-.3-1.8L58.24,133c-.06-.36-.11-.71-.16-1.08l-.15-1.18q-.26-1.92-.42-3.87c0-.53-.1-1.07-.13-1.6s-.09-1.2-.13-1.8h0l-.09-1.81c0-.74-.06-1.5-.07-2.25s0-1.49,0-2.24c0-1.42,0-2.84.08-4.26,0-.34,0-.69,0-1l0-.41c0-.28,0-.56,0-.83l.09-1.39c0-.27,0-.52.06-.78,0-.06,0-.12,0-.18,0-.56.1-1.13.15-1.69s.09-.89.14-1.33c0-.07,0-.14,0-.22,0-.29.07-.6.11-.89.07-.58.14-1.17.23-1.75s.11-.85.19-1.28a.88.88,0,0,1,0-.16c0-.28.08-.56.13-.85s.08-.56.13-.84c0-.08,0-.17.05-.26.06-.38.13-.75.2-1.12h0c.09-.48.17-1,.27-1.43,0-.11,0-.21.07-.32a2.56,2.56,0,0,1,0-.27c0-.23.09-.46.14-.69s.05-.26.08-.39,0-.15.05-.21l.09-.43c0-.13.05-.26.08-.39.12-.55.25-1.1.38-1.64l.06-.25.31-1.24,0-.09c.06-.25.12-.5.19-.75.13-.52.28-1,.42-1.56,0-.11.06-.23.1-.34s0-.06,0-.08c.15-.52.31-1.05.46-1.58l.06-.17,0-.09c.2-.66.4-1.3.62-2v0h0c.79-.91,1.6-1.8,2.42-2.68.5-.54,1-1.07,1.51-1.59.34-.35.67-.69,1-1,.86-.88,1.74-1.73,2.64-2.57L70,76l.8-.74.68-.62,1-.88,1.08-.94c.5-.43,1-.84,1.49-1.25s1.22-1,1.84-1.48L78,69.23l.27-.2,1.52-1.14,1.71-1.23.1-.07,1.07-.75,1.19-.79c.36-.25.73-.48,1.1-.72l0,0s0,0,.05,0c.55-.36,1.12-.72,1.68-1.06.89-.56,1.8-1.1,2.71-1.62.55-.33,1.11-.65,1.67-1a.05.05,0,0,1,0,0c.68-.38,1.35-.75,2-1.1l.64-.34.63-.32,1.16-.59.57-.28,1.21-.58c1.19-.57,2.4-1.11,3.61-1.63h0l1-.4c.66-.27,1.32-.55,2-.81l1.82-.69,1.93-.7,1.94-.65.29-.1.22-.08.5-.16,1.06-.32,1-.3c1.51-.46,3-.87,4.56-1.24.23-.07.47-.12.7-.18l.22-.05,1.23-.28,1.22-.28,2.47-.5,1.41-.26,1.41-.24,1.92-.29.24,0,.68-.09c1.05-.14,2.09-.26,3.14-.38l1-.09c1.5-.15,3-.26,4.51-.34l1.45-.07c.35,0,.7,0,1.06,0s1,0,1.46,0h0l1.82,0,1.83,0h0c.49,0,1,0,1.47,0l1.06,0,1.45.07c1.51.08,3,.19,4.5.34l1,.09c1,.12,2.1.24,3.15.38l.67.09.25,0,1.92.29,1.41.24,1.4.26,2.48.5,1.22.28,1.22.28.23.05c.24.06.47.11.7.18.76.18,1.53.38,2.29.59s1.52.42,2.27.65q.5.14,1,.3l1.05.32c.34.11.69.22,1,.34l1.69.56c2,.7,4,1.46,6,2.29l1,.4h0l1.37.6c.45.2.9.4,1.36.62.89.41,1.79.83,2.68,1.27l1.15.59,1.28.66c.82.44,1.64.88,2.46,1.34l1.9,1.09,1.88,1.13,1.21.76,1.22.78c.4.27.79.54,1.2.8l1.17.81,1.28.89,1.08.79c.39.28.78.57,1.16.87s.77.57,1.15.87l1.14.9,1.12.91c.38.3.75.61,1.12.92l1.1.94c.52.46,1.05.92,1.56,1.39l.25.22,1.42,1.32c.36.33.71.67,1.06,1,1.4,1.34,2.76,2.74,4.09,4.16.33.37.67.73,1,1.09s.88,1,1.31,1.49h0a107.38,107.38,0,0,1-80.89,138.36ZM146,261.67c-.46,0-.91,0-1.37,0h-2.75l-1.41,0A107.16,107.16,0,0,1,35.92,154.42c0-.8,0-1.59,0-2.39s0-1.59.08-2.39v0c0-.77.08-1.55.14-2.32v-.08c0-.61.09-1.23.14-1.84,0-.25,0-.51.07-.77,0-.56.1-1.13.17-1.69,0-.31.06-.62.1-.94a3.11,3.11,0,0,1,0-.32c.15-1.25.32-2.5.52-3.74.07-.5.16-1,.24-1.48.15-.89.31-1.77.48-2.65.07-.32.13-.65.2-1,.11-.53.22-1.06.34-1.59.22-1,.47-2,.73-3.08.15-.59.31-1.2.47-1.8,0-.09,0-.18.08-.28.19-.69.39-1.38.59-2.07s.33-1.11.5-1.65l.27-.83c0-.17.1-.33.16-.5.14-.44.29-.88.44-1.32.31-.9.63-1.79.95-2.67.25-.66.5-1.31.76-2h0c.28-.71.57-1.41.85-2.11.06-.11.1-.23.15-.34.27-.63.54-1.26.82-1.89s.45-1,.69-1.5c.14-.31.29-.62.42-.92q.57-1.18,1.17-2.34a3.61,3.61,0,0,1,.22-.44l0-.07c0,.29-.05.59-.07.89-.06.51-.09,1-.14,1.54s-.1,1.3-.14,1.94c0,.18,0,.34,0,.51,0,.7-.07,1.39-.09,2.09s0,1.21-.07,1.81v.21c0,.22,0,.45,0,.67,0,.69,0,1.38,0,2.08a117.2,117.2,0,0,0,95.09,115.07l.93.19h0a117.22,117.22,0,0,0,110.15-39.13l.62-.73c1.38-1.64,2.69-3.3,4-5A126.18,126.18,0,0,1,146,261.67Z"/><path class="cls-1" d="M18.25,325.52a11.51,11.51,0,0,0,2.22-1.83,14.54,14.54,0,0,0,1.68-2.17L20,319.94c-.45.63-.91,1.22-1.4,1.79a10.47,10.47,0,0,1-1.56,1.5,7.16,7.16,0,0,1-1.79,1,5.46,5.46,0,0,1-2.08.38,7.29,7.29,0,0,1-2.76-.54A7,7,0,0,1,8,322.49a7.76,7.76,0,0,1-1.65-2.63,9.64,9.64,0,0,1-.62-3.62,10.18,10.18,0,0,1,.59-3.64A8,8,0,0,1,7.93,310a6.48,6.48,0,0,1,2.31-1.61A7.29,7.29,0,0,1,13,307.8a5.72,5.72,0,0,1,2.05.37,7.63,7.63,0,0,1,1.86,1,10.86,10.86,0,0,1,1.66,1.47A19.29,19.29,0,0,1,20,312.42l2.21-1.52a12.76,12.76,0,0,0-1.71-2.29,11.06,11.06,0,0,0-2.22-1.81,10.74,10.74,0,0,0-2.76-1.18,12.64,12.64,0,0,0-3.35-.43,14.61,14.61,0,0,0-5,.82,11.45,11.45,0,0,0-3.85,2.29,10.31,10.31,0,0,0-2.49,3.51A11,11,0,0,0,0,316.24a10.6,10.6,0,0,0,.94,4.52,10.33,10.33,0,0,0,2.6,3.49,11.45,11.45,0,0,0,3.94,2.24,15.23,15.23,0,0,0,5,.79,9.81,9.81,0,0,0,3.07-.48A12,12,0,0,0,18.25,325.52Z"/><path class="cls-1" d="M55.07,308.29a12.15,12.15,0,0,0-3.84-2.23,14.3,14.3,0,0,0-9.49,0,12,12,0,0,0-3.83,2.23,10.12,10.12,0,0,0-3.47,7.8,10.68,10.68,0,0,0,3.47,8,11.83,11.83,0,0,0,3.83,2.32,13.18,13.18,0,0,0,4.75.83,13.6,13.6,0,0,0,4.74-.8,11.55,11.55,0,0,0,3.84-2.28,10.42,10.42,0,0,0,2.57-3.55,11.23,11.23,0,0,0,.92-4.59,10,10,0,0,0-3.49-7.77Zm-2.68,11.56a10,10,0,0,1-1.2,3,6,6,0,0,1-2,2,5.62,5.62,0,0,1-5.47,0,6,6,0,0,1-2-2,10,10,0,0,1-1.2-3,16.47,16.47,0,0,1-.41-3.76,15.35,15.35,0,0,1,.41-3.66,9.49,9.49,0,0,1,1.2-2.85,5.85,5.85,0,0,1,2-1.87,5.92,5.92,0,0,1,5.47,0,5.85,5.85,0,0,1,2,1.87,9.49,9.49,0,0,1,1.2,2.85,15.35,15.35,0,0,1,.41,3.66A16.47,16.47,0,0,1,52.39,319.85Z"/><polygon class="cls-1" points="96.22 326.8 96.22 305.71 91.27 305.71 84.08 320.12 76.77 305.71 71.73 305.71 71.73 326.8 75.01 326.8 75.01 312.9 82.14 326.8 84.14 326.8 91.03 313.05 91.03 326.8 96.22 326.8"/><polygon class="cls-1" points="134.96 326.8 134.96 305.71 130.02 305.71 122.83 320.12 115.51 305.71 110.48 305.71 110.48 326.8 113.75 326.8 113.75 312.9 120.88 326.8 122.89 326.8 129.78 313.05 129.78 326.8 134.96 326.8"/><path class="cls-1" d="M165.24,319.24a7,7,0,0,1-.37,2.32,5.84,5.84,0,0,1-1.08,1.87,5.1,5.1,0,0,1-1.7,1.26,5.3,5.3,0,0,1-2.25.47,5.38,5.38,0,0,1-2.26-.47,5,5,0,0,1-1.71-1.26,5.5,5.5,0,0,1-1.08-1.87,7,7,0,0,1-.38-2.32V305.71h-5.19v13.5a8.17,8.17,0,0,0,.61,3.11,7.23,7.23,0,0,0,1.82,2.58,8.83,8.83,0,0,0,3,1.75,12.08,12.08,0,0,0,4.09.63,13.9,13.9,0,0,0,4.46-.63,8.39,8.39,0,0,0,3-1.75,6.79,6.79,0,0,0,1.74-2.56,8.4,8.4,0,0,0,.56-3.1V305.71h-3.28Z"/><polygon class="cls-1" points="198.14 319.12 186.09 305.71 182.78 305.71 182.78 326.8 186.06 326.8 186.06 312.29 199.14 327.13 201.38 327.13 201.38 305.71 198.14 305.71 198.14 319.12"/><rect class="cls-1" x="215.89" y="305.71" width="5.16" height="21.09"/><polygon class="cls-1" points="234.09 307.5 241.38 307.5 241.38 326.8 246.56 326.8 246.56 307.5 253.85 307.5 253.85 305.71 234.09 305.71 234.09 307.5"/><polygon class="cls-1" points="276.45 315.21 269.5 305.71 264.07 305.71 273.02 317.97 273.02 326.8 278.21 326.8 278.21 317.67 286.43 305.71 282.94 305.71 276.45 315.21"/><polygon class="cls-1" points="4 339.67 1.33 335.76 0 335.76 3.08 340.26 3.08 343.48 4.38 343.48 4.38 340.14 7.37 335.76 6.67 335.76 4 339.67"/><path class="cls-1" d="M21.36,336.75A4.36,4.36,0,0,0,20,335.9a4.68,4.68,0,0,0-3.35,0,4.25,4.25,0,0,0-1.35.85,3.79,3.79,0,0,0-1.23,2.83,4,4,0,0,0,.32,1.58,4.07,4.07,0,0,0,.91,1.3,4.32,4.32,0,0,0,1.35.88,4.38,4.38,0,0,0,4.7-.88,4.21,4.21,0,0,0,.9-1.3,3.82,3.82,0,0,0,.33-1.58,3.7,3.7,0,0,0-.33-1.56A4,4,0,0,0,21.36,336.75Zm-.48,4.3a3.64,3.64,0,0,1-.52,1.18,2.5,2.5,0,0,1-.86.76,2.3,2.3,0,0,1-1.17.28,2.43,2.43,0,0,1-1.19-.28,2.47,2.47,0,0,1-.85-.76,3.44,3.44,0,0,1-.52-1.18,5.69,5.69,0,0,1-.18-1.47,5.56,5.56,0,0,1,.18-1.46,3.32,3.32,0,0,1,.52-1.14,2.44,2.44,0,0,1,.85-.75,2.67,2.67,0,0,1,1.19-.26,2.52,2.52,0,0,1,1.17.26,2.47,2.47,0,0,1,.86.75,3.51,3.51,0,0,1,.52,1.14,5.56,5.56,0,0,1,.18,1.46A5.69,5.69,0,0,1,20.88,341.05Z"/><path class="cls-1" d="M36.62,340.77a2.6,2.6,0,0,1-.16.93,2.23,2.23,0,0,1-.48.76,2.26,2.26,0,0,1-.75.51,2.43,2.43,0,0,1-1,.19,2.48,2.48,0,0,1-1-.19,2.42,2.42,0,0,1-.76-.51,2.23,2.23,0,0,1-.48-.76,2.6,2.6,0,0,1-.17-.93v-5h-1.3v5a2.85,2.85,0,0,0,.22,1.13,2.76,2.76,0,0,0,.62.93,2.88,2.88,0,0,0,1,.63,4.1,4.1,0,0,0,1.42.23,4.65,4.65,0,0,0,1.53-.23,2.73,2.73,0,0,0,1-.63,2.49,2.49,0,0,0,.6-.91,3.18,3.18,0,0,0,.19-1.12v-5h-.57Z"/><path class="cls-1" d="M49.82,339.45a2.45,2.45,0,0,0,.6-.44,1.91,1.91,0,0,0,.38-.56,1.72,1.72,0,0,0,.14-.68,1.85,1.85,0,0,0-.18-.81,1.77,1.77,0,0,0-.53-.63,2.52,2.52,0,0,0-.87-.42,4.42,4.42,0,0,0-1.22-.15H45.47v7.72h1.3v-3.63h.91l2.68,3.63h1.5l-2.81-3.75A3.5,3.5,0,0,0,49.82,339.45Zm-1.49-.1a2.65,2.65,0,0,1-.81.11h-.75v-3.22h1.14a1.75,1.75,0,0,1,.65.12,1.52,1.52,0,0,1,.52.32,1.43,1.43,0,0,1,.34.5,1.66,1.66,0,0,1,.12.64,1.51,1.51,0,0,1-.15.68A1.42,1.42,0,0,1,49,339,2.15,2.15,0,0,1,48.33,339.35Z"/><polygon class="cls-1" points="67.4 336.26 70.2 336.26 70.2 343.48 71.49 343.48 71.49 336.26 74.29 336.26 74.29 335.76 67.4 335.76 67.4 336.26"/><path class="cls-1" d="M83.92,335.59l-3.71,7.89h.64l1.22-2.58h3.31l1.18,2.58h1.32l-3.63-7.89Zm-1.62,4.82,1.44-3.06,1.4,3.06Z"/><path class="cls-1" d="M99.84,340h1.46v2.7a2.72,2.72,0,0,1-.73.4,3,3,0,0,1-.92.13,3.55,3.55,0,0,1-1.31-.24,3.24,3.24,0,0,1-1.06-.71,3.35,3.35,0,0,1-.71-1.11,4,4,0,0,1-.26-1.47,4.24,4.24,0,0,1,.24-1.47,3.26,3.26,0,0,1,.67-1.11,2.89,2.89,0,0,1,1-.71,3.46,3.46,0,0,1,1.3-.25,2.29,2.29,0,0,1,1.36.43A3.9,3.9,0,0,1,102,338l.56-.38a5.43,5.43,0,0,0-.57-.74,4,4,0,0,0-.76-.64,4.37,4.37,0,0,0-.95-.44,3.72,3.72,0,0,0-1.13-.16,4.56,4.56,0,0,0-1.76.33,4.18,4.18,0,0,0-1.37.9,4.13,4.13,0,0,0-.89,1.3,4,4,0,0,0-.32,1.56,3.72,3.72,0,0,0,.34,1.54,3.94,3.94,0,0,0,.92,1.26,4.4,4.4,0,0,0,1.4.86,4.84,4.84,0,0,0,1.77.32c.4,0,.76,0,1.08-.05a6.6,6.6,0,0,0,.87-.14,6.38,6.38,0,0,0,1.43-.56v-3.39H99.84Z"/><polygon class="cls-1" points="112.17 335.76 110.87 335.76 110.87 343.48 116.05 343.48 116.05 342.98 112.17 342.98 112.17 335.76"/><rect class="cls-1" x="123.61" y="335.76" width="1.3" height="7.71"/><polygon class="cls-1" points="139.16 341.4 139.11 341.4 134.06 335.76 133.33 335.76 133.33 343.48 133.91 343.48 133.91 337.38 133.96 337.38 139.44 343.66 139.74 343.66 139.74 335.76 139.16 335.76 139.16 341.4"/><polygon class="cls-1" points="148.15 343.48 153.51 343.48 153.51 342.98 149.44 342.98 149.44 339.52 152.16 339.52 152.16 339.02 149.44 339.02 149.44 336.26 153.51 336.26 153.51 335.76 148.15 335.76 148.15 343.48"/><path class="cls-1" d="M176,340h1.46v2.7a2.63,2.63,0,0,1-.74.4,2.86,2.86,0,0,1-.91.13,3.51,3.51,0,0,1-1.31-.24,3.24,3.24,0,0,1-1.06-.71,3.35,3.35,0,0,1-.71-1.11,4,4,0,0,1-.26-1.47,4.24,4.24,0,0,1,.24-1.47,3.41,3.41,0,0,1,.66-1.11,3,3,0,0,1,1-.71,3.37,3.37,0,0,1,1.29-.25,2.3,2.3,0,0,1,1.37.43,3.9,3.9,0,0,1,1.09,1.38l.56-.38a5.43,5.43,0,0,0-.57-.74,4.29,4.29,0,0,0-.76-.64,4.6,4.6,0,0,0-.95-.44,3.77,3.77,0,0,0-1.13-.16,4.52,4.52,0,0,0-1.76.33,4.18,4.18,0,0,0-1.37.9,4.13,4.13,0,0,0-.89,1.3,4,4,0,0,0-.32,1.56,3.71,3.71,0,0,0,.33,1.54,4,4,0,0,0,.93,1.26,4.4,4.4,0,0,0,1.4.86,4.83,4.83,0,0,0,1.76.32c.4,0,.76,0,1.09-.05a6.89,6.89,0,0,0,.87-.14,5.34,5.34,0,0,0,.74-.24,4.66,4.66,0,0,0,.68-.32v-3.39H176Z"/><path class="cls-1" d="M193.93,336.75a4.25,4.25,0,0,0-1.35-.85,4.68,4.68,0,0,0-3.35,0,4.25,4.25,0,0,0-1.35.85A3.82,3.82,0,0,0,187,338a3.7,3.7,0,0,0-.33,1.56,3.82,3.82,0,0,0,.33,1.58,4,4,0,0,0,.9,1.3,4.32,4.32,0,0,0,1.35.88,4.54,4.54,0,0,0,3.35,0,4.32,4.32,0,0,0,1.35-.88,4.21,4.21,0,0,0,.9-1.3,3.82,3.82,0,0,0,.33-1.58,3.7,3.7,0,0,0-.33-1.56A4,4,0,0,0,193.93,336.75Zm-.48,4.3a3.44,3.44,0,0,1-.52,1.18,2.5,2.5,0,0,1-.86.76,2.3,2.3,0,0,1-1.17.28,2.37,2.37,0,0,1-1.18-.28,2.42,2.42,0,0,1-.86-.76,3.64,3.64,0,0,1-.52-1.18,5.7,5.7,0,0,1-.17-1.47,5.57,5.57,0,0,1,.17-1.46,3.51,3.51,0,0,1,.52-1.14,2.39,2.39,0,0,1,.86-.75,2.6,2.6,0,0,1,1.18-.26,2.52,2.52,0,0,1,1.17.26,2.47,2.47,0,0,1,.86.75,3.32,3.32,0,0,1,.52,1.14,5.56,5.56,0,0,1,.18,1.46A5.69,5.69,0,0,1,193.45,341.05Z"/><polygon class="cls-1" points="203.24 343.48 208.6 343.48 208.6 342.98 204.54 342.98 204.54 339.52 207.26 339.52 207.26 339.02 204.54 339.02 204.54 336.26 208.6 336.26 208.6 335.76 203.24 335.76 203.24 343.48"/><path class="cls-1" d="M220.63,340.1a5.49,5.49,0,0,0-.7-.51c-.26-.16-.53-.31-.8-.45l-.8-.42a6.5,6.5,0,0,1-.7-.44,2,2,0,0,1-.49-.48.88.88,0,0,1-.19-.55,1.06,1.06,0,0,1,.09-.42,1.1,1.1,0,0,1,.27-.38,1.84,1.84,0,0,1,.46-.26,1.76,1.76,0,0,1,.64-.1,1.92,1.92,0,0,1,1.32.44,2.47,2.47,0,0,1,.72,1.15l.67-.3a2.56,2.56,0,0,0-.92-1.33,2.86,2.86,0,0,0-1.73-.46,3.23,3.23,0,0,0-1.08.16,2.25,2.25,0,0,0-.78.43,1.8,1.8,0,0,0-.49.65,2,2,0,0,0-.17.82,1.67,1.67,0,0,0,.18.79,2.81,2.81,0,0,0,.48.61,3.85,3.85,0,0,0,.68.5c.25.15.51.29.78.43l.78.41a5,5,0,0,1,.68.43,2.47,2.47,0,0,1,.47.51,1.12,1.12,0,0,1,.19.63,1,1,0,0,1-.14.51,1.16,1.16,0,0,1-.35.38,1.45,1.45,0,0,1-.5.24,2.23,2.23,0,0,1-.56.08,2.12,2.12,0,0,1-1.33-.43,2.29,2.29,0,0,1-.8-1.18l-.7.29a2.77,2.77,0,0,0,1,1.33,2.89,2.89,0,0,0,1.76.48,3.71,3.71,0,0,0,1.21-.18,2.45,2.45,0,0,0,.86-.47,1.89,1.89,0,0,0,.52-.71,2,2,0,0,0,.18-.86,1.4,1.4,0,0,0-.19-.73A2.35,2.35,0,0,0,220.63,340.1Z"/><polygon class="cls-1" points="244.23 339.27 240.35 339.27 240.35 335.76 239.06 335.76 239.06 343.48 240.35 343.48 240.35 339.77 244.23 339.77 244.23 343.48 245.53 343.48 245.53 335.76 244.23 335.76 244.23 339.27"/><polygon class="cls-1" points="253.95 343.48 259.31 343.48 259.31 342.98 255.25 342.98 255.25 339.52 257.97 339.52 257.97 339.02 255.25 339.02 255.25 336.26 259.31 336.26 259.31 335.76 253.95 335.76 253.95 343.48"/><path class="cls-1" d="M271.58,339.45a2.45,2.45,0,0,0,.6-.44,1.75,1.75,0,0,0,.52-1.24,1.85,1.85,0,0,0-.18-.81,1.68,1.68,0,0,0-.53-.63,2.52,2.52,0,0,0-.87-.42,4.35,4.35,0,0,0-1.21-.15h-2.68v7.72h1.3v-3.63h.91l2.68,3.63h1.5l-2.8-3.75A3.61,3.61,0,0,0,271.58,339.45Zm-1.49-.1a2.65,2.65,0,0,1-.81.11h-.75v-3.22h1.14a1.71,1.71,0,0,1,.65.12,1.45,1.45,0,0,1,.86.82,1.66,1.66,0,0,1,.12.64,1.51,1.51,0,0,1-.15.68,1.42,1.42,0,0,1-.42.52A2,2,0,0,1,270.09,339.35Z"/><polygon class="cls-1" points="281.07 343.48 286.43 343.48 286.43 342.98 282.37 342.98 282.37 339.52 285.09 339.52 285.09 339.02 282.37 339.02 282.37 336.26 286.43 336.26 286.43 335.76 281.07 335.76 281.07 343.48"/></g></g></svg>