<svg xmlns="http://www.w3.org/2000/svg" xmlns:xlink="http://www.w3.org/1999/xlink" viewBox="0 0 604.8 251.66"><defs><style>.cls-1{fill:url(#linear-gradient);}.cls-2{fill:#fff;}</style><linearGradient id="linear-gradient" x1="288.44" y1="60.64" x2="363.98" y2="60.64" gradientUnits="userSpaceOnUse"><stop offset="0" stop-color="#7ac943"/><stop offset="0.19" stop-color="#89cc4e"/><stop offset="0.72" stop-color="#b0d36b"/><stop offset="1" stop-color="#bfd676"/></linearGradient></defs><title>Asset 24</title><g id="Layer_2" data-name="Layer 2"><g id="Layer_1-2" data-name="Layer 1"><path class="cls-1" d="M315.26,71.7,293,94a15.63,15.63,0,0,0,0,22.1h0a15.63,15.63,0,0,0,22.12,0l44.28-44.44a15.63,15.63,0,0,0,0-22.08L315.14,5.24a15.63,15.63,0,0,0-22.1,0l0,0a15.63,15.63,0,0,0,0,22.1L315.26,49.6A15.61,15.61,0,0,1,315.26,71.7Z" transform="translate(0)"/><path class="cls-2" d="M272.14,71,249.89,93.28a15.63,15.63,0,0,0,0,22.1h0a15.63,15.63,0,0,0,22.12,0L316.3,70.93a15.64,15.64,0,0,0,0-22.08L272,4.58a15.61,15.61,0,0,0-22.1,0l0,0a15.62,15.62,0,0,0,0,22.09l22.25,22.25A15.63,15.63,0,0,1,272.14,71Z" transform="translate(0)"/><path class="cls-2" d="M42.37,226.22v24.27H26.52V226L0,182H16.83l18.3,30.43L53.43,182H69Z" transform="translate(0)"/><path class="cls-2" d="M68.4,216.24c0-20.36,15.85-35.43,37.47-35.43s37.48,15,37.48,35.43-15.95,35.42-37.48,35.42S68.4,236.59,68.4,216.24Zm58.9,0c0-13-9.19-21.92-21.43-21.92s-21.43,8.9-21.43,21.92,9.2,21.92,21.43,21.92S127.3,229.25,127.3,216.24Z" transform="translate(0)"/><path class="cls-2" d="M154.7,220.35V182h15.85v37.77c0,13,5.68,18.4,15.26,18.4s15.27-5.38,15.27-18.4V182h15.66v38.36c0,20.16-11.55,31.31-31,31.31S154.7,240.51,154.7,220.35Z" transform="translate(0)"/><path class="cls-2" d="M276,250.49l-13.21-19.08H248.24v19.08H232.39V182H262c18.3,0,29.75,9.49,29.75,24.85,0,10.28-5.19,17.81-14.09,21.63l15.36,22Zm-14.87-55.58H248.24v23.87h12.92c9.69,0,14.58-4.5,14.58-11.94S270.85,194.91,261.16,194.91Z" transform="translate(0)"/><path class="cls-2" d="M367.13,182v68.5h-13L320,208.9v41.59H304.31V182h13.11l34.05,41.59V182Z" transform="translate(0)"/><path class="cls-2" d="M428.48,235.81h-31.8l-6.07,14.68H374.36L404.9,182h15.65l30.63,68.5H434.54Zm-5-12-10.86-26.22-10.87,26.22Z" transform="translate(0)"/><path class="cls-2" d="M520.65,250.49l-.1-41.1L500.4,243.25h-7.15l-20.06-33v40.22H458.32V182h13.11l25.64,42.57L522.31,182h13l.19,68.5Z" transform="translate(0)"/><path class="cls-2" d="M604.8,237.77v12.72h-53V182h51.77v12.72h-36v14.87h31.8v12.33h-31.8v15.86Z" transform="translate(0)"/></g></g></svg>