<svg xmlns="http://www.w3.org/2000/svg" viewBox="0 0 123.44 123.44"><defs><style>.cls-1{fill:#e34932;}.cls-2{fill:#fff;}</style></defs><title>Asset 1</title><g id="Layer_2" data-name="Layer 2"><g id="Layer_1-2" data-name="Layer 1"><path class="cls-1" d="M123.44,61.72A61.72,61.72,0,1,1,61.73,0,61.72,61.72,0,0,1,123.44,61.72Z"/><path class="cls-2" d="M29.36,31.39a11.32,11.32,0,0,1,7.88.9c2.08,1.09,2.51,2.47,3.81,4,2.11-4.26,3.5-8.89,5.67-13.16a1.22,1.22,0,0,1,.48-.57,1.15,1.15,0,0,1,.93.12,63.91,63.91,0,0,1,7.38,4c2,1.23,5.05,4.27,7.33,4.73,2.45.49,2.38-1.72,3-3.71a13.61,13.61,0,0,1,3.88-6.45,11.3,11.3,0,0,1,5.35-2.6c7.4-1.48,19,3.5,20.9,11.39a13.34,13.34,0,0,1-1.07,9.31c-1.42,2.72-3.26,3.06-5.35,5,1.72,2,6,3.26,8.35,4.37,1.52.7,4.49,1.31,5.49,2.75,1.52,2.2-.4,5.51-1.55,7.44A101.3,101.3,0,0,0,97,68c-.27.58-2.41,4.3-3,1.37a8.6,8.6,0,0,0-2-4.12c-3-3.49-9.36-5.12-12.52-1.19-2.94,3.66-6.26,8.55-5.62,13.45.51,3.89,4.42,8.88,8.74,8.9.73,0,6.16-2.43,5.09-.56-2.48,4.33-4.1,9.27-6.06,13.92a13,13,0,0,1-2.74,4.58,2,2,0,0,1-1.26.65,2.45,2.45,0,0,1-1.19-.4c-4.84-2.55-9.87-4.8-14.93-7a7.37,7.37,0,0,0,.74-1.13,11.31,11.31,0,0,0,.9-7.88C61.61,82,51.77,77.74,45.51,79A9.51,9.51,0,0,0,41,81.2a11.48,11.48,0,0,0-3.28,5.45c-.09.27-.15.54-.22.81-5-2.12-10-4.29-14.84-6.6-2.48-1.18-2.61-1.6-1.69-4,.59-1.54,1.32-3.06,2.05-4.56a2.7,2.7,0,0,1,.14-.4q.73-1.64,1.59-3.21l5.12-11a14.38,14.38,0,0,0-2.48-.76,11.55,11.55,0,0,1-5.46-3.28,9.59,9.59,0,0,1-2.2-4.53C18.46,42.82,22.67,33,29.36,31.39Z"/></g></g></svg>