<svg xmlns="http://www.w3.org/2000/svg" xmlns:xlink="http://www.w3.org/1999/xlink" viewBox="0 0 347.72 120.62"><defs><style>.cls-1{fill:#fff;}.cls-2{fill:url(#linear-gradient);}.cls-3{fill:#35459f;}</style><linearGradient id="linear-gradient" x1="43.13" y1="60.64" x2="118.67" y2="60.64" gradientUnits="userSpaceOnUse"><stop offset="0" stop-color="#7ac943"/><stop offset="0.19" stop-color="#89cc4e"/><stop offset="0.72" stop-color="#b0d36b"/><stop offset="1" stop-color="#bfd676"/></linearGradient></defs><title>Asset 5</title><g id="Layer_2" data-name="Layer 2"><g id="Layer_1-2" data-name="Layer 1"><path class="cls-1" d="M151.24,66.9v8.47H145.7V66.83l-9.26-15.38h5.88l6.39,10.63,6.39-10.63h5.44Z"/><path class="cls-1" d="M160.33,63.41c0-7.11,5.54-12.37,13.1-12.37s13.09,5.23,13.09,12.37-5.58,12.37-13.09,12.37S160.33,70.52,160.33,63.41Zm20.58,0a7.49,7.49,0,1,0-15,0,7.49,7.49,0,1,0,15,0Z"/><path class="cls-1" d="M190.48,64.85V51.45H196V64.64c0,4.55,2,6.43,5.33,6.43s5.33-1.88,5.33-6.43V51.45h5.47v13.4c0,7-4,10.93-10.83,10.93S190.48,71.89,190.48,64.85Z"/><path class="cls-1" d="M232.87,75.37l-4.62-6.66h-5.09v6.66h-5.54V51.45H228c6.39,0,10.39,3.31,10.39,8.68a7.77,7.77,0,0,1-4.92,7.55l5.37,7.69ZM227.67,56h-4.51V64.3h4.51c3.39,0,5.1-1.57,5.1-4.17S231.06,56,227.67,56Z"/><path class="cls-1" d="M264.69,51.45V75.37h-4.54L248.22,60.85V75.37h-5.47V51.45h4.58L259.22,66V51.45Z"/><path class="cls-1" d="M286.13,70.25H275l-2.12,5.12h-5.68l10.67-23.92h5.47l10.7,23.92h-5.81ZM284.38,66l-3.79-9.16L276.79,66Z"/><path class="cls-1" d="M318.33,75.37l0-14.35-7,11.82h-2.5l-7-11.51v14h-5.2V51.45h4.58l9,14.87,8.82-14.87h4.54l.07,23.92Z"/><path class="cls-1" d="M347.72,70.93v4.44H329.2V51.45h18.08v4.44H334.7v5.2h11.11v4.3H334.7v5.54Z"/><path class="cls-2" d="M70,71.7,47.7,94a15.63,15.63,0,0,0,0,22.1h0a15.63,15.63,0,0,0,22.12,0l44.29-44.44a15.62,15.62,0,0,0,0-22.08L69.82,5.24a15.63,15.63,0,0,0-22.1,0l0,0a15.63,15.63,0,0,0,0,22.1L70,49.6A15.63,15.63,0,0,1,70,71.7Z"/><path class="cls-3" d="M26.82,71,4.58,93.28a15.61,15.61,0,0,0,0,22.1h0a15.62,15.62,0,0,0,22.11,0L71,70.93a15.62,15.62,0,0,0,0-22.08L26.69,4.58a15.6,15.6,0,0,0-22.09,0l0,0a15.6,15.6,0,0,0,0,22.09L26.82,48.94A15.61,15.61,0,0,1,26.82,71Z"/></g></g></svg>