<svg xmlns="http://www.w3.org/2000/svg" viewBox="0 0 286.43 307.67"><defs><style>.cls-1{fill:#fff;}</style></defs><title>Asset 9</title><g id="Layer_2" data-name="Layer 2"><g id="Layer_1-2" data-name="Layer 1"><polygon class="cls-1" points="28.47 115.27 46.04 115.27 46.04 17.56 84.59 17.56 84.59 0 28.47 0 28.47 115.27"/><polygon class="cls-1" points="257.96 203.14 240.4 203.14 240.4 211.92 174.23 211.92 174.23 229.49 257.96 229.49 257.96 203.14"/><polygon class="cls-1" points="166.5 195.41 166.5 177.85 166.5 123 109.89 123 109.89 140.56 148.94 140.56 148.94 177.85 148.94 195.41 148.94 211.92 46.04 211.92 46.04 140.56 92.33 140.56 92.33 123 28.47 123 28.47 229.49 166.5 229.49 166.5 195.41"/><polygon class="cls-1" points="92.33 195.41 148.94 195.41 148.94 177.85 109.89 177.85 109.89 140.56 109.89 123 109.89 17.56 240.4 17.56 240.4 177.85 166.5 177.85 166.5 195.41 240.4 195.41 257.96 195.41 257.96 0 92.33 0 92.33 123 92.33 140.56 92.33 195.41"/><path class="cls-1" d="M18.25,289.54a11.94,11.94,0,0,0,2.22-1.84,14.54,14.54,0,0,0,1.68-2.17L20,284c-.45.63-.91,1.23-1.4,1.79a11,11,0,0,1-1.56,1.5,7.52,7.52,0,0,1-1.79,1,5.66,5.66,0,0,1-2.08.38,7.31,7.31,0,0,1-2.76-.55A6.88,6.88,0,0,1,8,286.5a7.81,7.81,0,0,1-1.65-2.62,9.68,9.68,0,0,1-.63-3.63,10.21,10.21,0,0,1,.6-3.64A8,8,0,0,1,7.93,274a6.61,6.61,0,0,1,2.31-1.61,7.28,7.28,0,0,1,2.78-.54,5.88,5.88,0,0,1,2,.36,7.85,7.85,0,0,1,1.87,1,11.42,11.42,0,0,1,1.65,1.47A17.86,17.86,0,0,1,20,276.43l2.21-1.52a12.76,12.76,0,0,0-1.71-2.29,11.06,11.06,0,0,0-2.22-1.81,10.74,10.74,0,0,0-2.76-1.18,12.65,12.65,0,0,0-3.35-.42,14.37,14.37,0,0,0-5,.82,11.14,11.14,0,0,0-3.85,2.29,10.27,10.27,0,0,0-2.49,3.5A11,11,0,0,0,0,280.25a10.57,10.57,0,0,0,.94,4.52,10.44,10.44,0,0,0,2.59,3.49,11.77,11.77,0,0,0,4,2.25,15.5,15.5,0,0,0,5,.79,9.82,9.82,0,0,0,3.07-.49A12,12,0,0,0,18.25,289.54Z"/><path class="cls-1" d="M55.07,272.3a12.15,12.15,0,0,0-3.84-2.23,14.47,14.47,0,0,0-9.49,0,12,12,0,0,0-3.83,2.23,10.12,10.12,0,0,0-3.47,7.8,10.68,10.68,0,0,0,3.47,8,11.83,11.83,0,0,0,3.83,2.32,13.16,13.16,0,0,0,4.74.84,13.62,13.62,0,0,0,4.75-.81,11.53,11.53,0,0,0,3.84-2.27,10.62,10.62,0,0,0,2.57-3.55,11.31,11.31,0,0,0,.92-4.6,10,10,0,0,0-3.49-7.77Zm-2.68,11.56a9.92,9.92,0,0,1-1.2,3,6,6,0,0,1-2,2,5.62,5.62,0,0,1-5.47,0,6,6,0,0,1-2-2,9.92,9.92,0,0,1-1.2-3,16.47,16.47,0,0,1-.41-3.76,15.41,15.41,0,0,1,.41-3.66,9.49,9.49,0,0,1,1.2-2.85,5.85,5.85,0,0,1,2-1.87,6,6,0,0,1,5.47,0,5.85,5.85,0,0,1,2,1.87,9.49,9.49,0,0,1,1.2,2.85,15.41,15.41,0,0,1,.41,3.66A16.47,16.47,0,0,1,52.39,283.86Z"/><polygon class="cls-1" points="96.22 290.81 96.22 269.72 91.27 269.72 84.08 284.13 76.77 269.72 71.73 269.72 71.73 290.81 75.01 290.81 75.01 276.91 82.14 290.81 84.14 290.81 91.03 277.06 91.03 290.81 96.22 290.81"/><polygon class="cls-1" points="134.96 290.81 134.96 269.72 130.02 269.72 122.83 284.13 115.51 269.72 110.48 269.72 110.48 290.81 113.75 290.81 113.75 276.91 120.88 290.81 122.89 290.81 129.77 277.06 129.77 290.81 134.96 290.81"/><path class="cls-1" d="M165.25,283.25a7.07,7.07,0,0,1-.38,2.33,5.79,5.79,0,0,1-1.08,1.86,5.1,5.1,0,0,1-1.7,1.26,5.3,5.3,0,0,1-2.25.47,5.38,5.38,0,0,1-2.26-.47,5,5,0,0,1-1.71-1.26,5.45,5.45,0,0,1-1.08-1.86,7.07,7.07,0,0,1-.38-2.33V269.72h-5.19v13.5a8.13,8.13,0,0,0,.61,3.11,7.06,7.06,0,0,0,1.82,2.58,8.88,8.88,0,0,0,3,1.75,12.17,12.17,0,0,0,4.1.64,13.88,13.88,0,0,0,4.46-.64,8.47,8.47,0,0,0,3-1.75,6.83,6.83,0,0,0,1.74-2.56,8.61,8.61,0,0,0,.56-3.1V269.72h-3.27Z"/><polygon class="cls-1" points="198.14 283.13 186.09 269.72 182.78 269.72 182.78 290.81 186.06 290.81 186.06 276.31 199.14 291.14 201.38 291.14 201.38 269.72 198.14 269.72 198.14 283.13"/><rect class="cls-1" x="215.89" y="269.72" width="5.16" height="21.09"/><polygon class="cls-1" points="234.09 271.51 241.38 271.51 241.38 290.81 246.56 290.81 246.56 271.51 253.85 271.51 253.85 269.72 234.09 269.72 234.09 271.51"/><polygon class="cls-1" points="276.45 279.22 269.5 269.72 264.07 269.72 273.02 281.98 273.02 290.81 278.21 290.81 278.21 281.68 286.43 269.72 282.94 269.72 276.45 279.22"/><polygon class="cls-1" points="4 303.68 1.33 299.77 0 299.77 3.08 304.27 3.08 307.49 4.38 307.49 4.38 304.16 7.37 299.77 6.67 299.77 4 303.68"/><path class="cls-1" d="M21.36,300.76a4.29,4.29,0,0,0-1.36-.85,4.35,4.35,0,0,0-1.67-.31,4.43,4.43,0,0,0-1.67.31,4.25,4.25,0,0,0-1.35.85A3.84,3.84,0,0,0,14.4,302a3.69,3.69,0,0,0-.32,1.56,3.82,3.82,0,0,0,.32,1.58,4,4,0,0,0,.91,1.3,4.15,4.15,0,0,0,1.35.88,4.43,4.43,0,0,0,1.67.32,4.36,4.36,0,0,0,1.67-.32,4.2,4.2,0,0,0,1.36-.88,4.09,4.09,0,0,0,.9-1.3,3.82,3.82,0,0,0,.33-1.58,3.7,3.7,0,0,0-.33-1.56A4,4,0,0,0,21.36,300.76Zm-.48,4.31a3.68,3.68,0,0,1-.52,1.17,2.6,2.6,0,0,1-.86.76,2.61,2.61,0,0,1-2.35,0,2.42,2.42,0,0,1-.86-.76,3.48,3.48,0,0,1-.52-1.17,5.83,5.83,0,0,1-.18-1.48,5.56,5.56,0,0,1,.18-1.46,3.32,3.32,0,0,1,.52-1.14,2.39,2.39,0,0,1,.86-.75,2.79,2.79,0,0,1,2.35,0,2.57,2.57,0,0,1,.86.75,3.51,3.51,0,0,1,.52,1.14,5.56,5.56,0,0,1,.18,1.46A5.83,5.83,0,0,1,20.88,305.07Z"/><path class="cls-1" d="M36.62,304.78a2.6,2.6,0,0,1-.16.93,2.23,2.23,0,0,1-.48.76,2.26,2.26,0,0,1-.75.51,2.7,2.7,0,0,1-2,0,2.42,2.42,0,0,1-.76-.51,2.23,2.23,0,0,1-.48-.76,2.6,2.6,0,0,1-.17-.93v-5h-1.3v5a2.85,2.85,0,0,0,.22,1.13,2.76,2.76,0,0,0,.62.93,2.88,2.88,0,0,0,1,.63,4.09,4.09,0,0,0,1.41.23,4.67,4.67,0,0,0,1.54-.23,2.73,2.73,0,0,0,1-.63,2.41,2.41,0,0,0,.6-.91,3.18,3.18,0,0,0,.19-1.12v-5h-.57Z"/><path class="cls-1" d="M49.82,303.46a2.7,2.7,0,0,0,.6-.43,2,2,0,0,0,.38-.57,1.69,1.69,0,0,0,.14-.68,1.77,1.77,0,0,0-.18-.8,1.8,1.8,0,0,0-.53-.64,2.52,2.52,0,0,0-.87-.42,4.42,4.42,0,0,0-1.22-.15H45.47v7.72h1.3v-3.63h.91l2.68,3.63h1.5l-2.81-3.74A3.51,3.51,0,0,0,49.82,303.46Zm-1.49-.1a2.64,2.64,0,0,1-.81.12h-.75v-3.22h1.14a1.74,1.74,0,0,1,.65.11,1.54,1.54,0,0,1,.52.33,1.39,1.39,0,0,1,.34.49,1.69,1.69,0,0,1,.12.64,1.58,1.58,0,0,1-.15.69A1.48,1.48,0,0,1,49,303,1.77,1.77,0,0,1,48.33,303.36Z"/><polygon class="cls-1" points="67.4 300.27 70.19 300.27 70.19 307.49 71.49 307.49 71.49 300.27 74.28 300.27 74.28 299.77 67.4 299.77 67.4 300.27"/><path class="cls-1" d="M83.92,299.6l-3.72,7.89h.65l1.22-2.57h3.31l1.18,2.57h1.32l-3.63-7.89Zm-1.62,4.82,1.44-3.06,1.4,3.06Z"/><path class="cls-1" d="M99.84,304h1.46v2.71a2.69,2.69,0,0,1-.73.39,3,3,0,0,1-.92.14,3.55,3.55,0,0,1-1.31-.25,3.24,3.24,0,0,1-1.06-.71,3.35,3.35,0,0,1-.71-1.11,4,4,0,0,1-.26-1.47,4.28,4.28,0,0,1,.24-1.47,3.26,3.26,0,0,1,.67-1.11,2.89,2.89,0,0,1,1-.71,3.42,3.42,0,0,1,1.3-.25,2.29,2.29,0,0,1,1.36.43A3.9,3.9,0,0,1,102,302l.56-.37a5,5,0,0,0-.57-.75,3.95,3.95,0,0,0-1.71-1.07,3.72,3.72,0,0,0-1.13-.17,4.56,4.56,0,0,0-1.76.33,4.18,4.18,0,0,0-1.37.9,4.06,4.06,0,0,0-.89,1.31,3.91,3.91,0,0,0-.32,1.55,3.68,3.68,0,0,0,.34,1.54,3.94,3.94,0,0,0,.92,1.26,4.23,4.23,0,0,0,1.4.86,4.84,4.84,0,0,0,1.77.32c.4,0,.76,0,1.08-.05a6.6,6.6,0,0,0,.87-.14,5.34,5.34,0,0,0,.74-.23c.23-.1.46-.2.69-.32v-3.4H99.84Z"/><polygon class="cls-1" points="112.17 299.77 110.87 299.77 110.87 307.49 116.05 307.49 116.05 306.99 112.17 306.99 112.17 299.77"/><rect class="cls-1" x="123.61" y="299.77" width="1.3" height="7.71"/><polygon class="cls-1" points="139.16 305.42 139.11 305.42 134.06 299.77 133.33 299.77 133.33 307.49 133.91 307.49 133.91 301.4 133.96 301.4 139.43 307.67 139.74 307.67 139.74 299.77 139.16 299.77 139.16 305.42"/><polygon class="cls-1" points="148.15 307.49 153.51 307.49 153.51 306.99 149.44 306.99 149.44 303.53 152.16 303.53 152.16 303.03 149.44 303.03 149.44 300.27 153.51 300.27 153.51 299.77 148.15 299.77 148.15 307.49"/><path class="cls-1" d="M176,304h1.45v2.71a2.55,2.55,0,0,1-.73.39,2.85,2.85,0,0,1-.91.14,3.51,3.51,0,0,1-1.31-.25,3.24,3.24,0,0,1-1.06-.71,3.35,3.35,0,0,1-.71-1.11,4,4,0,0,1-.26-1.47,4.28,4.28,0,0,1,.24-1.47,3.41,3.41,0,0,1,.66-1.11,3,3,0,0,1,1-.71,3.37,3.37,0,0,1,1.29-.25,2.3,2.3,0,0,1,1.37.43,3.9,3.9,0,0,1,1.09,1.38l.56-.37a5,5,0,0,0-.57-.75,3.86,3.86,0,0,0-.76-.63,3.86,3.86,0,0,0-2.08-.61,4.52,4.52,0,0,0-1.76.33,4.18,4.18,0,0,0-1.37.9,4.06,4.06,0,0,0-.89,1.31,3.91,3.91,0,0,0-.32,1.55,3.67,3.67,0,0,0,.33,1.54,4,4,0,0,0,.93,1.26,4.23,4.23,0,0,0,1.4.86,4.83,4.83,0,0,0,1.76.32c.4,0,.77,0,1.08-.05a7.06,7.06,0,0,0,.88-.14,5.34,5.34,0,0,0,.74-.23c.23-.1.46-.2.68-.32v-3.4H176Z"/><path class="cls-1" d="M193.93,300.76a4.25,4.25,0,0,0-1.35-.85,4.68,4.68,0,0,0-3.35,0,4.25,4.25,0,0,0-1.35.85,3.79,3.79,0,0,0-1.23,2.83,3.92,3.92,0,0,0,1.23,2.88,4.15,4.15,0,0,0,1.35.88,4.54,4.54,0,0,0,3.35,0,4.15,4.15,0,0,0,1.35-.88,4.09,4.09,0,0,0,.9-1.3,3.82,3.82,0,0,0,.33-1.58,3.7,3.7,0,0,0-.33-1.56A4,4,0,0,0,193.93,300.76Zm-.48,4.31a3.48,3.48,0,0,1-.52,1.17,2.5,2.5,0,0,1-.86.76,2.3,2.3,0,0,1-1.17.28,2.37,2.37,0,0,1-1.18-.28,2.42,2.42,0,0,1-.86-.76,3.68,3.68,0,0,1-.52-1.17,5.83,5.83,0,0,1-.17-1.48,5.57,5.57,0,0,1,.17-1.46,3.51,3.51,0,0,1,.52-1.14,2.39,2.39,0,0,1,.86-.75,2.6,2.6,0,0,1,1.18-.26,2.52,2.52,0,0,1,1.17.26,2.47,2.47,0,0,1,.86.75,3.32,3.32,0,0,1,.52,1.14,5.56,5.56,0,0,1,.18,1.46A5.83,5.83,0,0,1,193.45,305.07Z"/><polygon class="cls-1" points="203.24 307.49 208.6 307.49 208.6 306.99 204.53 306.99 204.53 303.53 207.26 303.53 207.26 303.03 204.53 303.03 204.53 300.27 208.6 300.27 208.6 299.77 203.24 299.77 203.24 307.49"/><path class="cls-1" d="M220.63,304.11a5.49,5.49,0,0,0-.7-.51c-.26-.16-.53-.31-.8-.45l-.8-.42a6.5,6.5,0,0,1-.7-.44,2.21,2.21,0,0,1-.49-.47.9.9,0,0,1-.19-.56,1.06,1.06,0,0,1,.09-.42,1,1,0,0,1,.27-.37,1.47,1.47,0,0,1,.46-.27,1.76,1.76,0,0,1,.64-.1,1.92,1.92,0,0,1,1.32.44,2.47,2.47,0,0,1,.72,1.15l.67-.3a2.56,2.56,0,0,0-.92-1.33,2.86,2.86,0,0,0-1.73-.46,3.23,3.23,0,0,0-1.08.16,2.25,2.25,0,0,0-.78.43,1.84,1.84,0,0,0-.49.66,2,2,0,0,0-.17.81,1.67,1.67,0,0,0,.18.79,3.13,3.13,0,0,0,.48.62,3.81,3.81,0,0,0,.68.49c.25.15.51.29.78.43l.78.41a4.29,4.29,0,0,1,.67.43,2.28,2.28,0,0,1,.48.51,1.12,1.12,0,0,1,.19.63,1,1,0,0,1-.14.52,1.4,1.4,0,0,1-.35.38,1.64,1.64,0,0,1-.5.23,2.24,2.24,0,0,1-.57.08,2.17,2.17,0,0,1-1.32-.42,2.36,2.36,0,0,1-.8-1.19l-.7.29a2.77,2.77,0,0,0,1,1.33,2.89,2.89,0,0,0,1.76.48,4,4,0,0,0,1.21-.17,2.64,2.64,0,0,0,.86-.48,1.86,1.86,0,0,0,.52-.7,2.12,2.12,0,0,0,.18-.87,1.42,1.42,0,0,0-.19-.73A2.35,2.35,0,0,0,220.63,304.11Z"/><polygon class="cls-1" points="244.23 303.29 240.35 303.29 240.35 299.77 239.06 299.77 239.06 307.49 240.35 307.49 240.35 303.79 244.23 303.79 244.23 307.49 245.53 307.49 245.53 299.77 244.23 299.77 244.23 303.29"/><polygon class="cls-1" points="253.95 307.49 259.31 307.49 259.31 306.99 255.24 306.99 255.24 303.53 257.97 303.53 257.97 303.03 255.24 303.03 255.24 300.27 259.31 300.27 259.31 299.77 253.95 299.77 253.95 307.49"/><path class="cls-1" d="M271.58,303.46a2.7,2.7,0,0,0,.6-.43,1.78,1.78,0,0,0,.38-.57,1.69,1.69,0,0,0,.14-.68,1.77,1.77,0,0,0-.18-.8,1.7,1.7,0,0,0-.53-.64,2.52,2.52,0,0,0-.87-.42,4.35,4.35,0,0,0-1.21-.15h-2.68v7.72h1.3v-3.63h.91l2.68,3.63h1.5l-2.81-3.74A3.51,3.51,0,0,0,271.58,303.46Zm-1.49-.1a2.64,2.64,0,0,1-.81.12h-.75v-3.22h1.14a1.71,1.71,0,0,1,.65.11,1.54,1.54,0,0,1,.52.33,1.39,1.39,0,0,1,.34.49,1.69,1.69,0,0,1,.12.64,1.58,1.58,0,0,1-.15.69,1.48,1.48,0,0,1-.42.51A1.69,1.69,0,0,1,270.09,303.36Z"/><polygon class="cls-1" points="281.07 307.49 286.43 307.49 286.43 306.99 282.37 306.99 282.37 303.53 285.09 303.53 285.09 303.03 282.37 303.03 282.37 300.27 286.43 300.27 286.43 299.77 281.07 299.77 281.07 307.49"/></g></g></svg>