<svg xmlns="http://www.w3.org/2000/svg" xmlns:xlink="http://www.w3.org/1999/xlink" viewBox="0 0 2000 1143"><defs><style>.cls-1{fill:url(#linear-gradient);}.cls-2{opacity:0.47;fill:url(#linear-gradient-2);}.cls-3{opacity:0.38;fill:url(#linear-gradient-3);}.cls-4{opacity:0.39;fill:url(#linear-gradient-4);}</style><linearGradient id="linear-gradient" x1="-272.49" y1="-806.83" x2="-1545.99" y2="111.17" gradientTransform="translate(119.76 303) rotate(180)" gradientUnits="userSpaceOnUse"><stop offset="0" stop-color="#034497"/><stop offset="1" stop-color="#031e5d"/></linearGradient><linearGradient id="linear-gradient-2" x1="-1880.24" y1="-376.39" x2="-1405.08" y2="-376.39" xlink:href="#linear-gradient"/><linearGradient id="linear-gradient-3" x1="-246.7" y1="-375.39" x2="119.76" y2="-375.39" xlink:href="#linear-gradient"/><linearGradient id="linear-gradient-4" x1="-766.79" y1="-412.7" x2="-770.15" y2="778.67" xlink:href="#linear-gradient"/></defs><title>Asset 17</title><g id="Layer_2" data-name="Layer 2"><g id="Layer_1-2" data-name="Layer 1"><path class="cls-1" d="M0,1143V200.47C140.11,134.74,303.62,82.61,483.09,48,644.16,17,818.08,0,999.5,0c89.57,0,177.31,4.13,262.58,12.05h0c280.35,26,534,93,737.91,188.89V1143Z"/><path class="cls-2" d="M1549.29,750.29,1735.36,428C1792,330,1917.78,311.82,2000,373.6V1021H1705.59C1566.66,1021,1479.83,870.61,1549.29,750.29Z"/><path class="cls-3" d="M0,1020V336.78C60.66,336.9,121.28,367,155.94,427L342,749.29C411.47,869.61,324.64,1020,185.72,1020Z"/><path class="cls-4" d="M483.09,48C644.16,17,818.08,0,999.5,0c89.57,0,177.31,4.13,262.58,12.05h0c60.49,53.71,82.8,146.32,36.92,225.8L1044.44,678.77c-69.46,120.31-243.12,120.31-312.58,0L477.29,237.85C440.46,174.05,447.57,101.8,483.09,48Z"/></g></g></svg>