<svg xmlns="http://www.w3.org/2000/svg" xmlns:xlink="http://www.w3.org/1999/xlink" viewBox="0 0 95.41 95.41"><defs><style>.cls-1{fill:url(#Degradado_sin_nombre_25);}</style><linearGradient id="Degradado_sin_nombre_25" x1="83.33" y1="-3.42" x2="8.79" y2="103.55" gradientUnits="userSpaceOnUse"><stop offset="0" stop-color="#f6f6f7"/><stop offset="1" stop-color="#fff"/></linearGradient></defs><title>Asset 14</title><g id="Layer_2" data-name="Layer 2"><g id="Layer_1-2" data-name="Layer 1"><path class="cls-1" d="M47.7,0A47.76,47.76,0,0,0,0,47.71a47.16,47.16,0,0,0,9.15,28L5.33,95.41,23.91,89A47.69,47.69,0,1,0,47.7,0Zm0,78.87a31,31,0,0,1-15.54-4.18L20,78.87,22.51,66a30.81,30.81,0,0,1-6-18.3A31.17,31.17,0,1,1,47.7,78.87Zm0-57.69A26.56,26.56,0,0,0,21.18,47.71,26.26,26.26,0,0,0,26.81,64l.65.83-1.36,7,6.62-2.28.94.59a26.52,26.52,0,1,0,14-49ZM63.22,60c-.78.79-3.07,3.19-6.5,3.19S45.12,60.36,40.77,56s-8.22-8.77-9.13-12.79-.79-5.83.33-7.49c0,0,1.83-3.19,3.32-3.38s3.41-.18,3.93.8,2.83,6.63,2.83,6.63a2.22,2.22,0,0,1-.21,1.92,19.24,19.24,0,0,1-2,2.31,1.7,1.7,0,0,0,0,2,36.32,36.32,0,0,0,4.38,5.38c2.44,2.44,7.12,4.18,7.12,4.18a1.45,1.45,0,0,0,1.1-.33c.43-.43,2.74-3.32,2.74-3.32a1.63,1.63,0,0,1,2-.4c1.23.57,6.57,3.23,6.57,3.23a1.16,1.16,0,0,1,.63,1.17C64.38,56.87,64,59.18,63.22,60Z"/></g></g></svg>