<svg xmlns="http://www.w3.org/2000/svg" viewBox="0 0 123.44 123.44"><defs><style>.cls-1{fill:#e34932;}.cls-2{fill:#fff;}</style></defs><title>Asset 2</title><g id="Layer_2" data-name="Layer 2"><g id="Layer_1-2" data-name="Layer 1"><path class="cls-1" d="M123.44,61.72A61.72,61.72,0,1,1,61.73,0,61.72,61.72,0,0,1,123.44,61.72Z"/><path class="cls-2" d="M61.73,18.33a43.39,43.39,0,1,0,43.39,43.39A43.38,43.38,0,0,0,61.73,18.33Zm-7.79,6.26c-4,3.16-7.37,8.73-9.6,15.85a37.54,37.54,0,0,1-9.8-5.16A37.87,37.87,0,0,1,53.94,24.59ZM31.82,38.39a42,42,0,0,0,11.41,6.07,73.12,73.12,0,0,0-1.9,15.15H23.85A37.72,37.72,0,0,1,31.82,38.39Zm-8,25.43H41.33a73.12,73.12,0,0,0,2,15.56A41.88,41.88,0,0,0,32,85.29,37.76,37.76,0,0,1,23.85,63.82ZM34.76,88.39a37.54,37.54,0,0,1,9.7-5C46.7,90.32,50,95.74,53.94,98.85A37.87,37.87,0,0,1,34.76,88.39Zm24.85,8.82c-4.52-1.36-8.52-7-11.09-15a52.77,52.77,0,0,1,11.09-1.57Zm0-20.82a56.35,56.35,0,0,0-12.23,1.76,69.84,69.84,0,0,1-1.83-14.33H59.61Zm0-16.78H45.55a69.57,69.57,0,0,1,1.74-13.89,56.39,56.39,0,0,0,12.32,1.79Zm0-16.31a52.78,52.78,0,0,1-11.23-1.62C51,33.46,55,27.61,59.61,26.22Zm40,16.31H82.12a75.23,75.23,0,0,0-1.89-15.15,41.77,41.77,0,0,0,11.38-6.07A37.66,37.66,0,0,1,99.59,59.61ZM88.9,35.28a37.89,37.89,0,0,1-9.78,5.16c-2.25-7.12-5.61-12.69-9.62-15.85A37.83,37.83,0,0,1,88.9,35.28ZM63.83,26.22c4.61,1.39,8.66,7.24,11.23,15.46A52.78,52.78,0,0,1,63.83,43.3Zm0,21.29a56.48,56.48,0,0,0,12.33-1.79A71.06,71.06,0,0,1,77.9,59.61H63.83Zm0,16.31H77.9a70.52,70.52,0,0,1-1.84,14.33,56.35,56.35,0,0,0-12.23-1.76Zm0,33.39V80.61a53,53,0,0,1,11.1,1.57C72.35,90.17,68.35,95.85,63.83,97.21Zm5.67,1.64c4-3.11,7.24-8.53,9.49-15.46a37.77,37.77,0,0,1,9.71,5A38,38,0,0,1,69.5,98.85ZM91.43,85.29a42.31,42.31,0,0,0-11.31-5.91,73.76,73.76,0,0,0,2-15.56H99.59A37.75,37.75,0,0,1,91.43,85.29Z"/></g></g></svg>