<svg xmlns="http://www.w3.org/2000/svg" xmlns:xlink="http://www.w3.org/1999/xlink" viewBox="0 0 95.68 95.68"><defs><style>.cls-1{fill:url(#Degradado_sin_nombre_15);}.cls-2{fill:url(#Degradado_sin_nombre_15-2);}</style><radialGradient id="Degradado_sin_nombre_15" cx="47.38" cy="50.01" fx="13.561332625407552" r="80.58" gradientTransform="translate(-14.32 59.34) rotate(-49.2) scale(1 0.81)" gradientUnits="userSpaceOnUse"><stop offset="0" stop-color="#fff"/><stop offset="1" stop-color="#f6f6f7"/></radialGradient><radialGradient id="Degradado_sin_nombre_15-2" cx="47.09" cy="51.59" fx="-9.672045167652307" r="135.23" gradientTransform="translate(-15.39 59.87) rotate(-49.2) scale(1 0.81)" xlink:href="#Degradado_sin_nombre_15"/></defs><title>Asset 16</title><g id="Layer_2" data-name="Layer 2"><g id="Layer_1-2" data-name="Layer 1"><path class="cls-1" d="M47.84,33.91A13.94,13.94,0,1,0,61.78,47.84,13.95,13.95,0,0,0,47.84,33.91Zm0,0A13.94,13.94,0,1,0,61.78,47.84,13.95,13.95,0,0,0,47.84,33.91Zm13-13.72H34.88A16.25,16.25,0,0,0,18.65,36.42V59.26A16.25,16.25,0,0,0,34.88,75.49H60.8A16.25,16.25,0,0,0,77,59.26V36.42A16.25,16.25,0,0,0,60.8,20.19Zm-13,46.22A18.57,18.57,0,1,1,66.41,47.84,18.59,18.59,0,0,1,47.84,66.41ZM66.13,33.69A3.85,3.85,0,1,1,70,29.84,3.85,3.85,0,0,1,66.13,33.69Zm-18.29.22A13.94,13.94,0,1,0,61.78,47.84,13.95,13.95,0,0,0,47.84,33.91Z"/><path class="cls-2" d="M47.84,0A47.84,47.84,0,1,0,95.68,47.84,47.84,47.84,0,0,0,47.84,0ZM81.66,59.26A20.88,20.88,0,0,1,60.8,80.13H34.88A20.89,20.89,0,0,1,14,59.26V36.42A20.89,20.89,0,0,1,34.88,15.56H60.8A20.88,20.88,0,0,1,81.66,36.42Z"/></g></g></svg>