<svg xmlns="http://www.w3.org/2000/svg" xmlns:xlink="http://www.w3.org/1999/xlink" viewBox="0 0 95.68 95.67"><defs><style>.cls-1{fill:url(#Degradado_sin_nombre_25);}.cls-2{fill:url(#Degradado_sin_nombre_25-2);}.cls-3{fill:#fff;}.cls-4{fill:url(#Degradado_sin_nombre_13);}</style><linearGradient id="Degradado_sin_nombre_25" x1="51.47" y1="38.75" x2="51.38" y2="38.87" gradientUnits="userSpaceOnUse"><stop offset="0" stop-color="#f6f6f7"/><stop offset="1" stop-color="#fff"/></linearGradient><linearGradient id="Degradado_sin_nombre_25-2" x1="76.85" y1="4.98" x2="16.11" y2="94.7" xlink:href="#Degradado_sin_nombre_25"/><linearGradient id="Degradado_sin_nombre_13" x1="51.47" y1="38.74" x2="51.39" y2="38.86" gradientUnits="userSpaceOnUse"><stop offset="0" stop-color="#1e1e1e"/><stop offset="1" stop-color="#434040"/></linearGradient></defs><title>Asset 13</title><g id="Layer_2" data-name="Layer 2"><g id="Layer_1-2" data-name="Layer 1"><path class="cls-1" d="M51.42,38.8a.15.15,0,0,1,0-.07C51.43,38.8,51.42,39,51.42,38.8Z"/><path class="cls-2" d="M47.84,0A47.84,47.84,0,1,0,95.68,47.83,47.83,47.83,0,0,0,47.84,0ZM77.17,33.94a13.87,13.87,0,0,1-2.89,2.43l0,0C73.73,52.94,62.63,69.85,43,70.88c-7.41.39-14.23-2.63-19.53-7a20.93,20.93,0,0,0,6,.88,16.51,16.51,0,0,0,5.79-1.07,19.84,19.84,0,0,0,5.2-2.92s-11-3-10.72-8.15L35,52.47a16.72,16.72,0,0,1-5.21-2.7c-3.16-2.85-5-6.82-4.08-9a6.72,6.72,0,0,0,2.11,1,9.77,9.77,0,0,0,2.95.49h.05s-3.28-2.33-4.23-4.91c-1.49-4.05-.73-9.21.74-10.77,0,0,.58,3.28,9.93,8C42,37,47.27,38.68,51.42,38.8A15.32,15.32,0,0,1,51,35c0-5.63,5.22-10.2,11.67-10.2a12.86,12.86,0,0,1,5.05,1,11.52,11.52,0,0,1,4,2.7l3.1-1.4,3.7-1.57s.2.21,0,.79c-.38,1.32-3.28,4.14-4.43,5.06l0,.24a7.74,7.74,0,0,0,2.21-.29c1.23-.34,4.18-1.62,4.18-1.62A20.52,20.52,0,0,1,77.17,33.94Z"/><polygon class="cls-3" points="78.42 25.49 78.42 25.49 78.42 25.49 78.42 25.49"/><path class="cls-4" d="M51.43,38.73c0,.07,0,.26,0,.07A.15.15,0,0,1,51.43,38.73Z"/><path class="cls-3" d="M78.42,25.49c0,.31,0,0,0,0Z"/></g></g></svg>