<svg xmlns="http://www.w3.org/2000/svg" viewBox="0 0 121.65 121.65"><defs><style>.cls-1{fill:#e34932;}.cls-2{fill:#fff;}</style></defs><title>Asset 3</title><g id="Layer_2" data-name="Layer 2"><g id="Layer_1-2" data-name="Layer 1"><circle class="cls-1" cx="60.82" cy="60.82" r="60.82"/><path class="cls-2" d="M96.64,52.57H89.08a29.18,29.18,0,0,0-2.44-5.91L92,41.33A3.77,3.77,0,0,0,92,36l-6.33-6.34a3.77,3.77,0,0,0-5.33,0L75,35a29.82,29.82,0,0,0-5.92-2.43V25a3.77,3.77,0,0,0-3.77-3.77h-9A3.77,3.77,0,0,0,52.57,25v7.56A29.49,29.49,0,0,0,46.66,35l-5.33-5.33a3.78,3.78,0,0,0-5.34,0L29.67,36a3.74,3.74,0,0,0,0,5.33L35,46.66a29.74,29.74,0,0,0-2.43,5.91H25a3.77,3.77,0,0,0-3.77,3.77v9A3.77,3.77,0,0,0,25,69.07h7.55A29.49,29.49,0,0,0,35,75l-5.32,5.34a3.72,3.72,0,0,0,0,5.32L36,92a3.78,3.78,0,0,0,5.34,0l5.33-5.34a29,29,0,0,0,5.91,2.44v7.56a3.77,3.77,0,0,0,3.77,3.77h9a3.77,3.77,0,0,0,3.77-3.77V89.08A29.27,29.27,0,0,0,75,86.64L80.32,92a3.77,3.77,0,0,0,5.33,0L92,85.64a3.76,3.76,0,0,0,0-5.32L86.64,75a29,29,0,0,0,2.44-5.91h7.56a3.78,3.78,0,0,0,3.77-3.77v-9A3.78,3.78,0,0,0,96.64,52.57Zm-35.82,24A15.79,15.79,0,1,1,76.61,60.82,15.79,15.79,0,0,1,60.82,76.61Z"/></g></g></svg>