<svg xmlns="http://www.w3.org/2000/svg" xmlns:xlink="http://www.w3.org/1999/xlink" viewBox="0 0 2000 1143"><defs><style>.cls-1{fill:url(#linear-gradient);}.cls-2{opacity:0.47;fill:url(#linear-gradient-2);}.cls-3{opacity:0.38;fill:url(#linear-gradient-3);}.cls-4{opacity:0.39;fill:url(#linear-gradient-4);}</style><linearGradient id="linear-gradient" x1="1607.75" y1="33.17" x2="334.25" y2="951.17" gradientUnits="userSpaceOnUse"><stop offset="0" stop-color="#034497"/><stop offset="1" stop-color="#031e5d"/></linearGradient><linearGradient id="linear-gradient-2" x1="0" y1="463.61" x2="475.16" y2="463.61" xlink:href="#linear-gradient"/><linearGradient id="linear-gradient-3" x1="1633.54" y1="464.61" x2="2000" y2="464.61" xlink:href="#linear-gradient"/><linearGradient id="linear-gradient-4" x1="1113.45" y1="427.3" x2="1110.09" y2="1618.67" xlink:href="#linear-gradient"/></defs><title>Asset 4</title><g id="Layer_2" data-name="Layer 2"><g id="Layer_1-2" data-name="Layer 1"><path class="cls-1" d="M2000,0V942.53c-140.11,65.73-303.62,117.86-483.09,152.47-161.07,31-335,48-516.41,48-89.57,0-177.31-4.13-262.58-12h0c-280.35-26-534-93-737.91-188.89V0Z"/><path class="cls-2" d="M450.71,392.71,264.64,715C208,813,82.22,831.18,0,769.4V122H294.41C433.34,122,520.17,272.39,450.71,392.71Z"/><path class="cls-3" d="M2000,123V806.22c-60.66-.12-121.28-30.2-155.94-90.24L1658,393.71C1588.53,273.39,1675.36,123,1814.28,123Z"/><path class="cls-4" d="M1516.91,1095c-161.07,31-335,48-516.41,48-89.57,0-177.31-4.13-262.58-12h0c-60.49-53.71-82.8-146.32-36.92-225.8L955.56,464.23c69.46-120.31,243.12-120.31,312.58,0l254.57,440.92C1559.54,969,1552.43,1041.2,1516.91,1095Z"/></g></g></svg>