<svg xmlns="http://www.w3.org/2000/svg" viewBox="0 0 286.43 323.16"><defs><style>.cls-1{fill:#fff;}</style></defs><title>Asset 10</title><g id="Layer_2" data-name="Layer 2"><g id="Layer_1-2" data-name="Layer 1"><polygon class="cls-1" points="82.45 318.89 86.17 318.89 84.33 314.89 82.45 318.89"/><path class="cls-1" d="M193.54,314.39a3.15,3.15,0,0,0-2.65-1.32,3.38,3.38,0,0,0-1.56.35,3.29,3.29,0,0,0-1.13,1,4.7,4.7,0,0,0-.68,1.5,7.7,7.7,0,0,0-.22,1.91,7.89,7.89,0,0,0,.22,1.94,4.83,4.83,0,0,0,.68,1.54,3.41,3.41,0,0,0,1.13,1,3.27,3.27,0,0,0,1.56.36,3.14,3.14,0,0,0,1.53-.36,3.38,3.38,0,0,0,1.12-1,4.44,4.44,0,0,0,.69-1.54,7.42,7.42,0,0,0,.24-1.94,7.24,7.24,0,0,0-.24-1.91A4.32,4.32,0,0,0,193.54,314.39Z"/><path class="cls-1" d="M51.63,314a2,2,0,0,0-.68-.42,2.45,2.45,0,0,0-.87-.16H48.59v4.23h1a3.51,3.51,0,0,0,1.05-.15,2.56,2.56,0,0,0,.84-.43,2,2,0,0,0,.55-.68,1.92,1.92,0,0,0,.2-.9,2.32,2.32,0,0,0-.15-.84A2,2,0,0,0,51.63,314Z"/><path class="cls-1" d="M22.45,314.39a3.26,3.26,0,0,0-1.12-1,3.3,3.3,0,0,0-1.54-.35,3.37,3.37,0,0,0-1.55.35,3.2,3.2,0,0,0-1.13,1,4.49,4.49,0,0,0-.68,1.5,7.69,7.69,0,0,0-.23,1.91,7.88,7.88,0,0,0,.23,1.94,4.62,4.62,0,0,0,.68,1.54,3.31,3.31,0,0,0,1.13,1,3.25,3.25,0,0,0,1.55.36,3.18,3.18,0,0,0,1.54-.36,3.38,3.38,0,0,0,1.12-1,4.84,4.84,0,0,0,.69-1.54,7.43,7.43,0,0,0,.23-1.94,7.25,7.25,0,0,0-.23-1.91A4.71,4.71,0,0,0,22.45,314.39Z"/><path class="cls-1" d="M269.24,317.51a2.56,2.56,0,0,0,.84-.43,2,2,0,0,0,.55-.68,1.92,1.92,0,0,0,.2-.9,2.32,2.32,0,0,0-.15-.84,2,2,0,0,0-.44-.65,2.16,2.16,0,0,0-.68-.42,2.45,2.45,0,0,0-.87-.16H267.2v4.23h1A3.51,3.51,0,0,0,269.24,317.51Z"/><path class="cls-1" d="M103.14,9.71h0a5.64,5.64,0,0,0,3.14,1.59,80,80,0,0,1,67.38,67.39,5.65,5.65,0,0,0,1.6,3.14h0A5.69,5.69,0,0,0,184.91,77,91.36,91.36,0,0,0,108,.07,5.69,5.69,0,0,0,103.14,9.71Z"/><path class="cls-1" d="M183.29,235.83h0a5.64,5.64,0,0,0-3.14-1.59,80,80,0,0,1-67.39-67.39,5.68,5.68,0,0,0-11.23,1.73,91.36,91.36,0,0,0,76.89,76.89A5.68,5.68,0,0,0,183.29,235.83Z"/><path class="cls-1" d="M54.32,114.87A79.7,79.7,0,0,1,99.14,92.31a5.64,5.64,0,0,0,3.14-1.59h0a5.68,5.68,0,0,0-4.87-9.64A91.36,91.36,0,0,0,20.52,158a5.69,5.69,0,0,0,9.64,4.87h0a5.57,5.57,0,0,0,1.59-3.14A79.77,79.77,0,0,1,54.32,114.87Z"/><path class="cls-1" d="M256.28,82.69h0a5.59,5.59,0,0,0-1.6,3.14,80,80,0,0,1-67.38,67.38A5.68,5.68,0,0,0,189,164.45a91.3,91.3,0,0,0,76.89-76.89A5.68,5.68,0,0,0,256.28,82.69Z"/><path class="cls-1" d="M91.61,129.05a5.68,5.68,0,0,0-10.26-3.37,91.36,91.36,0,0,0,0,108.74,5.69,5.69,0,0,0,10.26-3.37h0a5.58,5.58,0,0,0-1.1-3.35,80,80,0,0,1,0-95.3A5.62,5.62,0,0,0,91.61,129.05Z"/><path class="cls-1" d="M194.83,14.48h0a5.61,5.61,0,0,0,1.09,3.35,80,80,0,0,1,0,95.29,5.61,5.61,0,0,0-1.09,3.35,5.68,5.68,0,0,0,10.26,3.37,91.36,91.36,0,0,0,0-108.74A5.69,5.69,0,0,0,194.83,14.48Z"/><path class="cls-1" d="M251.5,174.38h0a5.57,5.57,0,0,0-3.35,1.09,80,80,0,0,1-95.3,0,5.61,5.61,0,0,0-3.35-1.09h0a5.68,5.68,0,0,0-3.37,10.25,91.32,91.32,0,0,0,108.74,0A5.68,5.68,0,0,0,251.5,174.38Z"/><path class="cls-1" d="M34.94,71.16h0a5.62,5.62,0,0,0,3.35-1.1,80,80,0,0,1,95.29,0,5.62,5.62,0,0,0,3.35,1.1A5.68,5.68,0,0,0,140.3,60.9a91.36,91.36,0,0,0-108.74,0A5.69,5.69,0,0,0,34.94,71.16Z"/><path class="cls-1" d="M12.1,301.55a11.35,11.35,0,0,0,7.06-2.11,11.68,11.68,0,0,0,4-6.46l-5.2-1.64a7.93,7.93,0,0,1-2.21,4.27A5.37,5.37,0,0,1,12.05,297a5.88,5.88,0,0,1-4.71-2.14q-1.81-2.13-1.81-7.17,0-4.76,1.83-6.87a6.07,6.07,0,0,1,4.8-2.12,5.5,5.5,0,0,1,5.6,4.46l5.3-1.27A10.45,10.45,0,0,0,20.35,277a11.06,11.06,0,0,0-7.92-2.88,11.75,11.75,0,0,0-9,3.67Q0,281.42,0,288.06q0,6.27,3.41,9.88A11.41,11.41,0,0,0,12.1,301.55Z"/><path class="cls-1" d="M59.83,287.86q0-6.5-3.52-10.13a12.46,12.46,0,0,0-9.39-3.64,14.64,14.64,0,0,0-5.73,1.05,10.4,10.4,0,0,0-3.43,2.39,12.41,12.41,0,0,0-2.47,3.64A16.9,16.9,0,0,0,34.07,288q0,6.34,3.5,10A12.49,12.49,0,0,0,47,301.55a12.38,12.38,0,0,0,9.35-3.63Q59.84,294.29,59.83,287.86Zm-7.6,6.8A6.72,6.72,0,0,1,47,297a6.79,6.79,0,0,1-5.29-2.33q-2.09-2.33-2.08-6.84c0-3.05.67-5.34,2-6.85A6.8,6.8,0,0,1,47,278.67a6.78,6.78,0,0,1,5.32,2.25q2,2.25,2,6.81C54.29,290.81,53.61,293.12,52.23,294.66Z"/><polygon class="cls-1" points="97.02 301.1 97.02 274.54 88.98 274.54 84.21 292.66 79.39 274.54 71.37 274.54 71.37 301.1 76.35 301.1 76.35 280.19 81.61 301.1 86.77 301.1 92.04 280.19 92.04 301.1 97.02 301.1"/><polygon class="cls-1" points="135.35 301.1 135.35 274.54 127.31 274.54 122.54 292.66 117.72 274.54 109.7 274.54 109.7 301.1 114.68 301.1 114.68 280.19 119.93 301.1 125.1 301.1 130.37 280.19 130.37 301.1 135.35 301.1"/><path class="cls-1" d="M164.08,300.75a8,8,0,0,0,3.12-2.17,7.42,7.42,0,0,0,1.61-3.33,36,36,0,0,0,.43-6.76V274.54h-5.36v14.69a29.43,29.43,0,0,1-.24,4.52,3.67,3.67,0,0,1-1.39,2.29,5.41,5.41,0,0,1-3.44.93,5.73,5.73,0,0,1-3.55-1,4.27,4.27,0,0,1-1.63-2.61,28.88,28.88,0,0,1-.2-4.44V274.54h-5.37v14.17a32.21,32.21,0,0,0,.53,6.74,7.23,7.23,0,0,0,1.5,2.94,8.28,8.28,0,0,0,3.11,2.29,14.83,14.83,0,0,0,5.77.87A13.59,13.59,0,0,0,164.08,300.75Z"/><polygon class="cls-1" points="203.44 301.1 203.44 274.54 198.46 274.54 198.46 292.28 187.59 274.54 182.37 274.54 182.37 301.1 187.35 301.1 187.35 283.78 198.06 301.1 203.44 301.1"/><rect class="cls-1" x="216.37" y="274.54" width="5.36" height="26.56"/><polygon class="cls-1" points="245.6 279.03 253.47 279.03 253.47 274.54 232.36 274.54 232.36 279.03 240.24 279.03 240.24 301.1 245.6 301.1 245.6 279.03"/><polygon class="cls-1" points="280.25 274.54 274.13 285.05 267.88 274.54 261.59 274.54 271.32 289.92 271.32 301.1 276.67 301.1 276.67 289.96 286.43 274.54 280.25 274.54"/><polygon class="cls-1" points="4.05 322.92 5.75 322.92 5.75 318.55 9.67 312.8 8.75 312.8 5.25 317.93 1.74 312.8 0 312.8 4.05 318.71 4.05 322.92"/><path class="cls-1" d="M23.76,314.1A5.74,5.74,0,0,0,22,313a5.89,5.89,0,0,0-6.17,1.12,5.18,5.18,0,0,0-1.18,1.66,4.88,4.88,0,0,0-.43,2,5,5,0,0,0,.43,2.08,5.51,5.51,0,0,0,1.18,1.71,5.8,5.8,0,0,0,1.78,1.15,5.95,5.95,0,0,0,4.39,0,5.64,5.64,0,0,0,1.77-1.15A5.53,5.53,0,0,0,25,319.88a5.16,5.16,0,0,0,.43-2.08,5,5,0,0,0-.43-2A5.21,5.21,0,0,0,23.76,314.1Zm-.62,5.64a4.84,4.84,0,0,1-.69,1.54,3.38,3.38,0,0,1-1.12,1,3.18,3.18,0,0,1-1.54.36,3.25,3.25,0,0,1-1.55-.36,3.31,3.31,0,0,1-1.13-1,4.62,4.62,0,0,1-.68-1.54,7.88,7.88,0,0,1-.23-1.94,7.69,7.69,0,0,1,.23-1.91,4.49,4.49,0,0,1,.68-1.5,3.2,3.2,0,0,1,1.13-1,3.37,3.37,0,0,1,1.55-.35,3.3,3.3,0,0,1,1.54.35,3.26,3.26,0,0,1,1.12,1,4.71,4.71,0,0,1,.69,1.5,7.25,7.25,0,0,1,.23,1.91A7.43,7.43,0,0,1,23.14,319.74Z"/><path class="cls-1" d="M31.55,312.8v6.53a3.86,3.86,0,0,0,.28,1.48,3.37,3.37,0,0,0,.82,1.22,3.81,3.81,0,0,0,1.35.83,5.28,5.28,0,0,0,1.85.3,6,6,0,0,0,2-.3,3.81,3.81,0,0,0,1.38-.82,3.22,3.22,0,0,0,.79-1.21,4.11,4.11,0,0,0,.25-1.46V312.8h-.74v6.57a3.46,3.46,0,0,1-.22,1.21,3,3,0,0,1-.63,1,2.76,2.76,0,0,1-1,.67,3.53,3.53,0,0,1-2.61,0,2.87,2.87,0,0,1-1.63-1.67,3.25,3.25,0,0,1-.22-1.21V312.8Z"/><path class="cls-1" d="M53.38,317.07a2.35,2.35,0,0,0,.5-.75,2.13,2.13,0,0,0,.18-.88,2.36,2.36,0,0,0-.24-1.06,2.28,2.28,0,0,0-.68-.84A3.51,3.51,0,0,0,52,313a5.8,5.8,0,0,0-1.59-.2H46.89v10.12h1.7v-4.75h1.19l3.52,4.75h2L51.59,318a4.48,4.48,0,0,0,1-.37A3.27,3.27,0,0,0,53.38,317.07ZM52,316.4a2,2,0,0,1-.55.68,2.56,2.56,0,0,1-.84.43,3.51,3.51,0,0,1-1.05.15h-1v-4.23h1.49a2.45,2.45,0,0,1,.87.16,2,2,0,0,1,.68.42,2,2,0,0,1,.44.65,2.32,2.32,0,0,1,.15.84A1.92,1.92,0,0,1,52,316.4Z"/><polygon class="cls-1" points="72.52 322.92 72.52 313.45 76.18 313.45 76.18 312.8 67.16 312.8 67.16 313.45 70.82 313.45 70.82 322.92 72.52 322.92"/><path class="cls-1" d="M89.76,322.92,85,312.57h-.43L79.7,322.92h.85l1.59-3.37h4.34L88,322.92Zm-7.31-4,1.88-4,1.84,4Z"/><path class="cls-1" d="M96.23,321.62a5.63,5.63,0,0,0,1.83,1.12,6.29,6.29,0,0,0,2.32.42c.53,0,1,0,1.42-.06a11,11,0,0,0,1.15-.19,7.33,7.33,0,0,0,1-.31,8,8,0,0,0,.89-.42v-4.45H101.2v.6h1.91v3.55a3.15,3.15,0,0,1-1,.51,3.44,3.44,0,0,1-1.2.19,4.47,4.47,0,0,1-1.72-.33,4.14,4.14,0,0,1-1.39-.93,4.45,4.45,0,0,1-.93-1.46,5.3,5.3,0,0,1-.34-1.92,5.58,5.58,0,0,1,.32-1.93,4,4,0,0,1,.87-1.45,3.64,3.64,0,0,1,1.33-.93,4.29,4.29,0,0,1,1.7-.33,3,3,0,0,1,1.79.57,5,5,0,0,1,1.42,1.8l.74-.49a6.22,6.22,0,0,0-.75-1,5,5,0,0,0-1-.83,5.51,5.51,0,0,0-1.25-.58,5,5,0,0,0-1.48-.22A5.91,5.91,0,0,0,98,313a5.57,5.57,0,0,0-1.8,1.18,5.31,5.31,0,0,0-1.58,3.75,4.83,4.83,0,0,0,.44,2A5.18,5.18,0,0,0,96.23,321.62Z"/><polygon class="cls-1" points="111.42 312.8 111.42 322.92 118.22 322.92 118.22 322.26 113.12 322.26 113.12 312.8 111.42 312.8"/><rect class="cls-1" x="123.88" y="312.8" width="1.7" height="10.12"/><polygon class="cls-1" points="133.14 314.93 133.2 314.93 140.38 323.16 140.78 323.16 140.78 312.8 140.03 312.8 140.03 320.2 139.96 320.2 133.32 312.8 132.37 312.8 132.37 322.92 133.14 322.92 133.14 314.93"/><polygon class="cls-1" points="154.59 313.45 154.59 312.8 147.56 312.8 147.56 322.92 154.59 322.92 154.59 322.26 149.26 322.26 149.26 317.73 152.83 317.73 152.83 317.08 149.26 317.08 149.26 313.45 154.59 313.45"/><path class="cls-1" d="M170.55,321.62a5.74,5.74,0,0,0,1.83,1.12,6.29,6.29,0,0,0,2.32.42c.53,0,1,0,1.42-.06a11,11,0,0,0,1.15-.19,6.88,6.88,0,0,0,1-.31,8,8,0,0,0,.89-.42v-4.45h-3.61v.6h1.91v3.55a3.15,3.15,0,0,1-1,.51,3.44,3.44,0,0,1-1.2.19,4.47,4.47,0,0,1-1.72-.33,4.24,4.24,0,0,1-1.39-.93,4.45,4.45,0,0,1-.93-1.46,5.3,5.3,0,0,1-.33-1.92,5.58,5.58,0,0,1,.31-1.93,4.13,4.13,0,0,1,.87-1.45,3.64,3.64,0,0,1,1.33-.93,4.29,4.29,0,0,1,1.7-.33,2.92,2.92,0,0,1,1.79.57,5,5,0,0,1,1.43,1.8l.73-.49a5.67,5.67,0,0,0-.75-1,5,5,0,0,0-1-.83,5.32,5.32,0,0,0-1.25-.58,5,5,0,0,0-1.48-.22,6,6,0,0,0-2.31.44,5.53,5.53,0,0,0-1.79,1.18,5,5,0,0,0-1.17,1.71,5.1,5.1,0,0,0-.42,2,4.83,4.83,0,0,0,.44,2A5.18,5.18,0,0,0,170.55,321.62Z"/><path class="cls-1" d="M193.08,313a6.08,6.08,0,0,0-4.39,0,5.74,5.74,0,0,0-1.77,1.12,5.21,5.21,0,0,0-1.19,1.66,5,5,0,0,0-.43,2,5.16,5.16,0,0,0,.43,2.08,5.53,5.53,0,0,0,1.19,1.71,5.64,5.64,0,0,0,1.77,1.15,5.95,5.95,0,0,0,4.39,0,5.8,5.8,0,0,0,1.78-1.15,5.51,5.51,0,0,0,1.18-1.71,5,5,0,0,0,.43-2.08,4.88,4.88,0,0,0-.43-2,5.18,5.18,0,0,0-1.18-1.66A5.91,5.91,0,0,0,193.08,313Zm1.15,6.76a4.44,4.44,0,0,1-.69,1.54,3.38,3.38,0,0,1-1.12,1,3.14,3.14,0,0,1-1.53.36,3.27,3.27,0,0,1-1.56-.36,3.41,3.41,0,0,1-1.13-1,4.83,4.83,0,0,1-.68-1.54,7.89,7.89,0,0,1-.22-1.94,7.7,7.7,0,0,1,.22-1.91,4.7,4.7,0,0,1,.68-1.5,3.29,3.29,0,0,1,1.13-1,3.38,3.38,0,0,1,1.56-.35,3.15,3.15,0,0,1,2.65,1.32,4.32,4.32,0,0,1,.69,1.5,7.24,7.24,0,0,1,.24,1.91A7.42,7.42,0,0,1,194.23,319.74Z"/><polygon class="cls-1" points="209.85 313.45 209.85 312.8 202.81 312.8 202.81 322.92 209.85 322.92 209.85 322.26 204.52 322.26 204.52 317.73 208.09 317.73 208.09 317.08 204.52 317.08 204.52 313.45 209.85 313.45"/><path class="cls-1" d="M220.15,322.1a2,2,0,0,1-.65.31,2.64,2.64,0,0,1-.74.1A2.79,2.79,0,0,1,217,322a3,3,0,0,1-1.06-1.55l-.92.37a3.65,3.65,0,0,0,1.27,1.75,3.85,3.85,0,0,0,2.31.63,5.08,5.08,0,0,0,1.59-.23,3.31,3.31,0,0,0,1.13-.62,2.49,2.49,0,0,0,.69-.93,2.85,2.85,0,0,0,.23-1.13,1.86,1.86,0,0,0-.25-1,3.05,3.05,0,0,0-.65-.8,6.49,6.49,0,0,0-.91-.67l-1.05-.59-1-.55a10.58,10.58,0,0,1-.92-.57,3.26,3.26,0,0,1-.65-.63,1.21,1.21,0,0,1-.24-.73,1.37,1.37,0,0,1,.12-.55,1.33,1.33,0,0,1,.36-.49,1.88,1.88,0,0,1,.59-.35,2.39,2.39,0,0,1,.84-.13,2.52,2.52,0,0,1,1.73.57,3.42,3.42,0,0,1,1,1.51l.87-.39a3.34,3.34,0,0,0-1.21-1.74,3.73,3.73,0,0,0-2.27-.61,4.36,4.36,0,0,0-1.41.21,3.09,3.09,0,0,0-1,.57,2.34,2.34,0,0,0-.64.86,2.53,2.53,0,0,0-.22,1.07,2.15,2.15,0,0,0,.24,1,3.05,3.05,0,0,0,.63.81,4.64,4.64,0,0,0,.89.65c.33.2.67.38,1,.56l1,.54a5.22,5.22,0,0,1,.89.57,2.74,2.74,0,0,1,.62.66,1.45,1.45,0,0,1,.24.83,1.4,1.4,0,0,1-.17.68A1.69,1.69,0,0,1,220.15,322.1Z"/><polygon class="cls-1" points="245.53 322.92 245.53 312.8 243.83 312.8 243.83 317.41 238.75 317.41 238.75 312.8 237.04 312.8 237.04 322.92 238.75 322.92 238.75 318.06 243.83 318.06 243.83 322.92 245.53 322.92"/><polygon class="cls-1" points="259.36 313.45 259.36 312.8 252.32 312.8 252.32 322.92 259.36 322.92 259.36 322.26 254.03 322.26 254.03 317.73 257.6 317.73 257.6 317.08 254.03 317.08 254.03 313.45 259.36 313.45"/><path class="cls-1" d="M267.2,318.17h1.19l3.52,4.75h2L270.2,318a4.48,4.48,0,0,0,1-.37,3.27,3.27,0,0,0,.78-.57,2.35,2.35,0,0,0,.5-.75,2.13,2.13,0,0,0,.18-.88,2.36,2.36,0,0,0-.24-1.06,2.21,2.21,0,0,0-.69-.84,3.36,3.36,0,0,0-1.14-.54,5.8,5.8,0,0,0-1.59-.2H265.5v10.12h1.7Zm0-4.74h1.49a2.45,2.45,0,0,1,.87.16,2.16,2.16,0,0,1,.68.42,2,2,0,0,1,.44.65,2.32,2.32,0,0,1,.15.84,1.92,1.92,0,0,1-.2.9,2,2,0,0,1-.55.68,2.56,2.56,0,0,1-.84.43,3.51,3.51,0,0,1-1.05.15h-1Z"/><polygon class="cls-1" points="286.43 313.45 286.43 312.8 279.4 312.8 279.4 322.92 286.43 322.92 286.43 322.26 281.1 322.26 281.1 317.73 284.67 317.73 284.67 317.08 281.1 317.08 281.1 313.45 286.43 313.45"/></g></g></svg>