<svg xmlns="http://www.w3.org/2000/svg" xmlns:xlink="http://www.w3.org/1999/xlink" viewBox="0 0 1360 777.24"><defs><style>.cls-1{fill:url(#linear-gradient);}.cls-2{opacity:0.47;fill:url(#linear-gradient-2);}.cls-3{opacity:0.38;fill:url(#linear-gradient-3);}.cls-4{opacity:0.39;fill:url(#linear-gradient-4);}</style><linearGradient id="linear-gradient" x1="-146.89" y1="3041.43" x2="-1012.87" y2="3665.67" gradientTransform="translate(119.84 3796.12) rotate(180)" gradientUnits="userSpaceOnUse"><stop offset="0" stop-color="#034497"/><stop offset="1" stop-color="#031e5d"/></linearGradient><linearGradient id="linear-gradient-2" x1="-1240.16" y1="3334.13" x2="-917.06" y2="3334.13" xlink:href="#linear-gradient"/><linearGradient id="linear-gradient-3" x1="-129.35" y1="3334.81" x2="119.84" y2="3334.81" xlink:href="#linear-gradient"/><linearGradient id="linear-gradient-4" x1="-483.02" y1="3309.44" x2="-485.3" y2="4119.58" xlink:href="#linear-gradient"/></defs><title>background_bottum</title><g id="Layer_2" data-name="Layer 2"><g id="Layer_2-2" data-name="Layer 2"><path class="cls-1" d="M0,777.24V136.32C95.27,91.62,206.46,56.17,328.5,32.64,438,11.53,556.29,0,679.66,0c60.91,0,120.57,2.81,178.55,8.19h0C1048.86,25.9,1221.32,71.46,1360,136.64v640.6Z"/><path class="cls-2" d="M1053.52,510.2,1180,291.05c38.5-66.68,124-79,180-37V694.28H1159.8C1065.33,694.28,1006.28,592,1053.52,510.2Z"/><path class="cls-3" d="M0,693.6V229c41.25.08,82.47,20.54,106,61.36L232.57,509.52C279.8,591.33,220.76,693.6,126.29,693.6Z"/><path class="cls-4" d="M328.5,32.64C438,11.53,556.29,0,679.66,0c60.91,0,120.57,2.81,178.55,8.19h0c41.13,36.53,56.31,99.5,25.11,153.55L710.22,461.56c-47.23,81.81-165.32,81.81-212.56,0L324.56,161.74C299.51,118.35,304.35,69.22,328.5,32.64Z"/></g></g></svg>