<svg xmlns="http://www.w3.org/2000/svg" xmlns:xlink="http://www.w3.org/1999/xlink" viewBox="0 0 1360 777.24"><defs><style>.cls-1{fill:none;}.cls-2{clip-path:url(#clip-path);}.cls-3{fill:url(#linear-gradient);}.cls-4{opacity:0.47;fill:url(#linear-gradient-2);}.cls-5{opacity:0.38;fill:url(#linear-gradient-3);}.cls-6{opacity:0.39;fill:url(#linear-gradient-4);}</style><clipPath id="clip-path" transform="translate(-0.08)"><rect class="cls-1" y="238.68" width="1360" height="318.24"/></clipPath><linearGradient id="linear-gradient" x1="-146.81" y1="5902.87" x2="-1012.79" y2="6527.11" gradientTransform="translate(120 6657.56) rotate(180)" gradientUnits="userSpaceOnUse"><stop offset="0" stop-color="#034497"/><stop offset="1" stop-color="#031e5d"/></linearGradient><linearGradient id="linear-gradient-2" x1="-1240.08" y1="6195.57" x2="-916.98" y2="6195.57" xlink:href="#linear-gradient"/><linearGradient id="linear-gradient-3" x1="-129.27" y1="6196.25" x2="119.92" y2="6196.25" xlink:href="#linear-gradient"/><linearGradient id="linear-gradient-4" x1="-482.94" y1="6170.88" x2="-485.22" y2="6981.02" xlink:href="#linear-gradient"/></defs><title>background_2_rectangle</title><g id="Layer_2" data-name="Layer 2"><g id="Layer_2-2" data-name="Layer 2"><g class="cls-2"><path class="cls-3" d="M.08,777.24V136.32c95.28-44.7,206.46-80.15,328.5-103.68C438.11,11.53,556.38,0,679.74,0,740.65,0,800.31,2.81,858.3,8.19h0c190.64,17.71,363.1,63.27,501.78,128.45v640.6Z" transform="translate(-0.08)"/><path class="cls-4" d="M1053.6,510.2l126.53-219.15c38.49-66.68,124-79,179.95-37V694.28h-200.2C1065.41,694.28,1006.37,592,1053.6,510.2Z" transform="translate(-0.08)"/><path class="cls-5" d="M.08,693.6V229c41.25.08,82.47,20.54,106,61.36L232.65,509.52c47.23,81.81-11.81,184.08-106.28,184.08Z" transform="translate(-0.08)"/><path class="cls-6" d="M328.58,32.64C438.11,11.53,556.38,0,679.74,0,740.65,0,800.31,2.81,858.3,8.19h0c41.14,36.53,56.31,99.5,25.11,153.55L710.3,461.56c-47.23,81.81-165.32,81.81-212.55,0L324.64,161.74C299.59,118.35,304.43,69.22,328.58,32.64Z" transform="translate(-0.08)"/></g></g></g></svg>