<svg xmlns="http://www.w3.org/2000/svg" xmlns:xlink="http://www.w3.org/1999/xlink" viewBox="0 0 1360 777.24"><defs><style>.cls-1{fill:none;}.cls-2{clip-path:url(#clip-path);}.cls-3{fill:url(#linear-gradient);}.cls-4{opacity:0.47;fill:url(#linear-gradient-2);}.cls-5{opacity:0.38;fill:url(#linear-gradient-3);}.cls-6{opacity:0.39;fill:url(#linear-gradient-4);}</style><clipPath id="clip-path"><path class="cls-1" d="M851.2,453.06,827.6,344C798.23,208.19,632.88,155.12,530,248.44l-82.67,75c-102.91,93.33-66.2,263.06,66.08,305.52l106.27,34.11C751.93,705.51,880.57,588.85,851.2,453.06Z"/></clipPath><linearGradient id="linear-gradient" x1="1281.11" y1="8179.51" x2="415.13" y2="8803.75" gradientTransform="translate(1547.84 8934.2) rotate(180)" gradientUnits="userSpaceOnUse"><stop offset="0" stop-color="#034497"/><stop offset="1" stop-color="#031e5d"/></linearGradient><linearGradient id="linear-gradient-2" x1="187.84" y1="8472.21" x2="510.94" y2="8472.21" xlink:href="#linear-gradient"/><linearGradient id="linear-gradient-3" x1="1298.65" y1="8472.89" x2="1547.84" y2="8472.89" xlink:href="#linear-gradient"/><linearGradient id="linear-gradient-4" x1="944.98" y1="8447.52" x2="942.7" y2="9257.66" xlink:href="#linear-gradient"/></defs><title>background_1</title><g id="Layer_2" data-name="Layer 2"><g id="Layer_2-2" data-name="Layer 2"><g class="cls-2"><path class="cls-3" d="M0,777.24V136.32C95.27,91.62,206.46,56.17,328.5,32.64,438,11.53,556.29,0,679.66,0c60.91,0,120.57,2.81,178.55,8.19h0C1048.86,25.9,1221.32,71.46,1360,136.64v640.6Z"/><path class="cls-4" d="M1053.52,510.2,1180,291.05c38.5-66.68,124-79,180-37V694.28H1159.8C1065.33,694.28,1006.28,592,1053.52,510.2Z"/><path class="cls-5" d="M0,693.6V229c41.25.08,82.47,20.54,106,61.36L232.57,509.52C279.8,591.33,220.76,693.6,126.29,693.6Z"/><path class="cls-6" d="M328.5,32.64C438,11.53,556.29,0,679.66,0c60.91,0,120.57,2.81,178.55,8.19h0c41.13,36.53,56.31,99.5,25.11,153.55L710.22,461.56c-47.23,81.81-165.32,81.81-212.56,0L324.56,161.74C299.51,118.35,304.35,69.22,328.5,32.64Z"/></g></g></g></svg>