<svg xmlns="http://www.w3.org/2000/svg" xmlns:xlink="http://www.w3.org/1999/xlink" viewBox="0 0 1360 777.24"><defs><style>.cls-1{fill:url(#linear-gradient);}.cls-2{opacity:0.47;fill:url(#linear-gradient-2);}.cls-3{opacity:0.38;fill:url(#linear-gradient-3);}.cls-4{opacity:0.39;fill:url(#linear-gradient-4);}</style><linearGradient id="linear-gradient" x1="1093.27" y1="22.55" x2="227.29" y2="646.79" gradientUnits="userSpaceOnUse"><stop offset="0" stop-color="#034497"/><stop offset="1" stop-color="#031e5d"/></linearGradient><linearGradient id="linear-gradient-2" x1="0" y1="315.25" x2="323.11" y2="315.25" xlink:href="#linear-gradient"/><linearGradient id="linear-gradient-3" x1="1110.81" y1="315.93" x2="1360" y2="315.93" xlink:href="#linear-gradient"/><linearGradient id="linear-gradient-4" x1="757.15" y1="290.56" x2="754.86" y2="1100.7" xlink:href="#linear-gradient"/></defs><title>background_top</title><g id="Layer_2" data-name="Layer 2"><g id="Layer_2-2" data-name="Layer 2"><path class="cls-1" d="M1360,0V640.92c-95.27,44.7-206.46,80.15-328.5,103.68C922,765.71,803.71,777.24,680.34,777.24c-60.91,0-120.57-2.81-178.55-8.19h0C311.14,751.34,138.68,705.78,0,640.6V0Z"/><path class="cls-2" d="M306.48,267,180,486.19c-38.5,66.68-124,79-180,37V83H200.2C294.67,83,353.72,185.23,306.48,267Z"/><path class="cls-3" d="M1360,83.64V548.23c-41.25-.08-82.47-20.54-106-61.36L1127.43,267.72c-47.23-81.81,11.81-184.08,106.28-184.08Z"/><path class="cls-4" d="M1031.5,744.6C922,765.71,803.71,777.24,680.34,777.24c-60.91,0-120.57-2.81-178.55-8.19h0c-41.13-36.53-56.31-99.5-25.11-153.55L649.78,315.68c47.23-81.81,165.32-81.81,212.56,0l173.1,299.82C1060.49,658.89,1055.65,708,1031.5,744.6Z"/></g></g></svg>