<svg xmlns="http://www.w3.org/2000/svg" viewBox="0 0 82.72 82.72"><defs><style>.cls-1{fill:#e34932;}.cls-2{fill:#fff;}</style></defs><title>circle_3</title><g id="Layer_2" data-name="Layer 2"><g id="Layer_2-2" data-name="Layer 2"><circle class="cls-1" cx="41.36" cy="41.36" r="41.36"/><path class="cls-2" d="M65.71,35.75H60.58a20.61,20.61,0,0,0-1.66-4l3.62-3.63a2.56,2.56,0,0,0,0-3.62l-4.3-4.31a2.56,2.56,0,0,0-3.62,0L51,23.8a19.67,19.67,0,0,0-4-1.66V17a2.56,2.56,0,0,0-2.56-2.56h-6.1A2.56,2.56,0,0,0,35.75,17v5.14a19.44,19.44,0,0,0-4,1.66L28.1,20.17a2.56,2.56,0,0,0-3.62,0l-4.31,4.31a2.56,2.56,0,0,0,0,3.62l3.62,3.63a20,20,0,0,0-1.65,4H17a2.56,2.56,0,0,0-2.57,2.56V44.4A2.56,2.56,0,0,0,17,47h5.13a20.22,20.22,0,0,0,1.65,4l-3.62,3.63a2.56,2.56,0,0,0,0,3.62l4.31,4.3a2.56,2.56,0,0,0,3.62,0l3.63-3.62a20.61,20.61,0,0,0,4,1.66v5.13a2.57,2.57,0,0,0,2.56,2.57h6.1A2.57,2.57,0,0,0,47,65.71V60.58a20.87,20.87,0,0,0,4-1.66l3.63,3.62a2.56,2.56,0,0,0,3.62,0l4.3-4.3a2.56,2.56,0,0,0,0-3.62L58.92,51a20.87,20.87,0,0,0,1.66-4h5.13a2.57,2.57,0,0,0,2.57-2.57V38.31A2.57,2.57,0,0,0,65.71,35.75ZM41.36,52.1A10.74,10.74,0,1,1,52.1,41.36,10.74,10.74,0,0,1,41.36,52.1Z"/></g></g></svg>