<svg xmlns="http://www.w3.org/2000/svg" viewBox="0 0 83.94 83.94"><defs><style>.cls-1{fill:#e34932;}.cls-2{fill:#fff;}</style></defs><title>circle_1</title><g id="Layer_2" data-name="Layer 2"><g id="Layer_2-2" data-name="Layer 2"><path class="cls-1" d="M83.94,42A42,42,0,1,1,42,0,42,42,0,0,1,83.94,42Z"/><path class="cls-2" d="M20,21.35a7.65,7.65,0,0,1,5.36.61c1.42.74,1.71,1.67,2.59,2.74,1.44-2.9,2.38-6.05,3.86-8.95a.83.83,0,0,1,.32-.39.85.85,0,0,1,.64.08,43.34,43.34,0,0,1,5,2.71c1.37.84,3.43,2.9,5,3.21s1.62-1.16,2-2.52a9.26,9.26,0,0,1,2.64-4.38,7.59,7.59,0,0,1,3.64-1.77c5-1,12.93,2.38,14.21,7.75a9,9,0,0,1-.73,6.33c-1,1.85-2.21,2.08-3.64,3.41,1.17,1.37,4.06,2.22,5.68,3,1,.47,3.05.89,3.73,1.87,1,1.49-.27,3.74-1,5.06a65.17,65.17,0,0,0-3.32,6.18c-.19.39-1.64,2.92-2,.93a5.93,5.93,0,0,0-1.32-2.8c-2-2.38-6.37-3.49-8.52-.81-2,2.49-4.25,5.81-3.82,9.14.34,2.65,3,6,6,6.06.49,0,4.18-1.65,3.45-.39a90,90,0,0,0-4.12,9.47A8.88,8.88,0,0,1,53.68,71a1.41,1.41,0,0,1-.86.44,1.7,1.7,0,0,1-.81-.27c-3.29-1.74-6.71-3.27-10.15-4.76a3.94,3.94,0,0,0,.5-.77A7.65,7.65,0,0,0,43,60.27c-1.08-4.54-7.76-7.41-12-6.56a6.51,6.51,0,0,0-3.08,1.5,7.82,7.82,0,0,0-2.24,3.71c-.05.19-.1.37-.14.55C22.09,58,18.71,56.56,15.39,55c-1.68-.79-1.77-1.08-1.14-2.72.4-1,.89-2.08,1.39-3.1a1.25,1.25,0,0,1,.1-.27c.33-.75.69-1.47,1.08-2.19l3.48-7.5a9.47,9.47,0,0,0-1.69-.51,7.88,7.88,0,0,1-3.71-2.23,6.59,6.59,0,0,1-1.5-3.09C12.55,29.11,15.42,22.43,20,21.35Z"/></g></g></svg>