<svg xmlns="http://www.w3.org/2000/svg" viewBox="0 0 83.94 83.94"><defs><style>.cls-1{fill:#e34932;}.cls-2{fill:#fff;}</style></defs><title>circle_2</title><g id="Layer_2" data-name="Layer 2"><g id="Layer_2-2" data-name="Layer 2"><path class="cls-1" d="M83.94,42A42,42,0,1,1,42,0,42,42,0,0,1,83.94,42Z"/><path class="cls-2" d="M42,12.46A29.51,29.51,0,1,0,71.48,42,29.5,29.5,0,0,0,42,12.46Zm-5.29,4.26c-2.73,2.15-5,5.93-6.53,10.78A25.66,25.66,0,0,1,23.48,24,25.86,25.86,0,0,1,36.68,16.72Zm-15,9.39a28.71,28.71,0,0,0,7.75,4.13A50.24,50.24,0,0,0,28.1,40.53H16.22A25.62,25.62,0,0,1,21.64,26.11ZM16.22,43.4H28.1A50,50,0,0,0,29.46,54a28.7,28.7,0,0,0-7.69,4A25.69,25.69,0,0,1,16.22,43.4Zm7.41,16.7a25.68,25.68,0,0,1,6.61-3.39c1.51,4.71,3.76,8.39,6.44,10.51A25.85,25.85,0,0,1,23.63,60.1Zm16.9,6c-3.07-.92-5.79-4.79-7.54-10.22a36.17,36.17,0,0,1,7.54-1.07Zm0-14.16a38.81,38.81,0,0,0-8.31,1.2A47.36,47.36,0,0,1,31,43.4h9.56Zm0-11.41H31a47,47,0,0,1,1.19-9.44,38,38,0,0,0,8.37,1.22Zm0-11.09a35.62,35.62,0,0,1-7.63-1.1c1.74-5.59,4.51-9.57,7.63-10.51ZM67.72,40.53H55.84a50.43,50.43,0,0,0-1.29-10.3,28.27,28.27,0,0,0,7.75-4.12A25.62,25.62,0,0,1,67.72,40.53ZM60.45,24A25.53,25.53,0,0,1,53.8,27.5c-1.53-4.85-3.81-8.63-6.54-10.78A25.75,25.75,0,0,1,60.45,24ZM43.4,17.83c3.14.94,5.9,4.92,7.64,10.51a35.71,35.71,0,0,1-7.64,1.1Zm0,14.48a38.14,38.14,0,0,0,8.39-1.22A47.77,47.77,0,0,1,53,40.53H43.4Zm0,11.09H53a47.36,47.36,0,0,1-1.25,9.74,38.81,38.81,0,0,0-8.32-1.2Zm0,22.7V54.81A36.36,36.36,0,0,1,51,55.88C49.2,61.31,46.48,65.18,43.4,66.1Zm3.86,1.12c2.69-2.11,4.92-5.8,6.45-10.51a25.78,25.78,0,0,1,6.6,3.39A25.74,25.74,0,0,1,47.26,67.22ZM62.17,58a28.55,28.55,0,0,0-7.69-4A49.37,49.37,0,0,0,55.84,43.4H67.72A25.69,25.69,0,0,1,62.17,58Z"/></g></g></svg>