<svg xmlns="http://www.w3.org/2000/svg" xmlns:xlink="http://www.w3.org/1999/xlink" viewBox="0 0 65.06 65.06"><defs><style>.cls-1{fill:url(#Degradado_sin_nombre_15);}.cls-2{fill:url(#Degradado_sin_nombre_15-2);}</style><radialGradient id="Degradado_sin_nombre_15" cx="32.22" cy="34.01" fx="9.221706185275384" r="54.79" gradientTransform="translate(-9.74 40.35) rotate(-49.2) scale(1 0.81)" gradientUnits="userSpaceOnUse"><stop offset="0" stop-color="#fff"/><stop offset="1" stop-color="#f6f6f7"/></radialGradient><radialGradient id="Degradado_sin_nombre_15-2" cx="32.02" cy="35.08" fx="-6.576990714004175" r="91.96" gradientTransform="translate(-10.47 40.71) rotate(-49.2) scale(1 0.81)" xlink:href="#Degradado_sin_nombre_15"/></defs><title>instagram</title><g id="Layer_2" data-name="Layer 2"><g id="Layer_2-2" data-name="Layer 2"><path class="cls-1" d="M32.53,23.06A9.48,9.48,0,1,0,42,32.53,9.48,9.48,0,0,0,32.53,23.06Zm0,0A9.48,9.48,0,1,0,42,32.53,9.48,9.48,0,0,0,32.53,23.06Zm8.81-9.33H23.72a11,11,0,0,0-11,11V40.3a11,11,0,0,0,11,11H41.34a11,11,0,0,0,11-11V24.77A11,11,0,0,0,41.34,13.73ZM32.53,45.16A12.63,12.63,0,1,1,45.16,32.53,12.65,12.65,0,0,1,32.53,45.16ZM45,22.91a2.62,2.62,0,1,1,2.62-2.62A2.62,2.62,0,0,1,45,22.91Zm-12.44.15A9.48,9.48,0,1,0,42,32.53,9.48,9.48,0,0,0,32.53,23.06Z"/><path class="cls-2" d="M32.53,0A32.53,32.53,0,1,0,65.06,32.53,32.54,32.54,0,0,0,32.53,0Zm23,40.3A14.21,14.21,0,0,1,41.34,54.49H23.72A14.21,14.21,0,0,1,9.53,40.3V24.77A14.21,14.21,0,0,1,23.72,10.58H41.34A14.21,14.21,0,0,1,55.53,24.77Z"/></g></g></svg>