<svg xmlns="http://www.w3.org/2000/svg" xmlns:xlink="http://www.w3.org/1999/xlink" viewBox="0 0 236.45 83.65"><defs><style>.cls-1{fill:none;}.cls-2{fill:#fff;}.cls-3{clip-path:url(#clip-path);}.cls-4{fill:#7ac943;}.cls-5{fill:#7bc944;}.cls-6{fill:#7cc945;}.cls-7{fill:#7eca46;}.cls-8{fill:#7fca47;}.cls-9{fill:#80ca47;}.cls-10{fill:#81ca48;}.cls-11{fill:#82cb49;}.cls-12{fill:#84cb4a;}.cls-13{fill:#85cb4b;}.cls-14{fill:#86cb4c;}.cls-15{fill:#87cb4d;}.cls-16{fill:#88cc4e;}.cls-17{fill:#8acc4e;}.cls-18{fill:#8bcc4f;}.cls-19{fill:#8ccc50;}.cls-20{fill:#8dcd51;}.cls-21{fill:#8ecd52;}.cls-22{fill:#8fcd53;}.cls-23{fill:#90cd54;}.cls-24{fill:#92cd54;}.cls-25{fill:#93ce55;}.cls-26{fill:#94ce56;}.cls-27{fill:#95ce57;}.cls-28{fill:#96ce58;}.cls-29{fill:#97cf59;}.cls-30{fill:#98cf59;}.cls-31{fill:#99cf5a;}.cls-32{fill:#9bcf5b;}.cls-33{fill:#9ccf5c;}.cls-34{fill:#9dd05d;}.cls-35{fill:#9ed05d;}.cls-36{fill:#9fd05e;}.cls-37{fill:#a0d05f;}.cls-38{fill:#a1d060;}.cls-39{fill:#a2d161;}.cls-40{fill:#a3d161;}.cls-41{fill:#a4d162;}.cls-42{fill:#a5d163;}.cls-43{fill:#a6d164;}.cls-44{fill:#a7d264;}.cls-45{fill:#a8d265;}.cls-46{fill:#a9d266;}.cls-47{fill:#aad267;}.cls-48{fill:#abd267;}.cls-49{fill:#acd268;}.cls-50{fill:#add369;}.cls-51{fill:#aed36a;}.cls-52{fill:#afd36a;}.cls-53{fill:#b0d36b;}.cls-54{fill:#b1d36c;}.cls-55{fill:#b2d46c;}.cls-56{fill:#b3d46d;}.cls-57{fill:#b4d46e;}.cls-58{fill:#b5d46e;}.cls-59{fill:#b6d46f;}.cls-60{fill:#b6d470;}.cls-61{fill:#b7d570;}.cls-62{fill:#b8d571;}.cls-63{fill:#b9d572;}.cls-64{fill:#bad572;}.cls-65{fill:#bbd573;}.cls-66{fill:#bcd574;}.cls-67{fill:#bdd674;}.cls-68{fill:#bdd675;}.cls-69{fill:#bed675;}.cls-70{fill:#bfd676;}.cls-71{fill:#e8f5ff;}</style><clipPath id="clip-path"><path class="cls-1" d="M47.57,49.34,32.44,64.47a10.63,10.63,0,0,0,0,15h0a10.62,10.62,0,0,0,15,0L77.6,49.27a10.63,10.63,0,0,0,0-15L47.48,4.15a10.63,10.63,0,0,0-15,0h0a10.63,10.63,0,0,0,0,15L47.57,34.32A10.62,10.62,0,0,1,47.57,49.34Z"/></clipPath></defs><title>logo_top</title><g id="Layer_2" data-name="Layer 2"><g id="Layer_2-2" data-name="Layer 2"><path class="cls-2" d="M102.84,46.08v5.76H99.08V46l-6.3-10.46h4l4.34,7.23,4.35-7.23h3.69Z"/><path class="cls-2" d="M109,43.71c0-4.84,3.76-8.42,8.9-8.42s8.9,3.56,8.9,8.42-3.79,8.41-8.9,8.41S109,48.54,109,43.71Zm14,0a5.09,5.09,0,1,0-10.18,0,5.09,5.09,0,1,0,10.18,0Z"/><path class="cls-2" d="M129.53,44.68V35.57h3.76v9c0,3.09,1.35,4.37,3.63,4.37s3.62-1.28,3.62-4.37v-9h3.72v9.11c0,4.79-2.74,7.44-7.36,7.44S129.53,49.47,129.53,44.68Z"/><path class="cls-2" d="M158.35,51.84l-3.14-4.53h-3.46v4.53H148V35.57h7c4.34,0,7.06,2.26,7.06,5.91a5.27,5.27,0,0,1-3.35,5.13l3.65,5.23Zm-3.53-13.2h-3.07v5.67h3.07c2.3,0,3.46-1.07,3.46-2.83S157.12,38.64,154.82,38.64Z"/><path class="cls-2" d="M180,35.57V51.84H176.9L168.79,42v9.88h-3.72V35.57h3.11l8.09,9.88V35.57Z"/><path class="cls-2" d="M194.56,48.36H187l-1.44,3.48h-3.86L189,35.57h3.72L200,51.84h-4Zm-1.18-2.86-2.58-6.23-2.58,6.23Z"/><path class="cls-2" d="M216.46,51.84l0-9.76-4.79,8H210l-4.76-7.83v9.55h-3.53V35.57h3.11l6.09,10.11,6-10.11H220l0,16.27Z"/><path class="cls-2" d="M236.45,48.82v3h-12.6V35.57h12.3v3H227.6v3.54h7.55v2.93H227.6v3.76Z"/><g class="cls-3"><rect class="cls-4" x="28.29" width="1.04" height="83.65"/><rect class="cls-4" x="29.33" width="0.74" height="83.65"/><rect class="cls-5" x="30.07" width="0.74" height="83.65"/><rect class="cls-6" x="30.82" width="0.74" height="83.65"/><rect class="cls-7" x="31.56" width="0.74" height="83.65"/><rect class="cls-8" x="32.3" width="0.74" height="83.65"/><rect class="cls-9" x="33.05" width="0.74" height="83.65"/><rect class="cls-10" x="33.79" width="0.74" height="83.65"/><rect class="cls-11" x="34.54" width="0.74" height="83.65"/><rect class="cls-12" x="35.28" width="0.74" height="83.65"/><rect class="cls-13" x="36.03" width="0.74" height="83.65"/><rect class="cls-14" x="36.77" width="0.74" height="83.65"/><rect class="cls-15" x="37.52" width="0.74" height="83.65"/><rect class="cls-16" x="38.26" width="0.74" height="83.65"/><rect class="cls-17" x="39.01" width="0.74" height="83.65"/><rect class="cls-18" x="39.75" width="0.74" height="83.65"/><rect class="cls-19" x="40.49" width="0.74" height="83.65"/><rect class="cls-20" x="41.24" width="0.74" height="83.65"/><rect class="cls-21" x="41.98" width="0.74" height="83.65"/><rect class="cls-22" x="42.73" width="0.74" height="83.65"/><rect class="cls-23" x="43.47" width="0.74" height="83.65"/><rect class="cls-24" x="44.22" width="0.74" height="83.65"/><rect class="cls-25" x="44.96" width="0.74" height="83.65"/><rect class="cls-26" x="45.71" width="0.74" height="83.65"/><rect class="cls-27" x="46.45" width="0.74" height="83.65"/><rect class="cls-28" x="47.19" width="0.74" height="83.65"/><rect class="cls-29" x="47.94" width="0.74" height="83.65"/><rect class="cls-30" x="48.68" width="0.74" height="83.65"/><rect class="cls-31" x="49.43" width="0.74" height="83.65"/><rect class="cls-32" x="50.17" width="0.74" height="83.65"/><rect class="cls-33" x="50.92" width="0.74" height="83.65"/><rect class="cls-34" x="51.66" width="0.74" height="83.65"/><rect class="cls-35" x="52.41" width="0.74" height="83.65"/><rect class="cls-36" x="53.15" width="0.74" height="83.65"/><rect class="cls-37" x="53.89" width="0.74" height="83.65"/><rect class="cls-38" x="54.64" width="0.74" height="83.65"/><rect class="cls-39" x="55.38" width="0.74" height="83.65"/><rect class="cls-40" x="56.13" width="0.74" height="83.65"/><rect class="cls-41" x="56.87" width="0.74" height="83.65"/><rect class="cls-42" x="57.62" width="0.74" height="83.65"/><rect class="cls-43" x="58.36" width="0.74" height="83.65"/><rect class="cls-44" x="59.11" width="0.74" height="83.65"/><rect class="cls-45" x="59.85" width="0.74" height="83.65"/><rect class="cls-46" x="60.59" width="0.74" height="83.65"/><rect class="cls-47" x="61.34" width="0.74" height="83.65"/><rect class="cls-48" x="62.08" width="0.74" height="83.65"/><rect class="cls-49" x="62.83" width="0.74" height="83.65"/><rect class="cls-50" x="63.57" width="0.74" height="83.65"/><rect class="cls-51" x="64.32" width="0.74" height="83.65"/><rect class="cls-52" x="65.06" width="0.74" height="83.65"/><rect class="cls-53" x="65.81" width="0.74" height="83.65"/><rect class="cls-54" x="66.55" width="0.74" height="83.65"/><rect class="cls-55" x="67.29" width="0.74" height="83.65"/><rect class="cls-56" x="68.04" width="0.74" height="83.65"/><rect class="cls-57" x="68.78" width="0.74" height="83.65"/><rect class="cls-58" x="69.53" width="0.74" height="83.65"/><rect class="cls-59" x="70.27" width="0.74" height="83.65"/><rect class="cls-60" x="71.02" width="0.74" height="83.65"/><rect class="cls-61" x="71.76" width="0.74" height="83.65"/><rect class="cls-62" x="72.51" width="0.74" height="83.65"/><rect class="cls-63" x="73.25" width="0.74" height="83.65"/><rect class="cls-64" x="73.99" width="0.74" height="83.65"/><rect class="cls-65" x="74.74" width="0.74" height="83.65"/><rect class="cls-65" x="75.48" width="0.74" height="83.65"/><rect class="cls-66" x="76.23" width="0.74" height="83.65"/><rect class="cls-67" x="76.97" width="0.74" height="83.65"/><rect class="cls-68" x="77.72" width="0.74" height="83.65"/><rect class="cls-69" x="78.46" width="0.74" height="83.65"/><rect class="cls-70" x="79.21" width="0.74" height="83.65"/><rect class="cls-70" x="79.95" width="0.74" height="83.65"/><rect class="cls-70" x="80.69" width="1.04" height="83.65"/></g><path class="cls-71" d="M18.24,48.89,3.11,64a10.63,10.63,0,0,0,0,15h0a10.62,10.62,0,0,0,15,0L48.27,48.82a10.63,10.63,0,0,0,0-15L18.15,3.7a10.63,10.63,0,0,0-15,0h0a10.63,10.63,0,0,0,0,15L18.24,33.87A10.62,10.62,0,0,1,18.24,48.89Z"/></g></g></svg>