<svg xmlns="http://www.w3.org/2000/svg" viewBox="0 0 194.77 233.69"><defs><style>.cls-1{fill:#fff;}</style></defs><title>logo_partner_1</title><g id="Layer_2" data-name="Layer 2"><g id="Layer_2-2" data-name="Layer 2"><path class="cls-1" d="M184.48,229.72a1,1,0,0,0-.08-.44.86.86,0,0,0-.23-.33,1.07,1.07,0,0,0-.35-.23,1.29,1.29,0,0,0-.45-.07h-.77v2.19h.51a1.92,1.92,0,0,0,.55-.08,1.32,1.32,0,0,0,.44-.23,1,1,0,0,0,.28-.35A1,1,0,0,0,184.48,229.72Z"/><path class="cls-1" d="M33.69,229.72a1,1,0,0,0-.09-.44,1,1,0,0,0-.22-.33,1.11,1.11,0,0,0-.36-.23,1.23,1.23,0,0,0-.44-.07H31.8v2.19h.51a1.92,1.92,0,0,0,.55-.08,1.23,1.23,0,0,0,.44-.23,1,1,0,0,0,.28-.35A1,1,0,0,0,33.69,229.72Z"/><polygon class="cls-1" points="55.97 231.48 57.9 231.48 56.94 229.4 55.97 231.48"/><path class="cls-1" d="M13.84,229.14a1.65,1.65,0,0,0-.58-.5,1.67,1.67,0,0,0-.79-.18,1.73,1.73,0,0,0-.81.18,1.65,1.65,0,0,0-.58.5,2.33,2.33,0,0,0-.36.78,3.84,3.84,0,0,0-.12,1,4.05,4.05,0,0,0,.12,1,2.3,2.3,0,0,0,.36.79,1.63,1.63,0,0,0,.58.53,1.73,1.73,0,0,0,.81.18,1.67,1.67,0,0,0,.79-.18,1.63,1.63,0,0,0,.58-.53,2.3,2.3,0,0,0,.36-.79,4.05,4.05,0,0,0,.12-1,3.84,3.84,0,0,0-.12-1A2.33,2.33,0,0,0,13.84,229.14Z"/><path class="cls-1" d="M131.19,229.14a1.74,1.74,0,0,0-.58-.5,1.69,1.69,0,0,0-.8-.18,1.71,1.71,0,0,0-.8.18,1.68,1.68,0,0,0-.59.5,2.54,2.54,0,0,0-.35.78,3.84,3.84,0,0,0-.12,1,4.05,4.05,0,0,0,.12,1,2.49,2.49,0,0,0,.35.79,1.66,1.66,0,0,0,.59.53,1.71,1.71,0,0,0,.8.18,1.69,1.69,0,0,0,.8-.18,1.72,1.72,0,0,0,.58-.53,2.3,2.3,0,0,0,.36-.79,4.05,4.05,0,0,0,.12-1,3.84,3.84,0,0,0-.12-1A2.33,2.33,0,0,0,131.19,229.14Z"/><path class="cls-1" d="M189.62,96.62V96.3h0c.06-1.26.09-2.6.09-4a92.35,92.35,0,0,0-84.59-92,93.4,93.4,0,0,0-15.51,0,92.35,92.35,0,0,0-84.58,92c0,1.37,0,2.7.09,4a92.46,92.46,0,0,0,87,88.2c1,.06,2.08.12,3.13.14h.12l1,0h2.07l1,0A92.46,92.46,0,0,0,189.62,96.62ZM11.84,96c-.05-1.17-.08-2.41-.08-3.68A85.61,85.61,0,0,1,90.19,7c2.36-.2,4.78-.3,7.2-.3s4.83.1,7.19.3A85.63,85.63,0,0,1,183,92.33c0,1.16,0,2.29-.07,3.37,0,.12,0,.24-.08.37s-.11.47-.17.7-.13.56-.21.83-.18.72-.27,1.08l-.3,1.07c-.1.36-.21.71-.32,1.07s-.22.7-.32,1a.08.08,0,0,0,0,0c-.11.35-.23.7-.35,1s-.23.7-.36,1.06l-.38,1-.4,1c-.51,1.3-1.05,2.6-1.64,3.87-.15.33-.3.65-.46,1l-.5,1c-.17.34-.34.69-.52,1,.06-.55.1-1.09.15-1.64l.09-1.35,0-.29c0-.5.06-1,.07-1.48s0-.82,0-1.24c0-.2,0-.39,0-.59,0-.47,0-.94,0-1.41a79.62,79.62,0,0,0-18.69-51.26l-.43-.51a79.58,79.58,0,0,0-60.55-27.9c-.59,0-1.19,0-1.78,0H95.2l-.79,0c-.82,0-1.65.07-2.47.12l-.7.06-.73.05-1.32.13-1,.11L87.13,26,87,26l-1.08.15-1.13.17q-1.12.18-2.25.39L81.4,27a.5.5,0,0,1-.13,0q-2.72.56-5.4,1.31l-1.08.32c-.37.1-.73.21-1.09.33-1.09.33-2.16.69-3.23,1.08l-1,.38-.63.24L68,31c-.58.23-1.16.46-1.73.71l-.88.38c-1.09.48-2.17,1-3.24,1.51s-1.9,1-2.84,1.47l-.93.51-1,.57q-.41.22-.81.48l-1,.58c-.61.38-1.21.76-1.8,1.15l-.89.59c-.24.16-.48.32-.71.49l-.18.11-.23.17-.59.41-.11.08,0,0c-.27.18-.53.37-.79.57s-.58.42-.86.63c-.58.44-1.14.88-1.7,1.32L47,43.3h0a.39.39,0,0,0-.1.08q-.84.68-1.65,1.38c-.54.47-1.08.95-1.61,1.44l-.79.73c-.53.5-1.05,1-1.56,1.51s-.76.77-1.14,1.16l-.85.89c-.21.23-.42.45-.62.68s-.39.41-.58.63c-.42.46-.84.94-1.25,1.42h0l-.43.49h0a79.77,79.77,0,0,0-14.58,76.58q.24.74.51,1.47c.17.49.35,1,.53,1.46.37,1,.76,1.94,1.16,2.88.16.38.32.76.49,1.13A85,85,0,0,1,11.84,96Zm154.4,32.18-.87,1-.57.6c-.22.25-.45.48-.68.72l-.69.7-.7.69-.68.66c-.25.23-.49.47-.74.69l-.72.66-.74.65c-.24.22-.49.43-.74.64l-.66.57-.83.68-.77.61c-.49.39-1,.77-1.5,1.15l-.08.06-.74.54-.86.62-.73.5c-.27.18-.54.36-.8.55l-.82.53-.82.52c-.27.17-.54.34-.82.5l-.83.5L148,143l-.85.47c-.27.16-.56.31-.85.47l-.85.45-.86.44-.86.43c-.29.15-.59.29-.88.42l-.87.41c-.59.27-1.18.52-1.77.78l-.9.37-.89.35c-.62.25-1.25.49-1.88.72l-.84.29c-.38.14-.76.26-1.15.39l-.69.23-.92.28-.93.28c-.93.27-1.87.51-2.81.75l-.95.22-.94.22c-.59.12-1.18.25-1.78.36l-.13,0-1,.17-1,.16-.39.07-1.08.16-.46.06q-3.12.43-6.29.58a79.77,79.77,0,0,0,47.4-72.87,78.72,78.72,0,0,0-.4-8A73,73,0,0,1,170.35,105q0,1.44-.06,2.88c0,.26,0,.51,0,.77s0,.53,0,.79c0,.49-.06,1-.1,1.47s-.07.85-.11,1.27-.07.63-.1,1l-.08.68c0,.41-.1.81-.16,1.22s-.09.65-.14,1l-.18,1.14-.18,1,0,.16c-.08.43-.16.85-.25,1.27a1.18,1.18,0,0,1-.06.27c-.06.36-.14.7-.22,1s-.19.86-.3,1.29-.14.6-.22.9l-.15.56c-.06.25-.13.5-.2.75s-.11.4-.16.6c-.11.38-.23.76-.34,1.14l0,.06c-.14.45-.27.89-.42,1.34ZM96.92,151.11l-.5-.11-1.59-.35-1.57-.4-.78-.2-.78-.22-.75-.22-.74-.22-.09,0-.19-.06c-.44-.14-.87-.27-1.3-.42s-1-.32-1.45-.5l-.1,0c-.42-.14-.83-.3-1.24-.45l-.36-.14-.92-.36-.63-.25-.76-.32-.74-.32L81.3,146l-.08,0-1-.48-.65-.32c-.41-.2-.83-.4-1.24-.62l-1.15-.61-.09,0-.08,0,0,0-1.17-.66-.2-.11-.89-.51-.58-.36-.8-.49-.48-.29-.72-.47-.61-.4c-.39-.25-.76-.5-1.13-.76l-.88-.62-.13-.09-.4-.29-.56-.41c-.19-.13-.37-.28-.56-.42s-.65-.49-1-.75l0,0c-.52-.41-1-.83-1.55-1.26-.35-.29-.71-.59-1.06-.9a5.58,5.58,0,0,1-.46-.39l-.49-.43a.27.27,0,0,0-.08-.07l-1.07-1L62,133l-1.18-1.13-.55-.54-.54-.55-.75-.77-.11-.12-.3-.32-1-1.08c-.33-.37-.65-.73-1-1.11a.08.08,0,0,1,0,0c-.17-.19-.33-.38-.49-.58s-.33-.39-.49-.58-.39-.47-.57-.7l-.11-.13c-.15-.18-.3-.37-.44-.56-.27-.34-.54-.69-.8-1L53,123c0-.06-.08-.11-.11-.16q-.57-.77-1.11-1.56c-.19-.26-.37-.53-.55-.8s-.31-.46-.46-.7c-.26-.39-.52-.79-.77-1.19s-.5-.81-.75-1.21-.49-.83-.73-1.25-.39-.68-.58-1c-.34-.6-.66-1.21-1-1.81-.15-.3-.31-.6-.46-.91l-.09-.19q-.27-.53-.51-1.05c-.08-.16-.16-.32-.22-.47s-.25-.52-.37-.79-.25-.54-.37-.82-.37-.85-.55-1.28-.43-1-.63-1.57c-.06-.13-.1-.25-.15-.38-.11-.28-.22-.56-.32-.84l-.09-.25-.31-.87-.06-.18a.56.56,0,0,1,0-.12q-.15-.39-.27-.78c-.09-.25-.16-.49-.25-.74-.21-.68-.42-1.37-.62-2.05q-.2-.64-.36-1.29c-.11-.39-.21-.79-.31-1.18-.06-.22-.11-.44-.16-.67s-.16-.66-.23-1c-.14-.58-.26-1.16-.38-1.74-.05-.23-.09-.46-.13-.69l0-.12-.15-.83c-.07-.41-.15-.82-.21-1.23l-.12-.78c0-.24-.07-.49-.1-.73s-.08-.54-.11-.8c-.11-.88-.21-1.75-.29-2.64,0-.36-.06-.72-.08-1.09S39,84.37,38.93,84h0l-.06-1.23c0-.5,0-1,0-1.53s0-1,0-1.52c0-1,0-1.93.06-2.9l0-.71c0-.09,0-.18,0-.28l0-.56.06-.94c0-.18,0-.36,0-.54a.41.41,0,0,0,0-.11c0-.39.07-.77.11-1.16s.05-.6.09-.9c0,0,0-.1,0-.15,0-.2.05-.41.08-.61,0-.39.09-.79.15-1.18s.08-.58.13-.87a.5.5,0,0,1,0-.12c0-.19,0-.38.08-.57s.06-.38.1-.57l0-.18c0-.26.09-.51.13-.76h0c.06-.33.12-.65.19-1,0-.07,0-.15,0-.22a1.16,1.16,0,0,1,0-.18l.09-.47.06-.27,0-.14.06-.29.06-.26c.08-.38.17-.75.26-1.12a1.16,1.16,0,0,1,0-.18l.21-.84s0,0,0-.06l.12-.5c.1-.36.2-.71.29-1.07,0-.08,0-.15.07-.23s0,0,0,0c.1-.36.2-.72.31-1.08,0,0,0-.07,0-.11v-.07l.42-1.32h0c.53-.62,1.08-1.23,1.64-1.82.34-.37.68-.73,1-1.08l.69-.71c.59-.59,1.18-1.17,1.79-1.74l.09-.08.55-.5.46-.43.68-.6L50,49.5c.33-.29.67-.56,1-.84s.83-.68,1.25-1l.73-.57.19-.14c.34-.26.68-.52,1-.77s.77-.56,1.17-.84l.06,0,.73-.51.81-.54.75-.49,0,0,0,0L59,43c.61-.38,1.22-.75,1.84-1.1.38-.22.75-.44,1.14-.65l0,0,1.38-.75.43-.22.44-.23.78-.39.4-.19.82-.4c.81-.38,1.63-.75,2.45-1.11h0c.22-.09.43-.19.65-.27l1.36-.56L72,36.62l1.31-.47,1.32-.45.19-.06.15,0,.35-.11.71-.22c.22-.08.45-.14.67-.21,1-.31,2.06-.58,3.11-.84l.48-.12.15,0,.83-.19c.28-.07.55-.13.83-.18.56-.12,1.12-.24,1.68-.34l1-.18,1-.17L87,32.8l.17,0,.46-.06c.71-.1,1.42-.18,2.13-.26l.66-.06c1-.1,2-.18,3.07-.23l1,0,.72,0,1,0h2.49l1,0,.72,0,1,0c1,.05,2,.13,3.07.23l.66.06c.71.08,1.42.16,2.13.26l.46.06.17,0,1.3.19,1,.17,1,.18c.56.1,1.12.22,1.68.34.28,0,.55.11.83.18l.83.19.16,0,.47.12c.53.13,1,.26,1.56.41s1,.28,1.55.43c.22.07.45.13.67.21l.72.22.69.22,1.14.39c1.38.48,2.74,1,4.08,1.56l.65.27h0l.93.41.92.42c.61.28,1.22.57,1.82.87l.79.39.86.45c.57.3,1.12.61,1.68.92l1.29.74,1.28.77.82.52.83.53.82.54.79.55.87.61.74.53.79.59c.26.2.52.39.78.6l.77.6.77.62.76.63c.24.22.5.43.75.64l1.06.94.16.15,1,.9.72.69c1,.91,1.88,1.86,2.78,2.83.23.25.46.49.68.74s.6.67.89,1h0a73,73,0,0,1-55,94.08Zm2.33,26.83-.93,0H96.45l-1,0A72.88,72.88,0,0,1,24.43,105c0-.55,0-1.09,0-1.63s0-1.08.05-1.63v0l.09-1.58a.07.07,0,0,1,0-.05c0-.42.06-.84.09-1.26,0-.17,0-.34,0-.52,0-.38.07-.77.11-1.15,0-.21,0-.42.07-.63l0-.23c.1-.85.22-1.69.35-2.54.05-.34.11-.67.17-1,.1-.6.21-1.2.33-1.79,0-.23.08-.45.13-.67s.15-.72.23-1.08c.15-.71.32-1.4.5-2.1.1-.4.2-.82.32-1.22a1.05,1.05,0,0,1,.05-.19c.13-.47.26-.94.4-1.41s.22-.75.34-1.12c.06-.2.12-.38.18-.57a3.38,3.38,0,0,0,.11-.34l.3-.9c.21-.6.43-1.21.65-1.81l.51-1.33h0c.19-.48.39-1,.59-1.43l.09-.24.57-1.28c.15-.34.3-.68.46-1s.2-.42.29-.63c.26-.54.52-1.06.79-1.59,0-.1.1-.2.16-.3a.17.17,0,0,1,0,0l-.06.61c0,.34-.06.7-.09,1s-.07.88-.09,1.32c0,.12,0,.23,0,.34,0,.48,0,1-.07,1.42s0,.82,0,1.24v.14c0,.15,0,.3,0,.46,0,.47,0,.94,0,1.41a79.7,79.7,0,0,0,64.67,78.25l.63.12h0a79.68,79.68,0,0,0,74.9-26.61l.42-.5c.94-1.11,1.83-2.24,2.7-3.39A85.81,85.81,0,0,1,99.25,177.94Z"/><path class="cls-1" d="M12.41,221.36a8.3,8.3,0,0,0,1.51-1.25,9.61,9.61,0,0,0,1.14-1.48l-1.46-1.07c-.31.43-.62.83-.95,1.22a8.46,8.46,0,0,1-1.06,1,5.14,5.14,0,0,1-1.22.7,3.84,3.84,0,0,1-1.41.26,5,5,0,0,1-1.88-.37,4.76,4.76,0,0,1-1.61-1.1,5.43,5.43,0,0,1-1.13-1.78A6.69,6.69,0,0,1,3.92,215a7,7,0,0,1,.4-2.47,5.33,5.33,0,0,1,1.08-1.8A4.45,4.45,0,0,1,7,209.68a4.86,4.86,0,0,1,1.89-.37,4.06,4.06,0,0,1,1.39.24,5.76,5.76,0,0,1,1.27.68,7.64,7.64,0,0,1,1.13,1,11.39,11.39,0,0,1,1,1.2l1.5-1A8.77,8.77,0,0,0,14,209.85a7.41,7.41,0,0,0-1.51-1.22,6.8,6.8,0,0,0-1.88-.81,8.55,8.55,0,0,0-2.27-.29,9.88,9.88,0,0,0-3.39.56,7.7,7.7,0,0,0-2.62,1.56A6.85,6.85,0,0,0,.6,212a7.49,7.49,0,0,0-.6,3,7.19,7.19,0,0,0,.64,3.08,7.13,7.13,0,0,0,1.76,2.37A8,8,0,0,0,5.09,222a10.56,10.56,0,0,0,3.41.53,6.52,6.52,0,0,0,2.08-.33A8.32,8.32,0,0,0,12.41,221.36Z"/><path class="cls-1" d="M37.45,209.64a8,8,0,0,0-2.61-1.52,9.76,9.76,0,0,0-6.46,0,8,8,0,0,0-2.6,1.52,6.92,6.92,0,0,0-2.36,5.3,7.35,7.35,0,0,0,.63,3.06,7.45,7.45,0,0,0,1.73,2.41,8.13,8.13,0,0,0,2.6,1.58,9.21,9.21,0,0,0,3.23.56,9.48,9.48,0,0,0,3.23-.54,7.93,7.93,0,0,0,2.61-1.55A7.07,7.07,0,0,0,39.19,218a7.56,7.56,0,0,0,.63-3.12,6.88,6.88,0,0,0-2.37-5.28Zm-1.83,7.86a6.37,6.37,0,0,1-.81,2,4.15,4.15,0,0,1-1.34,1.33,3.78,3.78,0,0,1-3.72,0,4.15,4.15,0,0,1-1.34-1.33,6.37,6.37,0,0,1-.81-2,10.92,10.92,0,0,1-.28-2.56,10.15,10.15,0,0,1,.28-2.49,6.09,6.09,0,0,1,.81-1.94,4.05,4.05,0,0,1,1.34-1.27,4.07,4.07,0,0,1,3.72,0,4.05,4.05,0,0,1,1.34,1.27,6.09,6.09,0,0,1,.81,1.94,10.15,10.15,0,0,1,.28,2.49A10.92,10.92,0,0,1,35.62,217.5Z"/><polygon class="cls-1" points="65.43 222.22 65.43 207.88 62.06 207.88 57.17 217.68 52.2 207.88 48.78 207.88 48.78 222.22 51.01 222.22 51.01 212.77 55.85 222.22 57.22 222.22 61.9 212.88 61.9 222.22 65.43 222.22"/><polygon class="cls-1" points="91.78 222.22 91.78 207.88 88.41 207.88 83.52 217.68 78.55 207.88 75.13 207.88 75.13 222.22 77.35 222.22 77.35 212.77 82.2 222.22 83.56 222.22 88.25 212.88 88.25 222.22 91.78 222.22"/><path class="cls-1" d="M112.37,217.09a4.7,4.7,0,0,1-.26,1.57,3.88,3.88,0,0,1-.73,1.27,3.45,3.45,0,0,1-1.16.86,3.58,3.58,0,0,1-1.53.32,3.64,3.64,0,0,1-1.53-.32,3.49,3.49,0,0,1-1.17-.86,3.71,3.71,0,0,1-.73-1.27,4.7,4.7,0,0,1-.26-1.57v-9.21h-3.53v9.18a5.42,5.42,0,0,0,.42,2.12,4.73,4.73,0,0,0,1.23,1.75,5.89,5.89,0,0,0,2,1.19,8.08,8.08,0,0,0,2.78.43,9.34,9.34,0,0,0,3-.43,5.64,5.64,0,0,0,2.07-1.19,4.64,4.64,0,0,0,1.18-1.74,5.68,5.68,0,0,0,.39-2.1v-9.21h-2.23Z"/><polygon class="cls-1" points="134.73 217 126.54 207.88 124.29 207.88 124.29 222.22 126.52 222.22 126.52 212.36 135.41 222.45 136.94 222.45 136.94 207.88 134.73 207.88 134.73 217"/><rect class="cls-1" x="146.8" y="207.88" width="3.51" height="14.34"/><polygon class="cls-1" points="159.18 209.1 164.13 209.1 164.13 222.22 167.66 222.22 167.66 209.1 172.62 209.1 172.62 207.88 159.18 207.88 159.18 209.1"/><polygon class="cls-1" points="187.99 214.34 183.26 207.88 179.57 207.88 185.66 216.22 185.66 222.22 189.18 222.22 189.18 216.01 194.78 207.88 192.4 207.88 187.99 214.34"/><polygon class="cls-1" points="2.72 230.98 0.9 228.32 0 228.32 2.1 231.38 2.1 233.56 2.98 233.56 2.98 231.3 5.01 228.32 4.54 228.32 2.72 230.98"/><path class="cls-1" d="M14.52,229a2.88,2.88,0,0,0-.92-.58,3.17,3.17,0,0,0-2.27,0,2.88,2.88,0,0,0-.92.58,2.57,2.57,0,0,0-.84,1.92,2.8,2.8,0,0,0,1.76,2.56,3,3,0,0,0,2.27,0A2.89,2.89,0,0,0,15.14,232a2.61,2.61,0,0,0,.22-1.08,2.52,2.52,0,0,0-.22-1.06A2.67,2.67,0,0,0,14.52,229Zm-.32,2.93a2.3,2.3,0,0,1-.36.79,1.63,1.63,0,0,1-.58.53,1.67,1.67,0,0,1-.79.18,1.73,1.73,0,0,1-.81-.18,1.63,1.63,0,0,1-.58-.53,2.3,2.3,0,0,1-.36-.79,4.05,4.05,0,0,1-.12-1,3.84,3.84,0,0,1,.12-1,2.33,2.33,0,0,1,.36-.78,1.65,1.65,0,0,1,.58-.5,1.73,1.73,0,0,1,.81-.18,1.67,1.67,0,0,1,.79.18,1.65,1.65,0,0,1,.58.5,2.33,2.33,0,0,1,.36.78,3.84,3.84,0,0,1,.12,1A4.05,4.05,0,0,1,14.2,231.92Z"/><path class="cls-1" d="M24.9,231.72a1.61,1.61,0,0,1-.11.63,1.46,1.46,0,0,1-.32.52,1.54,1.54,0,0,1-.51.35,1.65,1.65,0,0,1-.68.13,1.68,1.68,0,0,1-.68-.13,1.54,1.54,0,0,1-.51-.35,1.65,1.65,0,0,1-.33-.52,1.61,1.61,0,0,1-.12-.63v-3.4h-.88v3.38a2,2,0,0,0,.15.77,1.79,1.79,0,0,0,.42.63,2.06,2.06,0,0,0,.7.43,2.61,2.61,0,0,0,1,.16,3,3,0,0,0,1.05-.16,1.84,1.84,0,0,0,.71-.42,1.64,1.64,0,0,0,.41-.63,2.09,2.09,0,0,0,.13-.76v-3.4H24.9Z"/><path class="cls-1" d="M33.88,230.83a2.17,2.17,0,0,0,.41-.3,1.48,1.48,0,0,0,.26-.39,1.14,1.14,0,0,0,.09-.46,1.22,1.22,0,0,0-.12-.54,1.17,1.17,0,0,0-.36-.44,1.9,1.9,0,0,0-.59-.28,3,3,0,0,0-.83-.1H30.92v5.24h.88V231.1h.62l1.82,2.46h1L33.36,231A2.66,2.66,0,0,0,33.88,230.83Zm-1-.07a1.92,1.92,0,0,1-.55.08H31.8v-2.19h.78a1.23,1.23,0,0,1,.44.07,1.11,1.11,0,0,1,.36.23,1,1,0,0,1,.22.33,1,1,0,0,1,.09.44,1,1,0,0,1-.11.46,1,1,0,0,1-.28.35A1.23,1.23,0,0,1,32.86,230.76Z"/><polygon class="cls-1" points="45.83 228.66 47.73 228.66 47.73 233.56 48.62 233.56 48.62 228.66 50.51 228.66 50.51 228.32 45.83 228.32 45.83 228.66"/><path class="cls-1" d="M57.07,228.2l-2.53,5.36H55l.83-1.74h2.25l.8,1.74h.9l-2.47-5.36ZM56,231.48l1-2.08,1,2.08Z"/><path class="cls-1" d="M67.89,231.19h1V233a1.58,1.58,0,0,1-.5.26,2,2,0,0,1-.62.1,2.39,2.39,0,0,1-.89-.17,2.14,2.14,0,0,1-.72-.49,2.06,2.06,0,0,1-.48-.75,2.66,2.66,0,0,1-.18-1,3.13,3.13,0,0,1,.16-1,2.2,2.2,0,0,1,.46-.75,1.87,1.87,0,0,1,.69-.48,2.13,2.13,0,0,1,.88-.17,1.51,1.51,0,0,1,.93.29,2.81,2.81,0,0,1,.74.93l.38-.25a3.64,3.64,0,0,0-.39-.51,2.77,2.77,0,0,0-.52-.43,3.14,3.14,0,0,0-.64-.3,2.76,2.76,0,0,0-.77-.11,3.09,3.09,0,0,0-1.2.23,2.84,2.84,0,0,0-.93.61,2.65,2.65,0,0,0-.6.88,2.58,2.58,0,0,0-.22,1.06,2.51,2.51,0,0,0,.23,1.05,2.78,2.78,0,0,0,.62.86,3.25,3.25,0,0,0,2.16.8,5.44,5.44,0,0,0,.73,0,4.77,4.77,0,0,0,.6-.09l.5-.16a5,5,0,0,0,.47-.22v-2.31H67.89Z"/><polygon class="cls-1" points="76.28 228.32 75.39 228.32 75.39 233.56 78.92 233.56 78.92 233.22 76.28 233.22 76.28 228.32"/><rect class="cls-1" x="84.06" y="228.32" width="0.88" height="5.25"/><polygon class="cls-1" points="94.63 232.15 94.59 232.15 91.16 228.32 90.66 228.32 90.66 233.56 91.06 233.56 91.06 229.42 91.09 229.42 94.81 233.69 95.02 233.69 95.02 228.32 94.63 228.32 94.63 232.15"/><polygon class="cls-1" points="100.74 233.56 104.39 233.56 104.39 233.22 101.62 233.22 101.62 230.87 103.47 230.87 103.47 230.53 101.62 230.53 101.62 228.66 104.39 228.66 104.39 228.32 100.74 228.32 100.74 233.56"/><path class="cls-1" d="M119.65,231.19h1V233a1.83,1.83,0,0,1-.5.26,2,2,0,0,1-.62.1,2.44,2.44,0,0,1-.9-.17,2.36,2.36,0,0,1-.72-.49,2.2,2.2,0,0,1-.48-.75,2.66,2.66,0,0,1-.17-1,2.87,2.87,0,0,1,.16-1,2.34,2.34,0,0,1,.45-.75,1.87,1.87,0,0,1,.69-.48,2.13,2.13,0,0,1,.88-.17,1.51,1.51,0,0,1,.93.29,2.69,2.69,0,0,1,.74.93l.38-.25a3.64,3.64,0,0,0-.39-.51,3.05,3.05,0,0,0-.51-.43,3.23,3.23,0,0,0-.65-.3,2.7,2.7,0,0,0-.77-.11,3.13,3.13,0,0,0-1.2.23,2.84,2.84,0,0,0-.93.61,2.65,2.65,0,0,0-.6.88,2.58,2.58,0,0,0-.22,1.06,2.51,2.51,0,0,0,.23,1.05,2.66,2.66,0,0,0,.63.86,2.92,2.92,0,0,0,1,.58,3.16,3.16,0,0,0,1.2.22,5.6,5.6,0,0,0,.74,0,3.55,3.55,0,0,0,1.09-.25,5,5,0,0,0,.47-.22v-2.31h-1.87Z"/><path class="cls-1" d="M131.87,229a2.88,2.88,0,0,0-.92-.58,3.17,3.17,0,0,0-2.27,0,2.88,2.88,0,0,0-.92.58,2.67,2.67,0,0,0-.62.86,2.52,2.52,0,0,0-.22,1.06,2.61,2.61,0,0,0,.22,1.08,2.89,2.89,0,0,0,1.54,1.48,3,3,0,0,0,2.27,0,2.77,2.77,0,0,0,.92-.6,2.58,2.58,0,0,0,.61-.88,2.62,2.62,0,0,0,.23-1.08,2.67,2.67,0,0,0-.84-1.92Zm-.32,2.93a2.3,2.3,0,0,1-.36.79,1.72,1.72,0,0,1-.58.53,1.69,1.69,0,0,1-.8.18,1.71,1.71,0,0,1-.8-.18,1.66,1.66,0,0,1-.59-.53,2.49,2.49,0,0,1-.35-.79,4.05,4.05,0,0,1-.12-1,3.84,3.84,0,0,1,.12-1,2.54,2.54,0,0,1,.35-.78,1.68,1.68,0,0,1,.59-.5,1.71,1.71,0,0,1,.8-.18,1.69,1.69,0,0,1,.8.18,1.74,1.74,0,0,1,.58.5,2.33,2.33,0,0,1,.36.78,3.84,3.84,0,0,1,.12,1A4.05,4.05,0,0,1,131.55,231.92Z"/><polygon class="cls-1" points="138.2 233.56 141.85 233.56 141.85 233.22 139.08 233.22 139.08 230.87 140.94 230.87 140.94 230.53 139.08 230.53 139.08 228.66 141.85 228.66 141.85 228.32 138.2 228.32 138.2 233.56"/><path class="cls-1" d="M150,231.27a3.72,3.72,0,0,0-.48-.35l-.54-.3-.55-.29c-.17-.1-.33-.2-.47-.3a1.75,1.75,0,0,1-.34-.32.66.66,0,0,1-.12-.38.75.75,0,0,1,.06-.29.72.72,0,0,1,.18-.25,1.33,1.33,0,0,1,.31-.18,1.2,1.2,0,0,1,.44-.07,1.28,1.28,0,0,1,.89.3,1.67,1.67,0,0,1,.5.78l.45-.2a1.79,1.79,0,0,0-.62-.91,2,2,0,0,0-1.18-.31,2.29,2.29,0,0,0-.73.11,1.74,1.74,0,0,0-.54.29,1.45,1.45,0,0,0-.33.45,1.42,1.42,0,0,0-.11.55,1.19,1.19,0,0,0,.12.54,1.61,1.61,0,0,0,.33.42,2.71,2.71,0,0,0,.46.33c.17.11.35.2.53.3l.53.27a3,3,0,0,1,.46.3,1.46,1.46,0,0,1,.32.34.8.8,0,0,1,.13.43.6.6,0,0,1-.1.35.83.83,0,0,1-.23.26,1.33,1.33,0,0,1-.34.16,1.31,1.31,0,0,1-.39,0,1.48,1.48,0,0,1-.9-.28,1.7,1.7,0,0,1-.55-.81l-.47.2a1.9,1.9,0,0,0,.66.9,2,2,0,0,0,1.2.33,2.57,2.57,0,0,0,.82-.12,2,2,0,0,0,.59-.32,1.4,1.4,0,0,0,.47-1.07,1,1,0,0,0-.13-.5A1.42,1.42,0,0,0,150,231.27Z"/><polygon class="cls-1" points="166.08 230.71 163.44 230.71 163.44 228.32 162.56 228.32 162.56 233.56 163.44 233.56 163.44 231.05 166.08 231.05 166.08 233.56 166.96 233.56 166.96 228.32 166.08 228.32 166.08 230.71"/><polygon class="cls-1" points="172.68 233.56 176.33 233.56 176.33 233.22 173.57 233.22 173.57 230.87 175.42 230.87 175.42 230.53 173.57 230.53 173.57 228.66 176.33 228.66 176.33 228.32 172.68 228.32 172.68 233.56"/><path class="cls-1" d="M184.68,230.83a2.09,2.09,0,0,0,.4-.3,1.11,1.11,0,0,0,.26-.39,1.15,1.15,0,0,0,.1-.46,1.23,1.23,0,0,0-.13-.54,1.24,1.24,0,0,0-.35-.44,1.86,1.86,0,0,0-.6-.28,2.88,2.88,0,0,0-.82-.1h-1.82v5.24h.88V231.1h.62l1.82,2.46h1L184.15,231A2.76,2.76,0,0,0,184.68,230.83Zm-1-.07a1.92,1.92,0,0,1-.55.08h-.51v-2.19h.77a1.29,1.29,0,0,1,.45.07,1.07,1.07,0,0,1,.35.23.86.86,0,0,1,.23.33,1,1,0,0,1,.08.44,1,1,0,0,1-.1.46,1,1,0,0,1-.28.35A1.32,1.32,0,0,1,183.66,230.76Z"/><polygon class="cls-1" points="191.13 233.56 194.78 233.56 194.78 233.22 192.01 233.22 192.01 230.87 193.86 230.87 193.86 230.53 192.01 230.53 192.01 228.66 194.78 228.66 194.78 228.32 191.13 228.32 191.13 233.56"/></g></g></svg>