<svg xmlns="http://www.w3.org/2000/svg" xmlns:xlink="http://www.w3.org/1999/xlink" viewBox="0 0 414.32 188.03"><defs><style>.cls-1{fill:url(#linear-gradient);}.cls-2,.cls-3{fill:#fff;}.cls-3{font-size:66.54px;font-family:Montserrat-Bold, Montserrat;font-weight:700;letter-spacing:-0.03em;}.cls-4{letter-spacing:0em;}</style><linearGradient id="linear-gradient" x1="196.14" y1="41.24" x2="247.51" y2="41.24" gradientUnits="userSpaceOnUse"><stop offset="0" stop-color="#7ac943"/><stop offset="0.19" stop-color="#89cc4e"/><stop offset="0.72" stop-color="#b0d36b"/><stop offset="1" stop-color="#bfd676"/></linearGradient></defs><title>logo_bottum</title><g id="Layer_2" data-name="Layer 2"><g id="Layer_2-2" data-name="Layer 2"><path class="cls-1" d="M214.38,48.76,199.25,63.88a10.63,10.63,0,0,0,0,15h0a10.62,10.62,0,0,0,15,0l30.12-30.22a10.62,10.62,0,0,0,0-15L214.29,3.56a10.62,10.62,0,0,0-15,0l0,0a10.62,10.62,0,0,0,0,15l15.13,15.13A10.63,10.63,0,0,1,214.38,48.76Z"/><path class="cls-2" d="M185.05,48.31,169.93,63.43a10.63,10.63,0,0,0,0,15h0a10.63,10.63,0,0,0,15,0l30.11-30.22a10.62,10.62,0,0,0,0-15L185,3.11a10.62,10.62,0,0,0-15,0h0a10.63,10.63,0,0,0,0,15l15.12,15.13A10.63,10.63,0,0,1,185.05,48.31Z"/><text class="cls-3" transform="translate(0.93 170.33)">Y<tspan class="cls-4" x="42.98" y="0">OURNAME</tspan></text></g></g></svg>