<svg xmlns="http://www.w3.org/2000/svg" viewBox="0 0 194.78 237.1"><defs><style>.cls-1{fill:#fff;}</style></defs><title>logo_partner_4</title><g id="Layer_2" data-name="Layer 2"><g id="Layer_2-2" data-name="Layer 2"><path class="cls-1" d="M35.11,230.88a1.33,1.33,0,0,0-.47-.29,1.57,1.57,0,0,0-.58-.1H33v2.87h.67a2.72,2.72,0,0,0,.72-.1A1.72,1.72,0,0,0,35,233a1.3,1.3,0,0,0,.38-.46,1.33,1.33,0,0,0,.13-.61,1.48,1.48,0,0,0-.1-.57A1.55,1.55,0,0,0,35.11,230.88Z"/><polygon class="cls-1" points="56.06 234.2 58.6 234.2 57.34 231.47 56.06 234.2"/><path class="cls-1" d="M131.61,231.14a2.27,2.27,0,0,0-.76-.66,2.42,2.42,0,0,0-2.1,0,2,2,0,0,0-.77.66,3,3,0,0,0-.47,1,5.25,5.25,0,0,0-.15,1.29,5.58,5.58,0,0,0,.15,1.33,3.3,3.3,0,0,0,.47,1,2.3,2.3,0,0,0,2.87.69,2.49,2.49,0,0,0,.76-.69,3.3,3.3,0,0,0,.47-1,5.1,5.1,0,0,0,.16-1.33,4.8,4.8,0,0,0-.16-1.29A3,3,0,0,0,131.61,231.14Z"/><path class="cls-1" d="M11.64,235.82a2.14,2.14,0,0,0,1.82.93,2.05,2.05,0,0,0,1-.25,2.27,2.27,0,0,0,.77-.68,3.43,3.43,0,0,0,.47-1,5.56,5.56,0,0,0,.15-1.32,5.27,5.27,0,0,0-.15-1.3,3.2,3.2,0,0,0-.47-1,2.11,2.11,0,0,0-.77-.66,2.16,2.16,0,0,0-1-.24,2.27,2.27,0,0,0-1.06.24,2,2,0,0,0-.76.66,3,3,0,0,0-.47,1,5.27,5.27,0,0,0-.15,1.3,5.56,5.56,0,0,0,.15,1.32A3.2,3.2,0,0,0,11.64,235.82Z"/><path class="cls-1" d="M40.65,74.75l.35.79,5,11.29a5.07,5.07,0,0,1,0,4.06l-5,11.3,2.28.88,5.49,2.1L53.58,107h0l4.75-10.64a18.45,18.45,0,0,0,0-15L53.58,70.71l-4.5-10.07L40.82,42.09a7.25,7.25,0,0,1,1.53-8.27,7.13,7.13,0,0,1,8.26-1.53l18.56,8.27,3.94-10.3L74,28,56.11,20a21,21,0,0,0-8.56-1.83,20.9,20.9,0,0,0-19,29.4l8,17.89h0Z"/><path class="cls-1" d="M91.26,142a15.08,15.08,0,0,1,12.25,0l7.2,3.22.87-2.28,4-10.31L109,129.75a28.37,28.37,0,0,0-23.2,0l-6.55,2.91-10.08,4.5-18.55,8.28a7.45,7.45,0,0,1-3.08.69,7.56,7.56,0,0,1-5.19-2.23,7.26,7.26,0,0,1-1.52-8.27l8.27-18.56-10.31-3.93-2.27-.87-8,17.88a20.85,20.85,0,0,0,27.57,27.57l17.89-8,10.09-4.51Z"/><path class="cls-1" d="M103.5,35.69a15.06,15.06,0,0,1-12.24,0l-7.19-3.21-.88,2.28-3.94,10.3L85.79,48A28.47,28.47,0,0,0,109,48l6.54-2.92,10.08-4.5,18.54-8.27a7.16,7.16,0,0,1,8.28,1.53A7.25,7.25,0,0,1,154,42.09l-8.28,18.55,7.54,2.89L156,64.59l2.27.87h0l8-17.89a20.9,20.9,0,0,0-19-29.4A21,21,0,0,0,138.67,20l-17.88,8-10.08,4.5Z"/><path class="cls-1" d="M125.61,137.16l.88-2.28.86-2.28,1-2.68a17.42,17.42,0,0,1,10.05-10.06l2.69-1L136.75,109l-.11-.24-2.13.82A28.5,28.5,0,0,0,118.09,126l-.81,2.15-.88,2.28-.87,2.26-4,10.31-.87,2.28-.88,2.27-5.51,14.41a7.43,7.43,0,0,1-13.87,0l-5.52-14.41-.86-2.28L74,149.75l.87,2.27,5.31,13.86a18.45,18.45,0,0,0,34.45,0L119.92,152l.87-2.27.87-2.28Z"/><path class="cls-1" d="M69.17,40.56l-.88,2.28-.87,2.28-1,2.69a17.41,17.41,0,0,1-10,10l-2.7,1L58,68.74l.11.23,2.14-.82a28.44,28.44,0,0,0,16.4-16.4l.83-2.14.87-2.27.88-2.28,3.94-10.3.88-2.28.86-2.28,5.52-14.4a7.42,7.42,0,0,1,13.87,0l5.52,14.4.87,2.28L120.79,28l-.87-2.27-5.31-13.87a18.45,18.45,0,0,0-34.45,0L74.85,25.71,74,28l-.88,2.28Z"/><path class="cls-1" d="M20.38,106.08l13.85,5.31,2.28.88,2.27.87,10.31,3.93,2.28.89,2.27.88,6.87,2.62a7.45,7.45,0,0,1,4.29,4.28l2.62,6.86,9.84-4.38.24-.1-2.43-6.33a18.44,18.44,0,0,0-10.61-10.62l-6.33-2.42-2.27-.88L53.58,107h0l-4.81-1.84-5.49-2.1-4.56-1.75L24.31,95.79a7.42,7.42,0,0,1,0-13.85l14.41-5.53L41,75.54l-.35-.79L36.5,65.46h0l-2.27.87L20.38,71.64a18.44,18.44,0,0,0,0,34.44Z"/><path class="cls-1" d="M156,64.59l-2.77-1.06-7.54-2.88-4.56-1.76-6.86-2.63A7.43,7.43,0,0,1,130,52l-2.63-6.86-9.84,4.38-.23.11,2.42,6.32a18.42,18.42,0,0,0,10.62,10.63L136.64,69l2.27.88,2.27.86,10.31,3.94,2.28.88,2.28.87,14.41,5.53a7.41,7.41,0,0,1,0,13.85l-14.4,5.53-2.28.87,4.48,10.07,2.28-.87,13.86-5.31a18.44,18.44,0,0,0,0-34.44l-13.86-5.31-2.27-.87h0Z"/><path class="cls-1" d="M8.23,222.41A7.7,7.7,0,0,0,13,221a7.93,7.93,0,0,0,2.7-4.39l-3.53-1.12a5.43,5.43,0,0,1-1.51,2.91,3.66,3.66,0,0,1-2.5.92A4,4,0,0,1,5,217.84Q3.76,216.39,3.76,213c0-2.15.41-3.71,1.25-4.67a4.11,4.11,0,0,1,3.26-1.44,3.71,3.71,0,0,1,3.8,3l3.61-.86a7.1,7.1,0,0,0-1.84-3.33,7.51,7.51,0,0,0-5.39-2,8,8,0,0,0-6.12,2.49,9.9,9.9,0,0,0-2.33,7A9.38,9.38,0,0,0,2.32,220,7.75,7.75,0,0,0,8.23,222.41Z"/><path class="cls-1" d="M31.9,203.73a10,10,0,0,0-3.89.71,7.1,7.1,0,0,0-2.33,1.63A8.53,8.53,0,0,0,24,208.55a11.49,11.49,0,0,0-.82,4.63A9.32,9.32,0,0,0,25.55,220a8.48,8.48,0,0,0,6.4,2.46,8.43,8.43,0,0,0,6.36-2.47,11.05,11.05,0,0,0,0-13.73A8.5,8.5,0,0,0,31.9,203.73Zm3.62,14a4.57,4.57,0,0,1-3.58,1.57,4.65,4.65,0,0,1-3.6-1.58,8.48,8.48,0,0,1,0-9.32,4.63,4.63,0,0,1,3.63-1.54,4.64,4.64,0,0,1,3.62,1.52,8.61,8.61,0,0,1,0,9.35Z"/><polygon class="cls-1" points="57.27 216.36 53.99 204.04 48.53 204.04 48.53 222.1 51.92 222.1 51.92 207.88 55.49 222.1 59 222.1 62.59 207.88 62.59 222.1 65.98 222.1 65.98 204.04 60.51 204.04 57.27 216.36"/><polygon class="cls-1" points="92.04 222.1 92.04 204.04 86.57 204.04 83.33 216.36 80.05 204.04 74.59 204.04 74.59 222.1 77.98 222.1 77.98 207.88 81.56 222.1 85.07 222.1 88.65 207.88 88.65 222.1 92.04 222.1"/><path class="cls-1" d="M100.68,204v9.63a21.89,21.89,0,0,0,.36,4.59,5.08,5.08,0,0,0,1,2,5.67,5.67,0,0,0,2.12,1.55,9.92,9.92,0,0,0,3.92.6,9.3,9.3,0,0,0,3.47-.55,5.62,5.62,0,0,0,2.13-1.47,5.17,5.17,0,0,0,1.09-2.27,24.11,24.11,0,0,0,.3-4.6V204h-3.65v10a21.36,21.36,0,0,1-.16,3.07,2.59,2.59,0,0,1-1,1.56,3.71,3.71,0,0,1-2.34.63,3.88,3.88,0,0,1-2.41-.67,2.88,2.88,0,0,1-1.11-1.78,18.83,18.83,0,0,1-.14-3V204Z"/><polygon class="cls-1" points="134.95 216.1 127.56 204.04 124.01 204.04 124.01 222.1 127.4 222.1 127.4 210.32 134.68 222.1 138.34 222.1 138.34 204.04 134.95 204.04 134.95 216.1"/><rect class="cls-1" x="147.13" y="204.04" width="3.65" height="18.06"/><polygon class="cls-1" points="158 207.09 163.36 207.09 163.36 222.1 167.01 222.1 167.01 207.09 172.36 207.09 172.36 204.04 158 204.04 158 207.09"/><polygon class="cls-1" points="177.88 204.04 184.5 214.5 184.5 222.1 188.13 222.1 188.13 214.52 194.78 204.04 190.57 204.04 186.41 211.18 182.16 204.04 177.88 204.04"/><polygon class="cls-1" points="2.75 236.94 3.91 236.94 3.91 233.96 6.58 230.06 5.95 230.06 3.57 233.54 1.19 230.06 0 230.06 2.75 234.07 2.75 236.94"/><path class="cls-1" d="M12,236.81a4,4,0,0,0,3,0,3.71,3.71,0,0,0,1.21-.78,3.59,3.59,0,0,0,.8-1.16,3.37,3.37,0,0,0,.3-1.41,3.24,3.24,0,0,0-.3-1.39,3.37,3.37,0,0,0-.8-1.13,3.66,3.66,0,0,0-1.21-.76,4.1,4.1,0,0,0-3,0,3.66,3.66,0,0,0-1.21.76,3.37,3.37,0,0,0-.8,1.13,3.24,3.24,0,0,0-.3,1.39,3.37,3.37,0,0,0,.3,1.41,3.59,3.59,0,0,0,.8,1.16A3.71,3.71,0,0,0,12,236.81Zm-.8-4.65a3,3,0,0,1,.47-1,2,2,0,0,1,.76-.66,2.27,2.27,0,0,1,1.06-.24,2.16,2.16,0,0,1,1,.24,2.11,2.11,0,0,1,.77.66,3.2,3.2,0,0,1,.47,1,5.27,5.27,0,0,1,.15,1.3,5.56,5.56,0,0,1-.15,1.32,3.43,3.43,0,0,1-.47,1,2.27,2.27,0,0,1-.77.68,2.05,2.05,0,0,1-1,.25,2.14,2.14,0,0,1-1.82-.93,3.2,3.2,0,0,1-.47-1,5.56,5.56,0,0,1-.15-1.32A5.27,5.27,0,0,1,11.17,232.16Z"/><path class="cls-1" d="M21.45,230.06v4.43a2.79,2.79,0,0,0,.19,1,2.48,2.48,0,0,0,.56.83,2.58,2.58,0,0,0,.92.56,3.47,3.47,0,0,0,1.26.21,4,4,0,0,0,1.37-.21,2.5,2.5,0,0,0,.93-.55,2.21,2.21,0,0,0,.54-.82,2.77,2.77,0,0,0,.17-1v-4.46h-.51v4.46a2.3,2.3,0,0,1-.14.83,1.88,1.88,0,0,1-.43.67,1.78,1.78,0,0,1-.67.46,2.39,2.39,0,0,1-1.77,0,1.9,1.9,0,0,1-.68-.46,1.88,1.88,0,0,1-.43-.67,2.31,2.31,0,0,1-.15-.83v-4.46Z"/><path class="cls-1" d="M36.3,233a1.69,1.69,0,0,0,.34-.51,1.5,1.5,0,0,0,.12-.6,1.58,1.58,0,0,0-.16-.72,1.5,1.5,0,0,0-.47-.57,2.21,2.21,0,0,0-.77-.37,4,4,0,0,0-1.09-.13H31.88v6.88H33V233.7h.81l2.39,3.24h1.35l-2.51-3.34a3,3,0,0,0,.69-.26A2,2,0,0,0,36.3,233Zm-.92-.46A1.3,1.3,0,0,1,35,233a1.72,1.72,0,0,1-.57.3,2.72,2.72,0,0,1-.72.1H33v-2.87h1a1.57,1.57,0,0,1,.58.1,1.33,1.33,0,0,1,.47.29,1.55,1.55,0,0,1,.3.44,1.48,1.48,0,0,1,.1.57A1.33,1.33,0,0,1,35.38,232.5Z"/><polygon class="cls-1" points="45.67 230.5 48.16 230.5 48.16 236.94 49.31 236.94 49.31 230.5 51.8 230.5 51.8 230.06 45.67 230.06 45.67 230.5"/><path class="cls-1" d="M57.51,229.9l-3.32,7h.58l1.09-2.3h3l1,2.3H61l-3.24-7Zm-1.45,4.3,1.28-2.73,1.26,2.73Z"/><path class="cls-1" d="M66.47,231.25a2.61,2.61,0,0,1,.91-.63,2.93,2.93,0,0,1,1.16-.23,2,2,0,0,1,1.22.39,3.47,3.47,0,0,1,1,1.22l.5-.33a5.07,5.07,0,0,0-.5-.67,3.69,3.69,0,0,0-.68-.56,3.88,3.88,0,0,0-.85-.39,3.29,3.29,0,0,0-1-.15,4,4,0,0,0-1.57.3,3.64,3.64,0,0,0-1.22.8,3.57,3.57,0,0,0-.79,1.16,3.45,3.45,0,0,0-.28,1.39,3.21,3.21,0,0,0,.29,1.37,3.53,3.53,0,0,0,.82,1.13,3.85,3.85,0,0,0,1.25.76,4.31,4.31,0,0,0,1.58.29c.36,0,.68,0,1,0a7,7,0,0,0,.78-.13,5.13,5.13,0,0,0,.66-.21,4.85,4.85,0,0,0,.61-.29v-3H68.82v.41h1.3v2.41a2.2,2.2,0,0,1-.66.35,2.55,2.55,0,0,1-.81.12,3,3,0,0,1-1.17-.22,2.82,2.82,0,0,1-1-.63,2.89,2.89,0,0,1-.63-1,3.64,3.64,0,0,1-.23-1.31,3.83,3.83,0,0,1,.21-1.31A2.87,2.87,0,0,1,66.47,231.25Z"/><polygon class="cls-1" points="75.77 230.06 75.77 236.94 80.39 236.94 80.39 236.49 76.92 236.49 76.92 230.06 75.77 230.06"/><rect class="cls-1" x="84.24" y="230.06" width="1.16" height="6.88"/><polygon class="cls-1" points="95.73 230.06 95.22 230.06 95.22 235.09 95.17 235.09 90.66 230.06 90.01 230.06 90.01 236.94 90.53 236.94 90.53 231.5 90.58 231.5 95.46 237.1 95.73 237.1 95.73 230.06"/><polygon class="cls-1" points="100.34 236.94 105.12 236.94 105.12 236.49 101.5 236.49 101.5 233.41 103.92 233.41 103.92 232.96 101.5 232.96 101.5 230.5 105.12 230.5 105.12 230.06 100.34 230.06 100.34 236.94"/><path class="cls-1" d="M117,231.25a2.61,2.61,0,0,1,.91-.63,2.91,2.91,0,0,1,1.15-.23,2,2,0,0,1,1.22.39,3.37,3.37,0,0,1,1,1.22l.5-.33a4.4,4.4,0,0,0-.51-.67,3.32,3.32,0,0,0-.67-.56,3.88,3.88,0,0,0-.85-.39,3.29,3.29,0,0,0-1-.15,4,4,0,0,0-1.57.3,3.64,3.64,0,0,0-1.22.8,3.42,3.42,0,0,0-.79,1.16,3.46,3.46,0,0,0-.29,1.39,3.22,3.22,0,0,0,.3,1.37,3.53,3.53,0,0,0,.82,1.13,3.85,3.85,0,0,0,1.25.76,4.27,4.27,0,0,0,1.58.29c.36,0,.68,0,1,0a7,7,0,0,0,.78-.13,5.13,5.13,0,0,0,.66-.21,4.85,4.85,0,0,0,.61-.29v-3h-2.45v.41h1.29v2.41a2.14,2.14,0,0,1-.65.35,2.55,2.55,0,0,1-.81.12,3,3,0,0,1-1.17-.22,2.82,2.82,0,0,1-1-.63,2.89,2.89,0,0,1-.63-1,3.64,3.64,0,0,1-.23-1.31,3.83,3.83,0,0,1,.21-1.31A2.87,2.87,0,0,1,117,231.25Z"/><path class="cls-1" d="M133.3,234.87a3.38,3.38,0,0,0,.3-1.42,3.34,3.34,0,0,0-.3-1.39,3.29,3.29,0,0,0-.8-1.12,3.66,3.66,0,0,0-1.21-.76,3.8,3.8,0,0,0-1.49-.28,3.91,3.91,0,0,0-1.49.28,3.62,3.62,0,0,0-2,1.88,3.33,3.33,0,0,0-.29,1.39,3.37,3.37,0,0,0,.29,1.42,4.07,4.07,0,0,0,.8,1.16,3.82,3.82,0,0,0,1.21.78,3.74,3.74,0,0,0,1.49.29,3.64,3.64,0,0,0,1.49-.29,3.71,3.71,0,0,0,1.21-.78A3.55,3.55,0,0,0,133.3,234.87Zm-1.22-.09a3.3,3.3,0,0,1-.47,1,2.49,2.49,0,0,1-.76.69,2.21,2.21,0,0,1-2.87-.69,3.3,3.3,0,0,1-.47-1,5.58,5.58,0,0,1-.15-1.33,5.25,5.25,0,0,1,.15-1.29,3,3,0,0,1,.47-1,2,2,0,0,1,.77-.66,2.42,2.42,0,0,1,2.1,0,2.27,2.27,0,0,1,.76.66,3,3,0,0,1,.47,1,4.8,4.8,0,0,1,.16,1.29A5.1,5.1,0,0,1,132.08,234.78Z"/><polygon class="cls-1" points="137.91 236.94 142.7 236.94 142.7 236.49 139.07 236.49 139.07 233.41 141.5 233.41 141.5 232.96 139.07 232.96 139.07 230.5 142.7 230.5 142.7 230.06 137.91 230.06 137.91 236.94"/><path class="cls-1" d="M149.71,236.38a1.55,1.55,0,0,1-.45.21,1.73,1.73,0,0,1-.5.07,1.89,1.89,0,0,1-1.18-.38,2,2,0,0,1-.72-1.05l-.62.25a2.41,2.41,0,0,0,.86,1.19,2.63,2.63,0,0,0,1.57.43,3.23,3.23,0,0,0,1.08-.16,2.19,2.19,0,0,0,.77-.42,1.8,1.8,0,0,0,.47-.63,2,2,0,0,0,.15-.77,1.28,1.28,0,0,0-.16-.65,2.09,2.09,0,0,0-.45-.54,3.7,3.7,0,0,0-.62-.46c-.23-.14-.47-.27-.71-.4l-.71-.38a3.77,3.77,0,0,1-.63-.39,2,2,0,0,1-.44-.42.84.84,0,0,1-.17-.5,1,1,0,0,1,.08-.38,1.11,1.11,0,0,1,.25-.33,1.4,1.4,0,0,1,.4-.23,1.7,1.7,0,0,1,.57-.1,1.74,1.74,0,0,1,1.18.4,2.25,2.25,0,0,1,.65,1l.59-.27a2.28,2.28,0,0,0-.82-1.18,2.58,2.58,0,0,0-1.54-.41,3.13,3.13,0,0,0-1,.14,2.06,2.06,0,0,0-.7.39,1.66,1.66,0,0,0-.44.58,1.77,1.77,0,0,0-.15.73,1.42,1.42,0,0,0,.17.7,2.23,2.23,0,0,0,.42.55,3.57,3.57,0,0,0,.61.45l.69.38.7.36a4.43,4.43,0,0,1,.6.39,2,2,0,0,1,.43.45,1,1,0,0,1,.16.56.88.88,0,0,1-.12.46A1.13,1.13,0,0,1,149.71,236.38Z"/><polygon class="cls-1" points="166.96 236.94 166.96 230.06 165.81 230.06 165.81 233.19 162.35 233.19 162.35 230.06 161.19 230.06 161.19 236.94 162.35 236.94 162.35 233.63 165.81 233.63 165.81 236.94 166.96 236.94"/><polygon class="cls-1" points="176.37 230.5 176.37 230.06 171.58 230.06 171.58 236.94 176.37 236.94 176.37 236.49 172.74 236.49 172.74 233.41 175.16 233.41 175.16 232.96 172.74 232.96 172.74 230.5 176.37 230.5"/><path class="cls-1" d="M185,233a1.69,1.69,0,0,0,.34-.51,1.5,1.5,0,0,0,.12-.6,1.54,1.54,0,0,0-.62-1.29,2.35,2.35,0,0,0-.78-.37,3.92,3.92,0,0,0-1.09-.13h-2.38v6.88h1.16V233.7h.81l2.39,3.24h1.34l-2.5-3.34a3.09,3.09,0,0,0,.68-.26A1.89,1.89,0,0,0,185,233Z"/><path class="cls-1" d="M153.77,102.19l-5-11.3a5,5,0,0,1,0-4.06l5-11.29-2.28-.88-10.31-3.94-4.73,10.63a18.45,18.45,0,0,0,0,15L141.19,107l4.5,10.06L154,135.63a7.24,7.24,0,0,1-1.53,8.27,7.18,7.18,0,0,1-8.27,1.54l-18.55-8.28-4,10.31-.87,2.28,17.89,8a20.87,20.87,0,0,0,27.56-27.57l-8-17.89-4.48-10.07Z"/><polygon class="cls-1" points="194.78 230.5 194.78 230.06 189.99 230.06 189.99 236.94 194.78 236.94 194.78 236.49 191.15 236.49 191.15 233.41 193.58 233.41 193.58 232.96 191.15 232.96 191.15 230.5 194.78 230.5"/></g></g></svg>