<svg xmlns="http://www.w3.org/2000/svg" viewBox="0 0 194.77 209.22"><defs><style>.cls-1{fill:#fff;}</style></defs><title>logo_partner_3</title><g id="Layer_2" data-name="Layer 2"><g id="Layer_2-2" data-name="Layer 2"><polygon class="cls-1" points="19.36 78.39 31.3 78.39 31.3 11.94 57.52 11.94 57.52 0 19.36 0 19.36 78.39"/><polygon class="cls-1" points="175.41 138.13 163.47 138.13 163.47 144.11 118.47 144.11 118.47 156.05 175.41 156.05 175.41 138.13"/><polygon class="cls-1" points="113.22 132.88 113.22 120.94 113.22 83.64 74.72 83.64 74.72 95.58 101.28 95.58 101.28 120.94 101.28 132.88 101.28 144.11 31.3 144.11 31.3 95.58 62.78 95.58 62.78 83.64 19.36 83.64 19.36 156.05 113.22 156.05 113.22 132.88"/><polygon class="cls-1" points="62.78 132.88 101.28 132.88 101.28 120.94 74.72 120.94 74.72 95.58 74.72 83.64 74.72 11.94 163.47 11.94 163.47 120.94 113.22 120.94 113.22 132.88 163.47 132.88 175.41 132.88 175.41 0 62.78 0 62.78 83.64 62.78 95.58 62.78 132.88"/><path class="cls-1" d="M12.41,196.88a7.86,7.86,0,0,0,1.51-1.24,9.61,9.61,0,0,0,1.14-1.48l-1.46-1.07c-.31.42-.62.83-.95,1.21a7.89,7.89,0,0,1-1.06,1,5.14,5.14,0,0,1-1.22.7,3.9,3.9,0,0,1-1.42.26,4.85,4.85,0,0,1-1.87-.38,4.6,4.6,0,0,1-1.61-1.09A5.37,5.37,0,0,1,4.34,193a6.69,6.69,0,0,1-.42-2.47,7.05,7.05,0,0,1,.4-2.48A5.38,5.38,0,0,1,5.4,186.3,4.32,4.32,0,0,1,7,185.21a4.87,4.87,0,0,1,1.89-.38,4.07,4.07,0,0,1,1.39.25,5.37,5.37,0,0,1,1.27.68,8.17,8.17,0,0,1,1.13,1,11.51,11.51,0,0,1,1,1.21l1.5-1A8.43,8.43,0,0,0,14,185.38a7.81,7.81,0,0,0-1.51-1.23,7.25,7.25,0,0,0-1.88-.8,8.57,8.57,0,0,0-2.28-.29,9.86,9.86,0,0,0-3.38.56,7.85,7.85,0,0,0-2.62,1.55A7,7,0,0,0,.6,187.56a7.46,7.46,0,0,0-.6,3,7.15,7.15,0,0,0,.64,3.07A7.07,7.07,0,0,0,2.4,196a7.79,7.79,0,0,0,2.69,1.52,10.29,10.29,0,0,0,3.41.54,6.52,6.52,0,0,0,2.08-.33A8.11,8.11,0,0,0,12.41,196.88Z"/><path class="cls-1" d="M37.45,185.16a8.2,8.2,0,0,0-2.61-1.51,9.76,9.76,0,0,0-6.46,0,8.15,8.15,0,0,0-2.6,1.51,7,7,0,0,0-2.36,5.31,7.31,7.31,0,0,0,2.36,5.47,7.93,7.93,0,0,0,2.6,1.57,9,9,0,0,0,3.23.57,9.21,9.21,0,0,0,3.23-.55A7.91,7.91,0,0,0,37.45,196a7.17,7.17,0,0,0,1.74-2.42,7.56,7.56,0,0,0,.63-3.12,6.93,6.93,0,0,0-2.37-5.29ZM35.62,193a6.47,6.47,0,0,1-.81,2,4.15,4.15,0,0,1-1.34,1.33,3.84,3.84,0,0,1-3.72,0,4.15,4.15,0,0,1-1.34-1.33,6.47,6.47,0,0,1-.81-2,10.92,10.92,0,0,1-.28-2.56A10.15,10.15,0,0,1,27.6,188a6,6,0,0,1,.81-1.94,4.05,4.05,0,0,1,1.34-1.27,4.07,4.07,0,0,1,3.72,0A4.05,4.05,0,0,1,34.81,186a6,6,0,0,1,.81,1.94,10.15,10.15,0,0,1,.28,2.49A10.92,10.92,0,0,1,35.62,193Z"/><polygon class="cls-1" points="65.43 197.75 65.43 183.41 62.06 183.41 57.17 193.21 52.2 183.41 48.78 183.41 48.78 197.75 51 197.75 51 188.3 55.85 197.75 57.22 197.75 61.9 188.4 61.9 197.75 65.43 197.75"/><polygon class="cls-1" points="91.78 197.75 91.78 183.41 88.41 183.41 83.52 193.21 78.55 183.41 75.12 183.41 75.12 197.75 77.35 197.75 77.35 188.3 82.2 197.75 83.56 197.75 88.25 188.4 88.25 197.75 91.78 197.75"/><path class="cls-1" d="M112.37,192.61a4.76,4.76,0,0,1-.26,1.58,3.88,3.88,0,0,1-.73,1.27,3.7,3.7,0,0,1-1.16.86,3.58,3.58,0,0,1-1.53.32,3.55,3.55,0,0,1-2.7-1.18,3.71,3.71,0,0,1-.73-1.27,4.76,4.76,0,0,1-.26-1.58v-9.2h-3.53v9.18a5.42,5.42,0,0,0,.42,2.12,4.81,4.81,0,0,0,1.23,1.75,6.1,6.1,0,0,0,2,1.19,8.18,8.18,0,0,0,2.79.43,9.34,9.34,0,0,0,3-.43,5.78,5.78,0,0,0,2.07-1.19,4.64,4.64,0,0,0,1.18-1.74,5.69,5.69,0,0,0,.38-2.11v-9.2h-2.22Z"/><polygon class="cls-1" points="134.73 192.53 126.54 183.41 124.29 183.41 124.29 197.75 126.52 197.75 126.52 187.89 135.41 197.98 136.94 197.98 136.94 183.41 134.73 183.41 134.73 192.53"/><rect class="cls-1" x="146.8" y="183.41" width="3.51" height="14.34"/><polygon class="cls-1" points="159.18 184.63 164.13 184.63 164.13 197.75 167.66 197.75 167.66 184.63 172.62 184.63 172.62 183.41 159.18 183.41 159.18 184.63"/><polygon class="cls-1" points="187.99 189.87 183.26 183.41 179.57 183.41 185.66 191.75 185.66 197.75 189.18 197.75 189.18 191.54 194.78 183.41 192.4 183.41 187.99 189.87"/><polygon class="cls-1" points="2.72 206.5 0.9 203.85 0 203.85 2.1 206.91 2.1 209.09 2.98 209.09 2.98 206.83 5.01 203.85 4.54 203.85 2.72 206.5"/><path class="cls-1" d="M14.52,204.52a2.72,2.72,0,0,0-.92-.58,3.17,3.17,0,0,0-2.27,0,2.72,2.72,0,0,0-.92.58,2.57,2.57,0,0,0-.84,1.92,2.82,2.82,0,0,0,.22,1.08,2.87,2.87,0,0,0,.62.88,2.93,2.93,0,0,0,.92.6,3,3,0,0,0,2.27,0,2.93,2.93,0,0,0,.92-.6,2.87,2.87,0,0,0,.62-.88,2.64,2.64,0,0,0,.22-1.08,2.52,2.52,0,0,0-.22-1.06A2.67,2.67,0,0,0,14.52,204.52Zm-.32,2.93a2.39,2.39,0,0,1-.36.79,1.69,1.69,0,0,1-.58.52,1.57,1.57,0,0,1-.79.19,1.62,1.62,0,0,1-.81-.19,1.72,1.72,0,0,1-.59-.52,2.6,2.6,0,0,1-.35-.79,4.05,4.05,0,0,1-.12-1,3.84,3.84,0,0,1,.12-1,2.54,2.54,0,0,1,.35-.78,1.77,1.77,0,0,1,.59-.5,1.73,1.73,0,0,1,.81-.18,1.67,1.67,0,0,1,.79.18,1.74,1.74,0,0,1,.58.5,2.33,2.33,0,0,1,.36.78,3.84,3.84,0,0,1,.12,1A4.05,4.05,0,0,1,14.2,207.45Z"/><path class="cls-1" d="M24.9,207.25a1.67,1.67,0,0,1-.11.63,1.46,1.46,0,0,1-.32.52,1.71,1.71,0,0,1-.51.35,1.83,1.83,0,0,1-.68.13,1.87,1.87,0,0,1-.68-.13,1.71,1.71,0,0,1-.51-.35,1.65,1.65,0,0,1-.33-.52,1.68,1.68,0,0,1-.12-.63v-3.4h-.88v3.38a2,2,0,0,0,.15.77,1.79,1.79,0,0,0,.42.63,2.06,2.06,0,0,0,.7.43,2.84,2.84,0,0,0,1,.16,3.22,3.22,0,0,0,1.05-.16,1.85,1.85,0,0,0,.71-.43,1.6,1.6,0,0,0,.41-.62,2.13,2.13,0,0,0,.13-.76v-3.4H24.9Z"/><path class="cls-1" d="M33.88,206.35a1.53,1.53,0,0,0,.4-.29,1.44,1.44,0,0,0,.27-.39,1.14,1.14,0,0,0,.09-.46,1.3,1.3,0,0,0-.12-.55,1.22,1.22,0,0,0-.36-.43,1.9,1.9,0,0,0-.59-.28,3,3,0,0,0-.83-.1H30.92v5.24h.88v-2.46h.62l1.82,2.46h1l-1.91-2.54A2.16,2.16,0,0,0,33.88,206.35Zm-1-.06a1.93,1.93,0,0,1-.55.07H31.8v-2.19h.78a1.23,1.23,0,0,1,.44.08,1.09,1.09,0,0,1,.36.22,1.11,1.11,0,0,1,.22.34,1,1,0,0,1,.08.43,1,1,0,0,1-.1.47,1,1,0,0,1-.28.35A1.41,1.41,0,0,1,32.86,206.29Z"/><polygon class="cls-1" points="45.83 204.19 47.73 204.19 47.73 209.09 48.62 209.09 48.62 204.19 50.51 204.19 50.51 203.85 45.83 203.85 45.83 204.19"/><path class="cls-1" d="M57.07,203.73l-2.53,5.36H55l.83-1.75h2.25l.8,1.75h.9l-2.47-5.36ZM56,207l1-2.07,1,2.07Z"/><path class="cls-1" d="M67.89,206.71h1v1.84a1.42,1.42,0,0,1-.5.27,2,2,0,0,1-.62.09,2.21,2.21,0,0,1-.89-.17,2,2,0,0,1-.72-.48,2.24,2.24,0,0,1-.48-.75,2.66,2.66,0,0,1-.18-1,3.13,3.13,0,0,1,.16-1,2.11,2.11,0,0,1,.46-.75,2,2,0,0,1,.69-.49,2.26,2.26,0,0,1,.88-.17,1.52,1.52,0,0,1,.93.3,2.5,2.5,0,0,1,.73.93l.39-.25a3.14,3.14,0,0,0-.39-.51,2.43,2.43,0,0,0-.52-.43,3.14,3.14,0,0,0-.64-.3,2.76,2.76,0,0,0-.77-.11,3.09,3.09,0,0,0-1.2.22,3,3,0,0,0-.93.61,2.8,2.8,0,0,0-.6.89,2.58,2.58,0,0,0-.22,1.06,2.51,2.51,0,0,0,.23,1.05,2.9,2.9,0,0,0,.62.86,3.08,3.08,0,0,0,1,.58,3.29,3.29,0,0,0,1.2.22c.27,0,.51,0,.73,0a4.77,4.77,0,0,0,.6-.09l.5-.16.46-.22V206.4H67.89Z"/><polygon class="cls-1" points="76.28 203.85 75.39 203.85 75.39 209.09 78.92 209.09 78.92 208.75 76.28 208.75 76.28 203.85"/><rect class="cls-1" x="84.06" y="203.85" width="0.88" height="5.25"/><polygon class="cls-1" points="94.63 207.68 94.59 207.68 91.16 203.85 90.66 203.85 90.66 209.09 91.06 209.09 91.06 204.95 91.09 204.95 94.81 209.22 95.02 209.22 95.02 203.85 94.63 203.85 94.63 207.68"/><polygon class="cls-1" points="100.74 209.09 104.39 209.09 104.39 208.75 101.62 208.75 101.62 206.4 103.47 206.4 103.47 206.06 101.62 206.06 101.62 204.19 104.39 204.19 104.39 203.85 100.74 203.85 100.74 209.09"/><path class="cls-1" d="M119.65,206.71h1v1.84a1.47,1.47,0,0,1-.49.27,2,2,0,0,1-.62.09,2.25,2.25,0,0,1-.9-.17,2.16,2.16,0,0,1-.72-.48,2.41,2.41,0,0,1-.48-.75,2.66,2.66,0,0,1-.17-1,2.87,2.87,0,0,1,.16-1,2.09,2.09,0,0,1,.45-.75,2,2,0,0,1,.69-.49,2.3,2.3,0,0,1,.88-.17,1.52,1.52,0,0,1,.93.3,2.51,2.51,0,0,1,.74.93l.38-.25a3.14,3.14,0,0,0-.39-.51,2.64,2.64,0,0,0-.51-.43,3.23,3.23,0,0,0-.65-.3,2.7,2.7,0,0,0-.77-.11,3.09,3.09,0,0,0-1.2.22,3,3,0,0,0-.93.61,2.8,2.8,0,0,0-.6.89,2.58,2.58,0,0,0-.22,1.06,2.51,2.51,0,0,0,.23,1.05,2.77,2.77,0,0,0,.63.86,2.92,2.92,0,0,0,1,.58,3.37,3.37,0,0,0,1.2.22c.27,0,.52,0,.74,0a3.55,3.55,0,0,0,1.09-.25l.47-.22V206.4h-1.87Z"/><path class="cls-1" d="M131.87,204.52a2.72,2.72,0,0,0-.92-.58,3.17,3.17,0,0,0-2.27,0,2.72,2.72,0,0,0-.92.58,2.67,2.67,0,0,0-.62.86,2.52,2.52,0,0,0-.22,1.06,2.64,2.64,0,0,0,.22,1.08,2.87,2.87,0,0,0,.62.88,2.93,2.93,0,0,0,.92.6,3,3,0,0,0,2.27,0,2.93,2.93,0,0,0,.92-.6,2.68,2.68,0,0,0,.61-.88,2.65,2.65,0,0,0,.23-1.08,2.67,2.67,0,0,0-.84-1.92Zm-.32,2.93a2.39,2.39,0,0,1-.36.79,1.69,1.69,0,0,1-.58.52,1.58,1.58,0,0,1-.8.19,1.6,1.6,0,0,1-.8-.19,1.64,1.64,0,0,1-.59-.52,2.6,2.6,0,0,1-.35-.79,4.05,4.05,0,0,1-.12-1,3.84,3.84,0,0,1,.12-1,2.54,2.54,0,0,1,.35-.78,1.68,1.68,0,0,1,.59-.5,1.71,1.71,0,0,1,.8-.18,1.69,1.69,0,0,1,.8.18,1.74,1.74,0,0,1,.58.5,2.33,2.33,0,0,1,.36.78,3.84,3.84,0,0,1,.12,1A4.05,4.05,0,0,1,131.55,207.45Z"/><polygon class="cls-1" points="138.2 209.09 141.85 209.09 141.85 208.75 139.08 208.75 139.08 206.4 140.94 206.4 140.94 206.06 139.08 206.06 139.08 204.19 141.85 204.19 141.85 203.85 138.2 203.85 138.2 209.09"/><path class="cls-1" d="M150,206.8a3,3,0,0,0-.48-.35l-.54-.31-.55-.28c-.17-.1-.33-.2-.47-.3a1.53,1.53,0,0,1-.34-.33.63.63,0,0,1-.12-.37.72.72,0,0,1,.06-.29.64.64,0,0,1,.18-.25.87.87,0,0,1,.31-.18,1.2,1.2,0,0,1,.44-.07,1.28,1.28,0,0,1,.89.3,1.7,1.7,0,0,1,.5.78l.45-.21a1.8,1.8,0,0,0-.62-.9,2,2,0,0,0-1.18-.31,2,2,0,0,0-.73.11,1.74,1.74,0,0,0-.54.29,1.45,1.45,0,0,0-.33.45,1.42,1.42,0,0,0-.11.55,1.12,1.12,0,0,0,.12.53,1.34,1.34,0,0,0,.33.42,2,2,0,0,0,.46.34l.53.29.53.28a3,3,0,0,1,.46.3,1.46,1.46,0,0,1,.32.34.78.78,0,0,1,.13.43.6.6,0,0,1-.1.35.85.85,0,0,1-.24.26,1.13,1.13,0,0,1-.33.16,1.74,1.74,0,0,1-.39,0,1.43,1.43,0,0,1-.9-.29,1.67,1.67,0,0,1-.55-.8l-.47.19a1.88,1.88,0,0,0,.66.91,1.94,1.94,0,0,0,1.2.33,2.57,2.57,0,0,0,.82-.12,1.77,1.77,0,0,0,.59-.33,1.35,1.35,0,0,0,.35-.47,1.48,1.48,0,0,0,.12-.59,1,1,0,0,0-.13-.5A1.42,1.42,0,0,0,150,206.8Z"/><polygon class="cls-1" points="166.08 206.24 163.44 206.24 163.44 203.85 162.56 203.85 162.56 209.09 163.44 209.09 163.44 206.57 166.08 206.57 166.08 209.09 166.96 209.09 166.96 203.85 166.08 203.85 166.08 206.24"/><polygon class="cls-1" points="172.68 209.09 176.33 209.09 176.33 208.75 173.57 208.75 173.57 206.4 175.42 206.4 175.42 206.06 173.57 206.06 173.57 204.19 176.33 204.19 176.33 203.85 172.68 203.85 172.68 209.09"/><path class="cls-1" d="M184.68,206.35a1.71,1.71,0,0,0,.4-.29,1.21,1.21,0,0,0,.26-.39,1.14,1.14,0,0,0,.09-.46,1.2,1.2,0,0,0-.47-1,1.86,1.86,0,0,0-.6-.28,2.88,2.88,0,0,0-.82-.1h-1.82v5.24h.88v-2.46h.62l1.82,2.46h1l-1.91-2.54A2.24,2.24,0,0,0,184.68,206.35Zm-1-.06a1.93,1.93,0,0,1-.55.07h-.51v-2.19h.77a1.29,1.29,0,0,1,.45.08,1,1,0,0,1,.35.22,1,1,0,0,1,.23.34,1,1,0,0,1,.08.43,1,1,0,0,1-.1.47.9.9,0,0,1-.29.35A1.36,1.36,0,0,1,183.66,206.29Z"/><polygon class="cls-1" points="191.13 209.09 194.78 209.09 194.78 208.75 192.01 208.75 192.01 206.4 193.86 206.4 193.86 206.06 192.01 206.06 192.01 204.19 194.78 204.19 194.78 203.85 191.13 203.85 191.13 209.09"/></g></g></svg>