<svg xmlns="http://www.w3.org/2000/svg" viewBox="0 0 194.77 219.75"><defs><style>.cls-1{fill:#fff;}</style></defs><title>logo_partner_2</title><g id="Layer_2" data-name="Layer 2"><g id="Layer_2-2" data-name="Layer 2"><polygon class="cls-1" points="56.06 216.85 58.6 216.85 57.35 214.12 56.06 216.85"/><path class="cls-1" d="M131.61,213.79a2.21,2.21,0,0,0-.76-.67,2.32,2.32,0,0,0-1-.23,2.39,2.39,0,0,0-1.06.23,2.12,2.12,0,0,0-.76.67,2.81,2.81,0,0,0-.46,1,4.82,4.82,0,0,0-.16,1.3,5.08,5.08,0,0,0,.16,1.32,3,3,0,0,0,.46,1,2.14,2.14,0,0,0,1.82.93,2.09,2.09,0,0,0,1-.25,2.24,2.24,0,0,0,.76-.68,3.2,3.2,0,0,0,.47-1,5.55,5.55,0,0,0,.16-1.32,5.26,5.26,0,0,0-.16-1.3A3,3,0,0,0,131.61,213.79Z"/><path class="cls-1" d="M35.11,213.53a1.33,1.33,0,0,0-.47-.29,1.57,1.57,0,0,0-.58-.1H33V216h.67a2.72,2.72,0,0,0,.72-.1,1.72,1.72,0,0,0,.57-.3,1.3,1.3,0,0,0,.38-.46,1.33,1.33,0,0,0,.13-.61,1.32,1.32,0,0,0-.11-.57A1.35,1.35,0,0,0,35.11,213.53Z"/><path class="cls-1" d="M15.27,213.79a2.15,2.15,0,0,0-.77-.67,2.31,2.31,0,0,0-1-.23,2.39,2.39,0,0,0-1.06.23,2.12,2.12,0,0,0-.76.67,3,3,0,0,0-.47,1,5.27,5.27,0,0,0-.15,1.3,5.56,5.56,0,0,0,.15,1.32,3.2,3.2,0,0,0,.47,1,2.14,2.14,0,0,0,1.82.93,2.08,2.08,0,0,0,1-.25,2.18,2.18,0,0,0,.77-.68,3.43,3.43,0,0,0,.47-1,5.56,5.56,0,0,0,.15-1.32,5.27,5.27,0,0,0-.15-1.3A3.2,3.2,0,0,0,15.27,213.79Z"/><path class="cls-1" d="M183.09,215.91a1.72,1.72,0,0,0,.57-.3,1.28,1.28,0,0,0,.37-.46,1.34,1.34,0,0,0,.14-.61,1.48,1.48,0,0,0-.11-.57,1.23,1.23,0,0,0-.3-.44,1.29,1.29,0,0,0-.46-.29,1.63,1.63,0,0,0-.59-.1h-1V216h.67A2.84,2.84,0,0,0,183.09,215.91Z"/><path class="cls-1" d="M70.14,6.6h0a3.9,3.9,0,0,0,2.14,1.09A54.41,54.41,0,0,1,118.1,53.51a3.79,3.79,0,0,0,1.08,2.13h0a3.87,3.87,0,0,0,6.56-3.31A62.11,62.11,0,0,0,73.45.05,3.86,3.86,0,0,0,70.14,6.6Z"/><path class="cls-1" d="M124.64,160.36h0a3.82,3.82,0,0,0-2.14-1.08,54.41,54.41,0,0,1-45.82-45.83,3.81,3.81,0,0,0-1.09-2.13A3.86,3.86,0,0,0,69,114.63a62.11,62.11,0,0,0,52.28,52.29A3.87,3.87,0,0,0,124.64,160.36Z"/><path class="cls-1" d="M36.93,78.11A54.29,54.29,0,0,1,67.41,62.77a3.82,3.82,0,0,0,2.14-1.08h0a3.87,3.87,0,0,0-3.31-6.56A62.14,62.14,0,0,0,14,107.42a3.87,3.87,0,0,0,6.56,3.31h0a3.82,3.82,0,0,0,1.08-2.14A54.29,54.29,0,0,1,36.93,78.11Z"/><path class="cls-1" d="M174.27,56.23h0a3.83,3.83,0,0,0-1.09,2.14,54.38,54.38,0,0,1-45.82,45.82,3.87,3.87,0,0,0,1.18,7.64,62.11,62.11,0,0,0,52.28-52.29A3.86,3.86,0,0,0,174.27,56.23Z"/><path class="cls-1" d="M62.29,87.75a3.86,3.86,0,0,0-7-2.29,62.12,62.12,0,0,0,0,73.94,3.86,3.86,0,0,0,7-2.29h0a3.81,3.81,0,0,0-.74-2.28,54.4,54.4,0,0,1,0-64.8A3.81,3.81,0,0,0,62.29,87.75Z"/><path class="cls-1" d="M132.48,9.85h0a3.82,3.82,0,0,0,.75,2.28,54.4,54.4,0,0,1,0,64.8,3.82,3.82,0,0,0-.75,2.28,3.87,3.87,0,0,0,7,2.29,62.12,62.12,0,0,0,0-73.94A3.87,3.87,0,0,0,132.48,9.85Z"/><path class="cls-1" d="M171,118.58h0a3.81,3.81,0,0,0-2.28.74,54.4,54.4,0,0,1-64.8,0,3.81,3.81,0,0,0-2.28-.74h0a3.86,3.86,0,0,0-2.29,7,62.12,62.12,0,0,0,73.94,0A3.86,3.86,0,0,0,171,118.58Z"/><path class="cls-1" d="M23.76,48.39h0A3.77,3.77,0,0,0,26,47.64a54.42,54.42,0,0,1,64.81,0,3.79,3.79,0,0,0,2.27.75,3.87,3.87,0,0,0,2.3-7,62.13,62.13,0,0,0-73.95,0A3.87,3.87,0,0,0,23.76,48.39Z"/><path class="cls-1" d="M8.23,205.06a7.7,7.7,0,0,0,4.8-1.44,7.93,7.93,0,0,0,2.7-4.39l-3.53-1.12A5.43,5.43,0,0,1,10.69,201a3.66,3.66,0,0,1-2.5.92A4,4,0,0,1,5,200.49Q3.76,199,3.76,195.61c0-2.15.41-3.71,1.25-4.67a4.11,4.11,0,0,1,3.26-1.44,3.71,3.71,0,0,1,3.8,3l3.61-.87a7.12,7.12,0,0,0-1.84-3.32,7.51,7.51,0,0,0-5.39-2,8,8,0,0,0-6.12,2.49,9.9,9.9,0,0,0-2.33,7,9.38,9.38,0,0,0,2.32,6.72A7.75,7.75,0,0,0,8.23,205.06Z"/><path class="cls-1" d="M40.69,195.74a9.46,9.46,0,0,0-2.4-6.88,8.5,8.5,0,0,0-6.39-2.48,10,10,0,0,0-3.89.71,7.1,7.1,0,0,0-2.33,1.63A8.53,8.53,0,0,0,24,191.2a11.49,11.49,0,0,0-.82,4.63,9.32,9.32,0,0,0,2.38,6.77,8.48,8.48,0,0,0,6.4,2.46,8.44,8.44,0,0,0,6.36-2.47A9.5,9.5,0,0,0,40.69,195.74Zm-5.17,4.63a4.57,4.57,0,0,1-3.58,1.57,4.65,4.65,0,0,1-3.6-1.58,8.48,8.48,0,0,1,0-9.32,4.63,4.63,0,0,1,3.63-1.54A4.64,4.64,0,0,1,35.56,191a8.61,8.61,0,0,1,0,9.35Z"/><polygon class="cls-1" points="65.98 204.75 65.98 186.69 60.51 186.69 57.27 199.01 53.99 186.69 48.53 186.69 48.53 204.75 51.92 204.75 51.92 190.53 55.49 204.75 59 204.75 62.59 190.53 62.59 204.75 65.98 204.75"/><polygon class="cls-1" points="92.04 204.75 92.04 186.69 86.57 186.69 83.33 199.01 80.05 186.69 74.59 186.69 74.59 204.75 77.98 204.75 77.98 190.53 81.56 204.75 85.07 204.75 88.65 190.53 88.65 204.75 92.04 204.75"/><path class="cls-1" d="M111.57,204.51A5.62,5.62,0,0,0,113.7,203a5.17,5.17,0,0,0,1.09-2.27,24.11,24.11,0,0,0,.3-4.6v-9.48h-3.65v10a21.36,21.36,0,0,1-.16,3.07,2.59,2.59,0,0,1-1,1.56,3.71,3.71,0,0,1-2.34.63,3.88,3.88,0,0,1-2.41-.67,2.88,2.88,0,0,1-1.11-1.78,18.83,18.83,0,0,1-.14-3v-9.78h-3.65v9.63a21.71,21.71,0,0,0,.36,4.58,5,5,0,0,0,1,2,5.67,5.67,0,0,0,2.12,1.55,9.92,9.92,0,0,0,3.92.6A9.3,9.3,0,0,0,111.57,204.51Z"/><polygon class="cls-1" points="138.34 204.75 138.34 186.69 134.95 186.69 134.95 198.75 127.56 186.69 124.01 186.69 124.01 204.75 127.4 204.75 127.4 192.97 134.68 204.75 138.34 204.75"/><rect class="cls-1" x="147.13" y="186.69" width="3.65" height="18.06"/><polygon class="cls-1" points="167.01 189.74 172.36 189.74 172.36 186.69 158 186.69 158 189.74 163.36 189.74 163.36 204.75 167.01 204.75 167.01 189.74"/><polygon class="cls-1" points="190.57 186.69 186.41 193.83 182.16 186.69 177.88 186.69 184.5 197.15 184.5 204.75 188.13 204.75 188.13 197.17 194.78 186.69 190.57 186.69"/><polygon class="cls-1" points="2.75 219.59 3.91 219.59 3.91 216.61 6.58 212.71 5.95 212.71 3.57 216.19 1.19 212.71 0 212.71 2.75 216.72 2.75 219.59"/><path class="cls-1" d="M16.16,213.59a3.66,3.66,0,0,0-1.21-.76,4.1,4.1,0,0,0-3,0,3.66,3.66,0,0,0-1.21.76,3.37,3.37,0,0,0-.8,1.13,3.24,3.24,0,0,0-.3,1.39,3.37,3.37,0,0,0,.3,1.41,3.59,3.59,0,0,0,.8,1.16,3.71,3.71,0,0,0,1.21.78,4,4,0,0,0,3,0,3.71,3.71,0,0,0,1.21-.78,3.59,3.59,0,0,0,.8-1.16,3.37,3.37,0,0,0,.3-1.41,3.24,3.24,0,0,0-.3-1.39A3.37,3.37,0,0,0,16.16,213.59Zm-.42,3.84a3.43,3.43,0,0,1-.47,1,2.18,2.18,0,0,1-.77.68,2.08,2.08,0,0,1-1,.25,2.14,2.14,0,0,1-1.82-.93,3.2,3.2,0,0,1-.47-1,5.56,5.56,0,0,1-.15-1.32,5.27,5.27,0,0,1,.15-1.3,3,3,0,0,1,.47-1,2.12,2.12,0,0,1,.76-.67,2.39,2.39,0,0,1,1.06-.23,2.31,2.31,0,0,1,1,.23,2.15,2.15,0,0,1,.77.67,3.2,3.2,0,0,1,.47,1,5.27,5.27,0,0,1,.15,1.3A5.56,5.56,0,0,1,15.74,217.43Z"/><path class="cls-1" d="M21.45,212.71v4.43a2.59,2.59,0,0,0,.19,1,2.48,2.48,0,0,0,.56.83,2.58,2.58,0,0,0,.92.56,3.47,3.47,0,0,0,1.26.21,4,4,0,0,0,1.37-.21,2.39,2.39,0,0,0,.93-.56,2.1,2.1,0,0,0,.54-.81,3,3,0,0,0,.17-1v-4.46h-.51v4.46a2.54,2.54,0,0,1-.14.83,1.88,1.88,0,0,1-.43.67,1.78,1.78,0,0,1-.67.46,2.39,2.39,0,0,1-1.77,0,1.9,1.9,0,0,1-.68-.46,1.88,1.88,0,0,1-.43-.67,2.31,2.31,0,0,1-.15-.83v-4.46Z"/><path class="cls-1" d="M36.3,215.61a1.69,1.69,0,0,0,.34-.51,1.53,1.53,0,0,0,.12-.6,1.58,1.58,0,0,0-.16-.72,1.5,1.5,0,0,0-.47-.57,2.3,2.3,0,0,0-.77-.37,4,4,0,0,0-1.09-.13H31.88v6.87H33v-3.23h.81l2.39,3.23h1.35l-2.51-3.33a2.75,2.75,0,0,0,.68-.26A1.94,1.94,0,0,0,36.3,215.61Zm-.92-.46a1.3,1.3,0,0,1-.38.46,1.72,1.72,0,0,1-.57.3,2.72,2.72,0,0,1-.72.1H33v-2.87h1a1.57,1.57,0,0,1,.58.1,1.33,1.33,0,0,1,.47.29,1.35,1.35,0,0,1,.29.44,1.32,1.32,0,0,1,.11.57A1.33,1.33,0,0,1,35.38,215.15Z"/><polygon class="cls-1" points="49.31 219.59 49.31 213.15 51.8 213.15 51.8 212.71 45.67 212.71 45.67 213.15 48.16 213.15 48.16 219.59 49.31 219.59"/><path class="cls-1" d="M61,219.58l-3.24-7h-.29l-3.32,7h.58l1.09-2.29h3l1,2.29Zm-5-2.73,1.29-2.73,1.25,2.73Z"/><path class="cls-1" d="M65.43,218.7a3.85,3.85,0,0,0,1.25.76,4.31,4.31,0,0,0,1.58.29,9,9,0,0,0,1-.05,5.35,5.35,0,0,0,.78-.12,5.13,5.13,0,0,0,.66-.21,4.85,4.85,0,0,0,.61-.29v-3H68.82v.41h1.3v2.41a2.2,2.2,0,0,1-.66.35,2.55,2.55,0,0,1-.81.12,3,3,0,0,1-1.17-.22,2.82,2.82,0,0,1-1-.63,2.89,2.89,0,0,1-.63-1,3.64,3.64,0,0,1-.23-1.31,3.83,3.83,0,0,1,.21-1.31,2.87,2.87,0,0,1,.59-1,2.49,2.49,0,0,1,.91-.63,2.93,2.93,0,0,1,1.16-.23,2,2,0,0,1,1.22.39,3.38,3.38,0,0,1,1,1.22l.5-.33a5.07,5.07,0,0,0-.5-.67,3.69,3.69,0,0,0-.68-.56,3.88,3.88,0,0,0-.85-.39,3.29,3.29,0,0,0-1-.15,4,4,0,0,0-1.57.3,3.64,3.64,0,0,0-1.22.8,3.57,3.57,0,0,0-.79,1.16,3.45,3.45,0,0,0-.28,1.39,3.21,3.21,0,0,0,.29,1.37A3.53,3.53,0,0,0,65.43,218.7Z"/><polygon class="cls-1" points="75.76 212.71 75.76 219.59 80.39 219.59 80.39 219.14 76.92 219.14 76.92 212.71 75.76 212.71"/><rect class="cls-1" x="84.24" y="212.71" width="1.16" height="6.88"/><polygon class="cls-1" points="90.53 214.15 90.58 214.15 95.46 219.75 95.73 219.75 95.73 212.71 95.22 212.71 95.22 217.74 95.17 217.74 90.66 212.71 90.01 212.71 90.01 219.59 90.53 219.59 90.53 214.15"/><polygon class="cls-1" points="105.12 213.15 105.12 212.71 100.34 212.71 100.34 219.59 105.12 219.59 105.12 219.14 101.5 219.14 101.5 216.06 103.92 216.06 103.92 215.61 101.5 215.61 101.5 213.15 105.12 213.15"/><path class="cls-1" d="M116,218.7a3.85,3.85,0,0,0,1.25.76,4.27,4.27,0,0,0,1.58.29,9,9,0,0,0,1-.05,5.35,5.35,0,0,0,.78-.12,5.13,5.13,0,0,0,.66-.21,4.85,4.85,0,0,0,.61-.29v-3h-2.45v.41h1.29v2.41a2.14,2.14,0,0,1-.65.35,2.55,2.55,0,0,1-.81.12,3,3,0,0,1-1.17-.22,2.82,2.82,0,0,1-1-.63,2.89,2.89,0,0,1-.63-1,3.64,3.64,0,0,1-.23-1.31,3.83,3.83,0,0,1,.21-1.31,2.87,2.87,0,0,1,.59-1,2.49,2.49,0,0,1,.91-.63,2.91,2.91,0,0,1,1.15-.23,2,2,0,0,1,1.22.39,3.29,3.29,0,0,1,1,1.22l.5-.33a4.4,4.4,0,0,0-.51-.67,3.32,3.32,0,0,0-.67-.56,3.88,3.88,0,0,0-.85-.39,3.29,3.29,0,0,0-1-.15,4,4,0,0,0-1.57.3,3.64,3.64,0,0,0-1.22.8,3.42,3.42,0,0,0-.79,1.16,3.46,3.46,0,0,0-.29,1.39,3.22,3.22,0,0,0,.3,1.37A3.53,3.53,0,0,0,116,218.7Z"/><path class="cls-1" d="M131.3,212.83a4,4,0,0,0-1.5-.28,3.95,3.95,0,0,0-2.7,1,3.37,3.37,0,0,0-.8,1.13,3.24,3.24,0,0,0-.29,1.39,3.36,3.36,0,0,0,.29,1.41,3.59,3.59,0,0,0,.8,1.16,3.93,3.93,0,0,0,1.21.78,3.88,3.88,0,0,0,1.49.29,4,4,0,0,0,1.5-.29,3.72,3.72,0,0,0,2-1.94,3.52,3.52,0,0,0,.29-1.41,3.39,3.39,0,0,0-.29-1.39,3.54,3.54,0,0,0-.81-1.13A3.72,3.72,0,0,0,131.3,212.83Zm.78,4.6a3.2,3.2,0,0,1-.47,1,2.24,2.24,0,0,1-.76.68,2.09,2.09,0,0,1-1,.25,2.14,2.14,0,0,1-1.82-.93,3,3,0,0,1-.46-1,5.08,5.08,0,0,1-.16-1.32,4.82,4.82,0,0,1,.16-1.3,2.81,2.81,0,0,1,.46-1,2.12,2.12,0,0,1,.76-.67,2.39,2.39,0,0,1,1.06-.23,2.32,2.32,0,0,1,1,.23,2.21,2.21,0,0,1,.76.67,3,3,0,0,1,.47,1,5.26,5.26,0,0,1,.16,1.3A5.55,5.55,0,0,1,132.08,217.43Z"/><polygon class="cls-1" points="142.7 213.15 142.7 212.71 137.91 212.71 137.91 219.59 142.7 219.59 142.7 219.14 139.07 219.14 139.07 216.06 141.5 216.06 141.5 215.61 139.07 215.61 139.07 213.15 142.7 213.15"/><path class="cls-1" d="M149.71,219a1.55,1.55,0,0,1-.45.21,1.73,1.73,0,0,1-.5.07,1.89,1.89,0,0,1-1.18-.38,2,2,0,0,1-.72-1.05l-.62.25a2.41,2.41,0,0,0,.86,1.19,2.63,2.63,0,0,0,1.57.43,3.51,3.51,0,0,0,1.08-.16,2.19,2.19,0,0,0,.77-.42,1.8,1.8,0,0,0,.47-.63,2,2,0,0,0,.15-.77,1.28,1.28,0,0,0-.16-.65,2.09,2.09,0,0,0-.45-.54,3.7,3.7,0,0,0-.62-.46c-.23-.14-.47-.27-.71-.4l-.72-.38a4.11,4.11,0,0,1-.62-.39,2,2,0,0,1-.44-.42.84.84,0,0,1-.17-.5,1,1,0,0,1,.08-.38,1.11,1.11,0,0,1,.25-.33,1.4,1.4,0,0,1,.4-.23,1.85,1.85,0,0,1,1.75.3,2.25,2.25,0,0,1,.65,1l.59-.27a2.28,2.28,0,0,0-.82-1.18,2.58,2.58,0,0,0-1.54-.41,3.13,3.13,0,0,0-1,.14,2.06,2.06,0,0,0-.7.39,1.66,1.66,0,0,0-.44.58,1.77,1.77,0,0,0-.15.73,1.42,1.42,0,0,0,.17.7,2,2,0,0,0,.42.55,3.53,3.53,0,0,0,.61.44c.22.14.45.26.69.39l.7.36a4.43,4.43,0,0,1,.6.39,2,2,0,0,1,.43.45,1,1,0,0,1,.16.56.88.88,0,0,1-.12.46A1.13,1.13,0,0,1,149.71,219Z"/><polygon class="cls-1" points="166.96 219.59 166.96 212.71 165.81 212.71 165.81 215.84 162.35 215.84 162.35 212.71 161.19 212.71 161.19 219.59 162.35 219.59 162.35 216.28 165.81 216.28 165.81 219.59 166.96 219.59"/><polygon class="cls-1" points="176.37 213.15 176.37 212.71 171.58 212.71 171.58 219.59 176.37 219.59 176.37 219.14 172.74 219.14 172.74 216.06 175.16 216.06 175.16 215.61 172.74 215.61 172.74 213.15 176.37 213.15"/><path class="cls-1" d="M181.7,216.35h.81l2.39,3.23h1.34l-2.5-3.33a3.09,3.09,0,0,0,.68-.26,1.89,1.89,0,0,0,.53-.38,1.69,1.69,0,0,0,.34-.51,1.53,1.53,0,0,0,.12-.6,1.54,1.54,0,0,0-.62-1.29,2.35,2.35,0,0,0-.78-.37,3.92,3.92,0,0,0-1.09-.13h-2.38v6.87h1.16Zm0-3.21h1a1.63,1.63,0,0,1,.59.1,1.29,1.29,0,0,1,.46.29,1.23,1.23,0,0,1,.3.44,1.48,1.48,0,0,1,.11.57,1.34,1.34,0,0,1-.14.61,1.28,1.28,0,0,1-.37.46,1.72,1.72,0,0,1-.57.3,2.84,2.84,0,0,1-.72.1h-.67Z"/><polygon class="cls-1" points="194.78 213.15 194.78 212.71 189.99 212.71 189.99 219.59 194.78 219.59 194.78 219.14 191.15 219.14 191.15 216.06 193.57 216.06 193.57 215.61 191.15 215.61 191.15 213.15 194.78 213.15"/></g></g></svg>