<svg xmlns="http://www.w3.org/2000/svg" xmlns:xlink="http://www.w3.org/1999/xlink" viewBox="0 0 64.88 64.88"><defs><style>.cls-1{fill:url(#Degradado_sin_nombre_25);}</style><linearGradient id="Degradado_sin_nombre_25" x1="56.66" y1="-2.33" x2="5.98" y2="70.42" gradientUnits="userSpaceOnUse"><stop offset="0" stop-color="#f6f6f7"/><stop offset="1" stop-color="#fff"/></linearGradient></defs><title>messenger</title><g id="Layer_2" data-name="Layer 2"><g id="Layer_2-2" data-name="Layer 2"><path class="cls-1" d="M32.44,0A32.47,32.47,0,0,0,0,32.44,32.12,32.12,0,0,0,6.22,51.5L3.62,64.88l12.64-4.35A32.43,32.43,0,1,0,32.44,0Zm0,53.63a21.12,21.12,0,0,1-10.57-2.84l-8.26,2.84,1.7-8.74a21,21,0,0,1-4.06-12.45A21.19,21.19,0,1,1,32.44,53.63Zm0-39.23A18,18,0,0,0,18.23,43.53l.44.56-.92,4.78,4.5-1.55.64.4A18,18,0,1,0,32.44,14.4ZM43,40.77a6.31,6.31,0,0,1-4.42,2.17c-2.33,0-7.89-1.89-10.85-4.85s-5.59-6-6.2-8.7-.54-4,.22-5.09c0,0,1.24-2.17,2.26-2.3s2.32-.12,2.67.54,1.92,4.51,1.92,4.51a1.49,1.49,0,0,1-.14,1.31,12.46,12.46,0,0,1-1.35,1.57,1.15,1.15,0,0,0,0,1.36,24.79,24.79,0,0,0,3,3.66,16.24,16.24,0,0,0,4.84,2.84,1,1,0,0,0,.75-.22c.3-.29,1.87-2.26,1.87-2.26A1.1,1.1,0,0,1,38.88,35c.84.39,4.47,2.2,4.47,2.2a.77.77,0,0,1,.43.79A5.12,5.12,0,0,1,43,40.77Z"/></g></g></svg>