<svg xmlns="http://www.w3.org/2000/svg" xmlns:xlink="http://www.w3.org/1999/xlink" viewBox="0 0 612.1 559.67"><defs><style>.cls-1{fill:#ccc;}.cls-2{fill:url(#linear-gradient);}.cls-17,.cls-25,.cls-3,.cls-8{fill:#63cbe8;}.cls-3{opacity:0.2;}.cls-4{fill:#fff;}.cls-5{fill:url(#linear-gradient-2);}.cls-6{fill:url(#linear-gradient-3);}.cls-7{fill:#999;}.cls-8{opacity:0.6;}.cls-9{fill:#e8e8e6;}.cls-10{fill:url(#linear-gradient-4);}.cls-11{fill:url(#linear-gradient-5);}.cls-12{opacity:0.4;}.cls-13,.cls-23{fill:#b3b3b3;}.cls-13{opacity:0.7;}.cls-14{fill:url(#linear-gradient-6);}.cls-15{fill:url(#linear-gradient-7);}.cls-16,.cls-17,.cls-18,.cls-21,.cls-22{fill-rule:evenodd;}.cls-16{fill:url(#linear-gradient-8);}.cls-17,.cls-25{opacity:0.1;}.cls-18{fill:#e6e6e6;}.cls-19{fill:#e6e8e8;}.cls-20{fill:gray;}.cls-21{fill:url(#linear-gradient-9);}.cls-22{fill:#f2f2f2;}.cls-24{fill:url(#linear-gradient-10);}.cls-26{fill:url(#linear-gradient-11);}</style><linearGradient id="linear-gradient" x1="113.79" y1="496.28" x2="210.04" y2="496.28" gradientUnits="userSpaceOnUse"><stop offset="0" stop-color="#031e5d"/><stop offset="0.09" stop-color="#03286d"/><stop offset="0.22" stop-color="#033580"/><stop offset="0.39" stop-color="#033d8d"/><stop offset="0.6" stop-color="#034395"/><stop offset="1" stop-color="#034497"/></linearGradient><linearGradient id="linear-gradient-2" x1="0" y1="445.87" x2="76.37" y2="445.87" xlink:href="#linear-gradient"/><linearGradient id="linear-gradient-3" x1="235.65" y1="256.71" x2="369.07" y2="256.71" xlink:href="#linear-gradient"/><linearGradient id="linear-gradient-4" x1="470.15" y1="407.06" x2="612.1" y2="407.06" xlink:href="#linear-gradient"/><linearGradient id="linear-gradient-5" x1="472.56" y1="407.06" x2="612.1" y2="407.06" xlink:href="#linear-gradient"/><linearGradient id="linear-gradient-6" x1="363.21" y1="513.39" x2="457.1" y2="513.39" xlink:href="#linear-gradient"/><linearGradient id="linear-gradient-7" x1="364.8" y1="513.39" x2="457.1" y2="513.39" xlink:href="#linear-gradient"/><linearGradient id="linear-gradient-8" x1="375.07" y1="46.54" x2="508.45" y2="46.54" xlink:href="#linear-gradient"/><linearGradient id="linear-gradient-9" x1="401.19" y1="85.26" x2="561.07" y2="85.26" gradientUnits="userSpaceOnUse"><stop offset="0" stop-color="#7ac943"/><stop offset="0.19" stop-color="#89cc4e"/><stop offset="0.72" stop-color="#b0d36b"/><stop offset="1" stop-color="#bfd676"/></linearGradient><linearGradient id="linear-gradient-10" x1="112.31" y1="85.97" x2="271.34" y2="85.97" xlink:href="#linear-gradient-9"/><linearGradient id="linear-gradient-11" x1="80.01" y1="67.51" x2="239.04" y2="67.51" xlink:href="#linear-gradient"/></defs><title>Notification Massage</title><g id="Layer_2" data-name="Layer 2"><g id="Layer_2-2" data-name="Layer 2"><g id="Notification_Massage" data-name="Notification Massage"><g id="Line"><rect class="cls-1" x="371.36" y="268.81" width="9.84" height="6.18" transform="translate(-72.6 153.48) rotate(-21.07)"/><rect class="cls-1" x="385.04" y="263.54" width="9.84" height="6.18" transform="translate(-69.79 158.05) rotate(-21.07)"/><rect class="cls-1" x="398.71" y="258.27" width="9.84" height="6.18" transform="translate(-66.98 162.62) rotate(-21.07)"/><rect class="cls-1" x="412.39" y="253" width="9.84" height="6.18" transform="translate(-64.19 167.28) rotate(-21.09)"/><rect class="cls-1" x="426.07" y="247.73" width="9.84" height="6.18" transform="translate(-61.34 171.62) rotate(-21.06)"/><rect class="cls-1" x="439.74" y="242.46" width="9.84" height="6.18" transform="translate(-58.57 176.42) rotate(-21.09)"/><rect class="cls-1" x="453.42" y="237.19" width="9.84" height="6.18" transform="translate(-55.74 180.88) rotate(-21.07)"/><rect class="cls-1" x="331.07" y="223.62" width="9.84" height="6.18" transform="matrix(0.79, -0.62, 0.62, 0.79, -68.29, 255.83)"/><rect class="cls-1" x="342.6" y="214.58" width="9.84" height="6.18" transform="translate(-60.26 260.83) rotate(-38.1)"/><rect class="cls-1" x="354.13" y="205.53" width="9.84" height="6.18" transform="translate(-52.2 266.21) rotate(-38.13)"/><rect class="cls-1" x="365.66" y="196.48" width="9.84" height="6.18" transform="translate(-44.15 271.37) rotate(-38.13)"/><rect class="cls-1" x="377.19" y="187.43" width="9.84" height="6.18" transform="translate(-36.1 276.59) rotate(-38.13)"/><rect class="cls-1" x="388.72" y="178.38" width="9.84" height="6.18" transform="translate(-28.05 281.77) rotate(-38.13)"/><rect class="cls-1" x="400.25" y="169.34" width="9.84" height="6.18" transform="translate(-20.01 286.96) rotate(-38.13)"/><rect class="cls-1" x="300.36" y="181.35" width="9.84" height="6.18" transform="translate(-5.04 360.27) rotate(-60.67)"/><rect class="cls-1" x="307.54" y="168.57" width="9.84" height="6.18" transform="translate(9.68 359.88) rotate(-60.65)"/><rect class="cls-1" x="314.72" y="155.8" width="9.84" height="6.18" transform="translate(24.47 359.62) rotate(-60.65)"/><rect class="cls-1" x="321.91" y="143.02" width="9.84" height="6.18" transform="translate(39.33 359.45) rotate(-60.67)"/><rect class="cls-1" x="329.09" y="130.25" width="9.84" height="6.18" transform="translate(53.99 359.02) rotate(-60.63)"/><rect class="cls-1" x="336.27" y="117.47" width="9.84" height="6.18" transform="translate(69 359.01) rotate(-60.68)"/><rect class="cls-1" x="343.45" y="104.69" width="9.84" height="6.18" transform="translate(83.78 358.73) rotate(-60.68)"/><path class="cls-1" d="M111,341.88l-4.48,4.06s2.31,2.59,4.78,5c1.24,1.23,2.5,2.43,3.47,3.32l1.2,1.07.45.39,4-4.59-.43-.37-1.09-1c-.91-.83-2.11-2-3.28-3.13C113.22,344.36,111,341.88,111,341.88Z"/><path class="cls-1" d="M98.92,326.29l-5.06,3.32.33.5c.21.32.5.78.87,1.31.76,1.07,1.72,2.51,2.77,3.9,2,2.81,4.26,5.48,4.26,5.48l4.68-3.84s-2.12-2.55-4.07-5.23c-1-1.32-1.92-2.7-2.63-3.72-.36-.5-.64-.93-.84-1.24Z"/><path class="cls-1" d="M89.8,309.11l-5.71,2.05s.3.82.86,2,1.21,2.83,2,4.39l1.16,2.32,1.08,2c.63,1.16,1.06,1.93,1.06,1.93l5.27-3-1-1.78-1-1.84-1.07-2.14c-.75-1.45-1.37-3-1.88-4.07S89.8,309.11,89.8,309.11Z"/><path class="cls-1" d="M84.75,290.38l-6.07.59s.13.87.31,2.18.58,3,.92,4.74c.16.87.39,1.72.61,2.51s.42,1.54.59,2.18a15.78,15.78,0,0,0,.46,1.52l.19.58,5.86-1.58-.17-.53c-.12-.34-.27-.83-.43-1.42l-.55-2c-.2-.73-.42-1.52-.57-2.32-.32-1.6-.72-3.19-.86-4.41S84.75,290.38,84.75,290.38Z"/><path class="cls-1" d="M85.1,271l-6-.91s-.13.87-.31,2.17c-.09.66-.2,1.42-.31,2.24s-.13,1.7-.2,2.57-.11,1.76-.16,2.58,0,1.59,0,2.25c0,1.32,0,2.2,0,2.2l6.1-.1s0-.81,0-2c0-.61,0-1.32,0-2.09s.1-1.57.15-2.39.08-1.63.19-2.39.21-1.46.29-2.07C85,271.83,85.1,271,85.1,271Z"/><path class="cls-1" d="M91.33,252.67l-5.59-2.35-1,2c-.28.59-.61,1.29-1,2s-.61,1.59-.93,2.41l-.94,2.41c-.3.76-.47,1.51-.68,2.14l-.63,2.11,5.93,1.39s.24-.78.59-1.95c.19-.59.36-1.28.64-2s.58-1.47.87-2.23.6-1.52.87-2.23.65-1.33.91-1.88C91,253.4,91.33,252.67,91.33,252.67Z"/><path class="cls-1" d="M100.87,235.29l-5.24-3-3.37,5.93c-1.67,3-3.33,6-3.33,6L94.3,247l3.23-5.86Z"/><polygon class="cls-1" points="111.09 217.88 105.9 214.79 98.97 226.5 104.2 229.56 111.09 217.88"/><polygon class="cls-1" points="121.42 200.47 116.2 197.41 109.3 209.08 114.5 212.18 121.42 200.47"/><path class="cls-1" d="M131.43,182.77l-5.32-2.87-3.26,5.91c-1.64,2.95-3.33,5.88-3.33,5.88l5.25,3s1.7-2.95,3.36-5.94c.85-1.48,1.66-3,2.28-4.11Z"/><path class="cls-1" d="M140.55,164.48,135,162l-.87,1.9c-.52,1.15-1.24,2.66-2,4.17s-1.48,3-2.05,4.13l-1,1.88,5.38,2.77,1-1.91c.59-1.14,1.36-2.68,2.1-4.23s1.5-3.09,2-4.27S140.55,164.48,140.55,164.48Z"/><path class="cls-1" d="M148,145.28l-5.77-1.81s-.26.79-.64,2-.93,2.75-1.51,4.32-1.17,3.12-1.64,4.28l-.77,1.93,5.59,2.31.8-2c.49-1.19,1.13-2.8,1.7-4.44s1.19-3.25,1.57-4.5S148,145.28,148,145.28Z"/><path class="cls-1" d="M152.43,125l-6-.68s0,.2-.06.56-.12.86-.21,1.47c-.19,1.22-.38,2.85-.74,4.47s-.62,3.23-.93,4.43-.49,2-.49,2l5.86,1.5s.21-.85.51-2.12.67-3,1-4.7.58-3.46.78-4.76c.09-.65.17-1.19.23-1.57S152.43,125,152.43,125Z"/><path class="cls-1" d="M152.14,104l-6,.9s.11.81.29,2,.24,2.84.39,4.46.07,3.27.11,4.49-.07,2-.07,2l6,.21s0-.89.08-2.21,0-3.09-.12-4.86-.26-3.53-.42-4.84S152.14,104,152.14,104Z"/><path class="cls-1" d="M262.24,335l-5.52,1.62s-1.26-3.09-2.32-6.24c-.53-1.57-1-3.16-1.38-4.36l-.41-1.47c-.1-.35-.15-.55-.15-.55l5.75-.93s.05.19.13.52.22.79.38,1.34c.33,1.12.8,2.62,1.31,4.12C261,332.05,262.24,335,262.24,335Z"/><path class="cls-1" d="M270.61,352.13l-5.12,2.43-.3-.5c-.19-.32-.46-.77-.76-1.33-.6-1.11-1.45-2.57-2.2-4.08-1.57-3-2.94-6-2.94-6l5.41-1.88s1.31,2.92,2.8,5.76c.72,1.44,1.53,2.83,2.11,3.89.28.53.54,1,.72,1.26Z"/><path class="cls-1" d="M281.68,367.67l-4.29,3.56s-.6-.64-1.41-1.66-1.94-2.33-3-3.73l-1.53-2L270.24,362c-.73-1.07-1.22-1.77-1.22-1.77l4.91-2.77,1.13,1.64,1.17,1.68,1.41,1.89c.93,1.3,2,2.52,2.74,3.46S281.68,367.67,281.68,367.67Z"/><path class="cls-1" d="M295.88,380.71l-3.18,4.56L290.93,384c-1.08-.74-2.39-1.91-3.75-3-.69-.54-1.33-1.14-1.93-1.7s-1.17-1.07-1.65-1.52-.88-.81-1.14-1.09l-.42-.43L286,372.3l.39.4c.24.25.61.61,1.06,1l1.53,1.41c.55.52,1.15,1.07,1.78,1.57,1.27,1,2.48,2.12,3.48,2.81Z"/><path class="cls-1" d="M313,389.76,311.16,395l-2-.81-2.1-.83c-.76-.3-1.54-.71-2.34-1.08l-2.33-1.11c-.74-.37-1.4-.77-2-1.08L298.46,389l2.75-4.81,1.78,1c.54.3,1.16.67,1.84,1l2.16,1c.74.34,1.46.73,2.17,1l1.95.76Z"/><path class="cls-1" d="M331.81,393.65l-.4,5.58-2.15-.2-2.21-.21-2.52-.41L322,398c-.8-.13-1.54-.35-2.17-.49l-2.13-.51,1.38-5.39,2,.47c.59.12,1.28.33,2,.45l2.34.38,2.34.38,2.05.19Z"/><path class="cls-1" d="M351.21,394.42l.35,5.63-6.67-.17-6.73-.26-.1-5.62,6.55.25Z"/><polygon class="cls-1" points="370.94 394.67 371.37 400.3 358.08 400.16 357.69 394.53 370.94 394.67"/><polygon class="cls-1" points="390.72 394.83 391.12 400.46 377.87 400.34 377.43 394.71 390.72 394.83"/><path class="cls-1" d="M410.61,395.39l.19,5.62-6.61-.25c-3.3-.12-6.6-.18-6.6-.18l-.35-5.63s3.33.07,6.68.18c1.67,0,3.34.12,4.6.17Z"/><path class="cls-1" d="M430.63,396.93l-.23,5.6-2-.23c-1.23-.14-2.87-.29-4.51-.43s-3.29-.28-4.53-.35l-2.05-.15-.08-5.61,2.1.14c1.26.08,2.94.21,4.62.37s3.36.29,4.63.44Z"/><path class="cls-1" d="M450.71,400.27l-.94,5.47-2-.44c-1.21-.28-2.82-.59-4.45-.88s-3.24-.57-4.47-.76l-2-.32.42-5.56,2.11.33c1.27.19,3,.45,4.64.78s3.37.63,4.63.92Z"/><path class="cls-1" d="M470.45,406.51l-2,5.12-.52-.23-1.38-.53c-1.15-.44-2.66-1.07-4.23-1.57s-3.11-1.07-4.3-1.39l-2-.58,1.25-5.39,2.08.61c1.26.35,2.91.91,4.56,1.48s3.28,1.2,4.51,1.66l1.48.58Z"/><path class="cls-1" d="M488.7,416.85l-3.41,4.33-1.63-1.2c-1-.71-2.38-1.57-3.74-2.46s-2.82-1.63-3.88-2.25l-1.82-.93,2.47-4.91,2,1c1.15.66,2.69,1.53,4.2,2.43s3,1.91,4.07,2.68Z"/></g><g id="Command"><polygon class="cls-2" points="210.04 523.07 161.19 559.67 113.79 454.38 142.48 432.88 210.04 523.07"/><rect class="cls-3" x="155.71" y="429.01" width="23.01" height="112.16" transform="translate(-257.45 197.1) rotate(-36.84)"/><path class="cls-4" d="M365.59,302.42a17.45,17.45,0,0,1-3.5,24.42L66.27,487.91c-16.29,7.36-21.84-.06-27.61-7.76L5.83,436.33C.05,428.62-3.56,419.75,5.46,410L251.71,179.49a17.46,17.46,0,0,1,24.42,3.5Z"/><path class="cls-5" d="M15.24,400.81,5.46,410c-9,9.78-5.41,18.65.37,26.36l32.83,43.82c5.77,7.7,11.32,15.12,27.61,7.76l10.1-5.5Z"/><path class="cls-6" d="M251.71,179.49l-16.06,15,107,142.88,19.41-10.57a17.45,17.45,0,0,0,3.5-24.42L276.13,183A17.46,17.46,0,0,0,251.71,179.49Z"/><path class="cls-3" d="M22.74,458.9l15.92,21.25c5.77,7.7,11.32,15.12,27.61,7.76L362.09,326.84a17.45,17.45,0,0,0,3.5-24.42l-48.16-64.28Z"/></g><g id="Mail"><g id="Envelop"><g id="Envelop-2" data-name="Envelop"><rect class="cls-7" x="470.15" y="293.11" width="141.94" height="151.94" rx="9"/><path class="cls-8" d="M473.37,369.08H612.1l-50.73,36.35s-41.24,9.37-48.36,4.13-32.61-22.49-32.61-22.49Z"/><rect class="cls-9" x="483.77" y="305.72" width="114.7" height="125.57"/><path class="cls-10" d="M473.37,369.08h-3.22v67a9,9,0,0,0,9,9h124a9,9,0,0,0,9-9v-67l-71,38Z"/><path class="cls-11" d="M479.15,445h124a9,9,0,0,0,9-9v-67l-71,38-68.56,35.09A8.92,8.92,0,0,0,479.15,445Z"/></g><g id="Text" class="cls-12"><rect class="cls-13" x="497.65" y="317.72" width="92.21" height="3.37"/><rect class="cls-13" x="497.65" y="323.72" width="92.21" height="3.37"/><rect class="cls-13" x="497.65" y="330.09" width="92.21" height="3.37"/><rect class="cls-13" x="497.65" y="336.28" width="92.21" height="3.37"/><rect class="cls-13" x="497.65" y="344.15" width="92.21" height="3.37"/><rect class="cls-13" x="497.65" y="353.52" width="92.21" height="3.37"/><rect class="cls-13" x="497.65" y="360.08" width="92.21" height="3.37"/><rect class="cls-13" x="497.65" y="366.26" width="92.21" height="3.37"/><rect class="cls-13" x="497.65" y="373.38" width="92.21" height="3.37"/></g></g></g><g id="Mail-2" data-name="Mail"><g id="Envelop-3" data-name="Envelop"><g id="Envelop-4" data-name="Envelop"><rect class="cls-7" x="363.21" y="438.01" width="93.89" height="100.5" rx="5.95"/><path class="cls-8" d="M365.34,488.26H457.1l-33.55,24s-27.28,6.2-32,2.73S370,500.16,370,500.16Z"/><rect class="cls-9" x="372.22" y="446.36" width="75.87" height="83.06"/><path class="cls-14" d="M365.34,488.26h-2.13v44.3a6,6,0,0,0,6,6h82a6,6,0,0,0,6-6v-44.3l-46.94,25.12Z"/><path class="cls-15" d="M369.16,538.51h82a6,6,0,0,0,6-6v-44.3l-46.94,25.12L364.8,536.6A6,6,0,0,0,369.16,538.51Z"/></g><g id="Text-2" data-name="Text" class="cls-12"><rect class="cls-13" x="381.4" y="454.29" width="60.99" height="2.23"/><rect class="cls-13" x="381.4" y="458.26" width="60.99" height="2.23"/><rect class="cls-13" x="381.4" y="462.47" width="60.99" height="2.23"/><rect class="cls-13" x="381.4" y="466.56" width="60.99" height="2.23"/><rect class="cls-13" x="381.4" y="471.77" width="60.99" height="2.23"/><rect class="cls-13" x="381.4" y="477.97" width="60.99" height="2.23"/><rect class="cls-13" x="381.4" y="482.31" width="60.99" height="2.23"/><rect class="cls-13" x="381.4" y="486.4" width="60.99" height="2.23"/><rect class="cls-13" x="381.4" y="491.11" width="60.99" height="2.23"/></g></g></g><g id="Document"><path class="cls-16" d="M504.83,4.53H431.9l-1,0H382.55A7.5,7.5,0,0,0,375.07,12v69.1a7.5,7.5,0,0,0,7.48,7.48H501a7.51,7.51,0,0,0,7.48-7.48V8.15A3.63,3.63,0,0,0,504.83,4.53ZM433,4.6Zm1,.12h0Zm5.93,7.83a.32.32,0,0,0,.08.09A.32.32,0,0,1,439.9,12.55Zm-.52-.75,0,0Zm.23.38.05.08Zm.64.72.11.1Zm.43.32.15.11Zm.52.3.2.1Zm.61.26.24.09Zm.73.22.29.07Zm.83.18c.12,0,.23,0,.35.06C443.6,14.22,443.49,14.19,443.37,14.18Zm1,.13.36,0Zm1.19.08.33,0Z"/><path class="cls-17" d="M504.83,4.53H431.9c12.44.48.75,10.15,15.29,9.89h61.26V8.15A3.63,3.63,0,0,0,504.83,4.53Z"/><path class="cls-18" d="M447.19,14.42h54.5a9.33,9.33,0,0,0-8.9-6.68H438.32C439.32,10.7,437.9,14.58,447.19,14.42Z"/><rect class="cls-19" x="412.25" y="28.15" width="59.01" height="34.35"/><rect class="cls-20" x="417.5" y="39.81" width="48.5" height="2.28"/><rect class="cls-20" x="417.5" y="43.62" width="48.5" height="2.29"/><rect class="cls-20" x="417.5" y="47.44" width="48.5" height="2.29"/><rect class="cls-20" x="417.5" y="51.26" width="48.5" height="2.28"/><path class="cls-3" d="M481.13,88.57H501a7.51,7.51,0,0,0,7.48-7.48V39.18C503.24,55.9,494.32,77.82,481.13,88.57Z"/><g id="Document-2" data-name="Document"><path class="cls-21" d="M556.73,38H469.32l-1.16,0h-58c-4.93,0-9,3.79-9,8.41v77.72c0,4.62,4,8.41,9,8.41h142c4.92,0,9-3.79,9-8.41v-82A4.22,4.22,0,0,0,556.73,38Zm-86.09.08h0Zm1.15.14ZM478.9,47a.94.94,0,0,0,.1.1A.94.94,0,0,1,478.9,47Zm-.62-.85,0,0Zm.28.43.05.09Zm.77.81a.69.69,0,0,0,.13.11A.69.69,0,0,1,479.33,47.42Zm.51.36a1.22,1.22,0,0,0,.19.12A1.22,1.22,0,0,1,479.84,47.78Zm.62.34.24.11Zm.74.29.29.1Zm.86.25.35.08Zm1,.2.41.07Zm1.19.15.44,0Zm1.42.09.4,0Z"/><path class="cls-17" d="M556.73,38H469.32c14.91.53.9,11.41,18.32,11.12h73.43v-7A4.22,4.22,0,0,0,556.73,38Z"/><path class="cls-22" d="M487.64,49.13H553a11.1,11.1,0,0,0-10.68-7.51H477C478.22,44.94,476.52,49.31,487.64,49.13Z"/><rect class="cls-19" x="445.76" y="64.58" width="70.73" height="38.64"/><rect class="cls-23" x="452.06" y="77.69" width="58.13" height="2.57"/><rect class="cls-23" x="452.06" y="81.98" width="58.13" height="2.57"/><rect class="cls-23" x="452.06" y="86.28" width="58.13" height="2.57"/><rect class="cls-23" x="452.06" y="90.57" width="58.13" height="2.57"/></g></g><g id="Command-2" data-name="Command"><path class="cls-24" d="M191.82,18.46c43.92,0,79.52,27.25,79.52,60.87,0,23.45-17.35,43.8-42.75,54a45.26,45.26,0,0,0,17.9,20.18s-17.67-7.41-27-17.09a101.22,101.22,0,0,1-27.72,3.81c-43.91,0-79.51-27.25-79.51-60.86S147.91,18.46,191.82,18.46Z"/><path class="cls-25" d="M233,79.33a6.75,6.75,0,1,0,6.74-6.75A6.74,6.74,0,0,0,233,79.33Z"/><circle class="cls-25" cx="214.01" cy="79.33" r="6.74" transform="translate(6.59 174.56) rotate(-45)"/><path class="cls-25" d="M183.3,79.33a6.75,6.75,0,1,0,6.75-6.75A6.75,6.75,0,0,0,183.3,79.33Z"/><circle class="cls-25" cx="166.26" cy="79.33" r="6.74" transform="translate(-7.39 140.8) rotate(-45)"/><circle class="cls-25" cx="141.06" cy="79.33" r="6.74" transform="translate(13.79 179.29) rotate(-67.5)"/><path class="cls-25" d="M271.34,79.33c0,23.45-17.35,43.8-42.75,54a45.26,45.26,0,0,0,17.9,20.18s-17.67-7.41-27-17.09a101.22,101.22,0,0,1-27.72,3.81c-43.91,0-79.51-27.25-79.51-60.86Z"/><path class="cls-26" d="M159.52,0C115.6,0,80,27.25,80,60.87c0,23.45,17.34,43.8,42.74,54A45.26,45.26,0,0,1,104.85,135s17.67-7.41,27-17.08a101.15,101.15,0,0,0,27.71,3.8c43.91,0,79.52-27.25,79.52-60.86S203.43,0,159.52,0Z"/><path class="cls-25" d="M80,60.87c0,23.45,17.34,43.8,42.74,54A45.26,45.26,0,0,1,104.85,135s17.67-7.41,27-17.08a101.15,101.15,0,0,0,27.71,3.8c43.91,0,79.52-27.25,79.52-60.86Z"/></g><path class="cls-4" d="M118.34,60.87a6.75,6.75,0,1,1-6.74-6.75A6.74,6.74,0,0,1,118.34,60.87Z"/><path class="cls-4" d="M144.08,60.87a6.75,6.75,0,1,1-6.74-6.75A6.74,6.74,0,0,1,144.08,60.87Z"/><path class="cls-4" d="M168,60.87a6.75,6.75,0,1,1-6.74-6.75A6.74,6.74,0,0,1,168,60.87Z"/><circle class="cls-4" cx="185.08" cy="60.87" r="6.74"/><circle class="cls-4" cx="210.28" cy="60.87" r="6.74"/></g></g></g></svg>