<svg xmlns="http://www.w3.org/2000/svg" xmlns:xlink="http://www.w3.org/1999/xlink" viewBox="0 0 571.79 459.81"><defs><style>.cls-1{fill:url(#linear-gradient);}.cls-2{fill:#e2e2e0;}.cls-3{fill:url(#linear-gradient-2);}.cls-4{fill:#e34932;}.cls-5{fill:#ffa931;}.cls-16,.cls-6{fill:#63cbe8;}.cls-6{opacity:0.1;}.cls-7{fill:#ecf0f1;}.cls-14,.cls-8{fill:#4d4d4d;}.cls-9{fill:#ff614f;}.cls-10{fill:#84e570;}.cls-11{fill:#7d57ff;}.cls-12{fill:#e2e1e0;}.cls-13{fill:url(#linear-gradient-3);}.cls-14{opacity:0.5;}.cls-15{fill:#4c4c4b;}.cls-16{opacity:0.2;}</style><linearGradient id="linear-gradient" x1="7.18" y1="240.54" x2="484.11" y2="240.54" gradientUnits="userSpaceOnUse"><stop offset="0" stop-color="#031e5d"/><stop offset="0.09" stop-color="#03286d"/><stop offset="0.22" stop-color="#033580"/><stop offset="0.39" stop-color="#033d8d"/><stop offset="0.6" stop-color="#034395"/><stop offset="1" stop-color="#034497"/></linearGradient><linearGradient id="linear-gradient-2" x1="136.2" y1="327.71" x2="355.08" y2="327.71" xlink:href="#linear-gradient"/><linearGradient id="linear-gradient-3" x1="7.79" y1="83.07" x2="101.66" y2="83.07" gradientUnits="userSpaceOnUse"><stop offset="0" stop-color="#7ac943"/><stop offset="0.19" stop-color="#89cc4e"/><stop offset="0.72" stop-color="#b0d36b"/><stop offset="1" stop-color="#bfd676"/></linearGradient></defs><title>Speed Acces</title><g id="Layer_2" data-name="Layer 2"><g id="Layer_2-2" data-name="Layer 2"><g id="Speed_Acces" data-name="Speed Acces"><g id="Speed_Acces-2" data-name="Speed Acces"><g id="Speed"><path class="cls-1" d="M448.1,422.79a237.4,237.4,0,0,0,36-126c0-131.7-106.77-238.46-238.47-238.46S7.18,165.05,7.18,296.75a237.4,237.4,0,0,0,36,126Z"/><path class="cls-2" d="M435.39,411.35a222.43,222.43,0,0,0,33.75-118.12c0-123.44-100.06-223.5-223.5-223.5S22.15,169.79,22.15,293.23A222.34,222.34,0,0,0,55.9,411.35Z"/><path class="cls-3" d="M338.55,411.35a109.44,109.44,0,1,0-185.82,0Z"/><path class="cls-4" d="M279.38,333a33.74,33.74,0,1,1-33.74-33.74A33.74,33.74,0,0,1,279.38,333Z"/><polygon class="cls-5" points="245.64 329 382.89 201.48 385.75 204.34 250.66 334.55 245.64 329"/><rect class="cls-4" x="243.5" y="83.54" width="4.29" height="23.16"/><rect class="cls-4" x="435.64" y="240.54" width="4.29" height="23.16" transform="translate(179.77 686.45) rotate(-89.22)"/><rect class="cls-4" x="52.5" y="245.15" width="4.29" height="23.16" transform="translate(-202.8 307.9) rotate(-89.23)"/><path class="cls-6" d="M245.64,58.29l-2.14,0V422.79H448.1a237.4,237.4,0,0,0,36-126C484.11,165.05,377.34,58.29,245.64,58.29Z"/></g><g id="Web"><path class="cls-7" d="M157.39,142.37a6.33,6.33,0,0,1-6,6.58H6a6.33,6.33,0,0,1-6-6.58V25.6A6.33,6.33,0,0,1,6,19H151.36a6.33,6.33,0,0,1,6,6.58Z"/><path class="cls-8" d="M151.36,19H6A6.33,6.33,0,0,0,0,25.6V51.09H157.39V25.6A6.33,6.33,0,0,0,151.36,19Z"/><path class="cls-9" d="M132.42,24.87a3,3,0,1,1-6,0,3,3,0,1,1,6,0Z"/><path class="cls-10" d="M142.39,24.87a3,3,0,1,1-6,0,3,3,0,1,1,6,0Z"/><path class="cls-11" d="M152.78,24.87a3,3,0,1,1-6,0,3,3,0,1,1,6,0Z"/><path class="cls-12" d="M118.17,30a4.9,4.9,0,0,1-4.67,5.1h-92A4.9,4.9,0,0,1,16.85,30h0a4.89,4.89,0,0,1,4.67-5.09h92A4.89,4.89,0,0,1,118.17,30Z"/><rect class="cls-13" x="7.79" y="57.12" width="93.87" height="51.9"/><rect class="cls-14" x="7.79" y="118.52" width="141.97" height="9.5"/><rect class="cls-14" x="7.71" y="132.41" width="141.97" height="9.5"/></g><g id="Cloud"><path class="cls-15" d="M494.71,87.26a14.48,14.48,0,0,0-3.26.37c-3.32-14.13-14.22-24.5-27.14-24.5-9.53,0-17.95,5.63-23.05,14.26a24.3,24.3,0,0,0-35,21.5,23.55,23.55,0,0,0,.64,5.48H508.43a13.84,13.84,0,0,0,.37-3.18A14,14,0,0,0,494.71,87.26Z"/><path class="cls-7" d="M488,87.26a14.63,14.63,0,0,0-3.27.37c-3.32-14.13-14.21-24.5-27.14-24.5-9.52,0-17.95,5.63-23.05,14.26a24.11,24.11,0,0,0-34.37,27H501.68a13.84,13.84,0,0,0,.37-3.18A14,14,0,0,0,488,87.26Z"/><path class="cls-16" d="M488,87.26a14.63,14.63,0,0,0-3.27.37c-3.32-14.13-14.21-24.5-27.14-24.5-.4,0-.8,0-1.19,0v41.21h45.31a13.84,13.84,0,0,0,.37-3.18A14,14,0,0,0,488,87.26Z"/><path class="cls-15" d="M264,24.13a14,14,0,0,0-3.26.38C257.38,10.37,246.49,0,233.56,0,224,0,215.61,5.63,210.51,14.26a24.31,24.31,0,0,0-35,21.5,24.19,24.19,0,0,0,.64,5.49H277.68A13.93,13.93,0,0,0,264,24.13Z"/><path class="cls-7" d="M257.22,24.13a14,14,0,0,0-3.26.38C250.64,10.37,239.75,0,226.82,0c-9.53,0-17.95,5.63-23,14.26a24.31,24.31,0,0,0-35,21.5,23.64,23.64,0,0,0,.64,5.49H270.94a13.93,13.93,0,0,0-13.72-17.12Z"/><path class="cls-16" d="M257.22,24.13a14,14,0,0,0-3.26.38C250.64,10.37,239.75,0,226.82,0c-.4,0-.8,0-1.2,0V41.25h45.32a13.93,13.93,0,0,0-13.72-17.12Z"/><path class="cls-15" d="M237.75,429.08a25.66,25.66,0,0,0-5.85.68c-6-25.38-25.52-44-48.72-44-17.11,0-32.23,10.12-41.39,25.6a43.74,43.74,0,0,0-19.3-4.46c-24,0-43.55,19.28-43.55,43.06a42.62,42.62,0,0,0,1.15,9.85H262.38a24.53,24.53,0,0,0,.66-5.72A25.15,25.15,0,0,0,237.75,429.08Z"/><path class="cls-7" d="M225.65,429.08a25.68,25.68,0,0,0-5.86.68c-6-25.38-25.51-44-48.72-44-17.1,0-32.23,10.12-41.38,25.6a43.81,43.81,0,0,0-19.31-4.46c-24,0-43.54,19.28-43.54,43.06A43.17,43.17,0,0,0,68,459.81h182.3a25,25,0,0,0-24.63-30.73Z"/><path class="cls-16" d="M225.65,429.08a25.68,25.68,0,0,0-5.86.68c-6-25.38-25.51-44-48.72-44-.72,0-1.44,0-2.15.06v74h81.36a25,25,0,0,0-24.63-30.73Z"/><path class="cls-15" d="M540.17,353.42a32.09,32.09,0,0,0-7.32.85c-7.45-31.73-31.9-55-60.91-55-21.39,0-40.29,12.65-51.74,32a54.77,54.77,0,0,0-24.14-5.57c-30.06,0-54.44,24.11-54.44,53.85a53.63,53.63,0,0,0,1.43,12.3H571a30.62,30.62,0,0,0,.83-7.15A31.45,31.45,0,0,0,540.17,353.42Z"/><path class="cls-7" d="M525,353.42a32,32,0,0,0-7.31.85c-7.45-31.73-31.9-55-60.92-55-21.38,0-40.29,12.65-51.73,32a54.8,54.8,0,0,0-24.14-5.57c-30.07,0-54.44,24.11-54.44,53.85a53.63,53.63,0,0,0,1.43,12.3H555.83A31.27,31.27,0,0,0,525,353.42Z"/><path class="cls-16" d="M525,353.42a32,32,0,0,0-7.31.85c-7.45-31.73-31.9-55-60.92-55-.9,0-1.79,0-2.69.08v92.5H555.83A31.27,31.27,0,0,0,525,353.42Z"/></g></g></g></g></g></svg>