<svg xmlns="http://www.w3.org/2000/svg" xmlns:xlink="http://www.w3.org/1999/xlink" viewBox="0 0 65.06 65.06"><defs><style>.cls-1{fill:url(#Degradado_sin_nombre_25);}.cls-2{fill:url(#Degradado_sin_nombre_25-2);}.cls-3{fill:#fff;}.cls-4{fill:url(#Degradado_sin_nombre_13);}</style><linearGradient id="Degradado_sin_nombre_25" x1="35" y1="26.35" x2="34.94" y2="26.43" gradientUnits="userSpaceOnUse"><stop offset="0" stop-color="#f6f6f7"/><stop offset="1" stop-color="#fff"/></linearGradient><linearGradient id="Degradado_sin_nombre_25-2" x1="52.26" y1="3.39" x2="10.96" y2="64.4" xlink:href="#Degradado_sin_nombre_25"/><linearGradient id="Degradado_sin_nombre_13" x1="35" y1="26.34" x2="34.94" y2="26.43" gradientUnits="userSpaceOnUse"><stop offset="0" stop-color="#1e1e1e"/><stop offset="1" stop-color="#434040"/></linearGradient></defs><title>twitter</title><g id="Layer_2" data-name="Layer 2"><g id="Layer_2-2" data-name="Layer 2"><path class="cls-1" d="M35,26.38v0Z"/><path class="cls-2" d="M32.53,0A32.53,32.53,0,1,0,65.06,32.52,32.53,32.53,0,0,0,32.53,0ZM52.48,23.08a9.25,9.25,0,0,1-2,1.65v0C50.14,36,42.59,47.5,29.21,48.2a19.49,19.49,0,0,1-13.28-4.76A14.18,14.18,0,0,0,20,44,11.23,11.23,0,0,0,24,43.31a13.37,13.37,0,0,0,3.54-2S20,39.26,20.2,35.78l3.57-.1a11.38,11.38,0,0,1-3.54-1.84c-2.15-1.93-3.39-4.63-2.77-6.14a4.68,4.68,0,0,0,1.43.7,6.6,6.6,0,0,0,2,.33h0a9.13,9.13,0,0,1-2.88-3.34c-1-2.75-.49-6.26.51-7.32,0,0,.39,2.23,6.75,5.44A24.62,24.62,0,0,0,35,26.38a10.25,10.25,0,0,1-.32-2.61c0-3.83,3.55-6.94,7.93-6.94a8.66,8.66,0,0,1,3.44.69,7.79,7.79,0,0,1,2.68,1.83l2.11-1,2.52-1.07a.62.62,0,0,1,0,.54c-.26.9-2.23,2.82-3,3.44l0,.16a5.11,5.11,0,0,0,1.5-.19c.84-.23,2.84-1.1,2.84-1.1A13.82,13.82,0,0,1,52.48,23.08Z"/><polygon class="cls-3" points="53.33 17.33 53.33 17.33 53.33 17.33 53.33 17.33"/><path class="cls-4" d="M35,26.34v0Z"/><path class="cls-3" d="M53.33,17.33c0,.22,0,0,0,0Z"/></g></g></svg>